AnekTamil-CondensedThin.ufo
<glyph name="greater" format="2">
  <advance width="655"/>
  <unicode hex="003E"/>
  <outline>
    <contour>
      <point x="564" y="643" type="line"/>
      <point x="564" y="630" type="line"/>
      <point x="108" y="466" type="line"/>
      <point x="108" y="431" type="line"/>
      <point x="594" y="606" type="line"/>
      <point x="594" y="667" type="line"/>
      <point x="108" y="842" type="line"/>
      <point x="108" y="807" type="line"/>
    </contour>
  </outline>
</glyph>
<glyph name="question" format="2">
  <advance width="446"/>
  <unicode hex="003F"/>
  <outline>
    <contour>
      <point x="143" y="355" type="line"/>
      <point x="191" y="390" type="line" smooth="yes"/>
      <point x="311" y="478"/>
      <point x="357" y="559"/>
      <point x="357" y="745" type="curve" smooth="yes"/>
      <point x="357" y="1045" type="line" smooth="yes"/>
      <point x="357" y="1210"/>
      <point x="309" y="1293"/>
      <point x="184" y="1293" type="curve" smooth="yes"/>
      <point x="127" y="1293"/>
      <point x="75" y="1269"/>
      <point x="44" y="1245" type="curve"/>
      <point x="38" y="1206" type="line"/>
      <point x="81" y="1236"/>
      <point x="125" y="1258"/>
      <point x="184" y="1258" type="curve" smooth="yes"/>
      <point x="283" y="1258"/>
      <point x="320" y="1190"/>
      <point x="320" y="1043" type="curve" smooth="yes"/>
      <point x="320" y="743" type="line" smooth="yes"/>
      <point x="320" y="574"/>
      <point x="284" y="502"/>
      <point x="173" y="421" type="curve" smooth="yes"/>
      <point x="143" y="399" type="line"/>
    </contour>
    <contour>
      <point x="156" y="-9" type="curve" smooth="yes"/>
      <point x="178" y="-9"/>
      <point x="186" y="9"/>
      <point x="186" y="50" type="curve" smooth="yes"/>
      <point x="186" y="66" type="line" smooth="yes"/>
      <point x="186" y="106"/>
      <point x="178" y="125"/>
      <point x="156" y="125" type="curve" smooth="yes"/>
      <point x="134" y="125"/>
      <point x="127" y="106"/>
      <point x="127" y="66" type="curve" smooth="yes"/>
      <point x="127" y="50" type="line" smooth="yes"/>
      <point x="127" y="9"/>
      <point x="134" y="-9"/>
    </contour>
  </outline>
</glyph>
<glyph name="G" format="2">
  <advance width="634"/>
  <unicode hex="0047"/>
  <anchor x="317" y="0" name="bottom"/>
  <anchor x="317" y="1278" name="top"/>
  <outline>
    <contour>
      <point x="309" y="-15" type="curve" smooth="yes"/>
      <point x="430" y="-15"/>
      <point x="488" y="71"/>
      <point x="507" y="183" type="curve"/>
      <point x="534" y="179" type="line"/>
      <point x="534" y="699" type="line"/>
      <point x="336" y="699" type="line"/>
      <point x="336" y="666" type="line"/>
      <point x="514" y="666" type="line"/>
      <point x="498" y="681" type="line"/>
      <point x="498" y="218" type="line"/>
      <point x="476" y="110"/>
      <point x="425" y="21"/>
      <point x="313" y="21" type="curve" smooth="yes"/>
      <point x="190" y="21"/>
      <point x="139" y="105"/>
      <point x="139" y="257" type="curve" smooth="yes"/>
      <point x="139" y="982" type="line" smooth="yes"/>
      <point x="139" y="1160"/>
      <point x="194" y="1257"/>
      <point x="330" y="1257" type="curve" smooth="yes"/>
      <point x="413" y="1257"/>
      <point x="470" y="1225"/>
      <point x="522" y="1181" type="curve"/>
      <point x="516" y="1223" type="line"/>
      <point x="475" y="1261"/>
      <point x="416" y="1293"/>
      <point x="330" y="1293" type="curve" smooth="yes"/>
      <point x="168" y="1293"/>
      <point x="100" y="1183"/>
      <point x="100" y="982" type="curve" smooth="yes"/>
      <point x="100" y="255" type="line" smooth="yes"/>
      <point x="100" y="80"/>
      <point x="166" y="-15"/>
    </contour>
    <contour>
      <point x="502" y="199" type="line"/>
      <point x="497" y="0" type="line"/>
      <point x="534" y="0" type="line"/>
      <point x="534" y="199" type="line"/>
    </contour>
  </outline>
</glyph>
<glyph name="L" format="2">
  <advance width="520"/>
  <unicode hex="004C"/>
  <anchor x="302" y="0" name="bottom"/>
  <anchor x="255" y="667" name="center"/>
  <anchor x="141" y="1278" name="top"/>
  <anchor x="377" y="1278" name="topright"/>
  <outline>
    <contour>
      <point x="160" y="0" type="line"/>
      <point x="160" y="1278" type="line"/>
      <point x="121" y="1278" type="line"/>
      <point x="121" y="0" type="line"/>
    </contour>
    <contour>
      <point x="125" y="35" type="line"/>
      <point x="125" y="0" type="line"/>
      <point x="490" y="0" type="line"/>
      <point x="490" y="35" type="line"/>
    </contour>
  </outline>
</glyph>
<glyph name="Q" format="2">
  <advance width="667"/>
  <unicode hex="0051"/>
  <anchor x="334" y="0" name="bottom"/>
  <anchor x="334" y="1278" name="top"/>
  <outline>
    <contour>
      <point x="655" y="-17" type="line"/>
      <point x="655" y="20" type="line"/>
      <point x="412" y="15" type="line"/>
      <point x="421" y="13" type="line"/>
      <point x="503" y="38"/>
      <point x="564" y="119"/>
      <point x="564" y="294" type="curve" smooth="yes"/>
      <point x="564" y="985" type="line" smooth="yes"/>
      <point x="564" y="1187"/>
      <point x="485" y="1293"/>
      <point x="332" y="1293" type="curve" smooth="yes"/>
      <point x="178" y="1293"/>
      <point x="100" y="1187"/>
      <point x="100" y="985" type="curve" smooth="yes"/>
      <point x="100" y="298" type="line" smooth="yes"/>
      <point x="100" y="99"/>
      <point x="174" y="-10"/>
      <point x="363" y="-13" type="curve" smooth="yes"/>
    </contour>
    <contour>
      <point x="362" y="19" type="line" smooth="yes"/>
      <point x="209" y="19"/>
      <point x="139" y="118"/>
      <point x="139" y="296" type="curve" smooth="yes"/>
      <point x="139" y="987" type="line" smooth="yes"/>
      <point x="139" y="1162"/>
      <point x="201" y="1257"/>
      <point x="332" y="1257" type="curve" smooth="yes"/>
      <point x="463" y="1257"/>
      <point x="525" y="1162"/>
      <point x="525" y="987" type="curve" smooth="yes"/>
      <point x="525" y="296" type="line" smooth="yes"/>
      <point x="525" y="137"/>
      <point x="473" y="44"/>
      <point x="379" y="19" type="curve"/>
    </contour>
  </outline>
</glyph>
<glyph name="T" format="2">
  <advance width="533"/>
  <unicode hex="0054"/>
  <anchor x="267" y="0" name="bottom"/>
  <anchor x="267" y="639" name="center"/>
  <anchor x="267" y="1278" name="top"/>
  <outline>
    <contour>
      <point x="247" y="0" type="line"/>
      <point x="286" y="0" type="line"/>
      <point x="286" y="1278" type="line"/>
      <point x="247" y="1278" type="line"/>
    </contour>
    <contour>
      <point x="36" y="1244" type="line"/>
      <point x="497" y="1244" type="line"/>
      <point x="497" y="1278" type="line"/>
      <point x="36" y="1278" type="line"/>
    </contour>
  </outline>
</glyph>
<glyph name="OE" format="2">
  <advance width="906"/>
  <unicode hex="0152"/>
  <anchor x="453" y="0" name="bottom"/>
  <anchor x="453" y="1278" name="top"/>
  <outline>
    <contour>
      <point x="332" y="-15" type="curve" smooth="yes"/>
      <point x="485" y="-15"/>
      <point x="564" y="89"/>
      <point x="564" y="291" type="curve"/>
      <point x="564" y="985" type="line"/>
      <point x="564" y="1187"/>
      <point x="485" y="1293"/>
      <point x="332" y="1293" type="curve" smooth="yes"/>
      <point x="178" y="1293"/>
      <point x="100" y="1187"/>
      <point x="100" y="985" type="curve"/>
      <point x="100" y="291" type="line"/>
      <point x="100" y="89"/>
      <point x="178" y="-15"/>
    </contour>
    <contour>
      <point x="332" y="21" type="curve" smooth="yes"/>
      <point x="201" y="21"/>
      <point x="139" y="116"/>
      <point x="139" y="290" type="curve" smooth="yes"/>
      <point x="139" y="987" type="line" smooth="yes"/>
      <point x="139" y="1162"/>
      <point x="201" y="1257"/>
      <point x="332" y="1257" type="curve" smooth="yes"/>
      <point x="463" y="1257"/>
      <point x="525" y="1162"/>
      <point x="525" y="987" type="curve" smooth="yes"/>
      <point x="525" y="290" type="line" smooth="yes"/>
      <point x="525" y="116"/>
      <point x="463" y="21"/>
    </contour>
    <contour>
      <point x="411" y="0" type="line"/>
      <point x="840" y="0" type="line"/>
      <point x="840" y="35" type="line"/>
      <point x="411" y="35" type="line"/>
    </contour>
    <contour>
      <point x="543" y="641" type="line"/>
      <point x="836" y="641" type="line"/>
      <point x="836" y="675" type="line"/>
      <point x="543" y="675" type="line"/>
    </contour>
    <contour>
      <point x="407" y="1243" type="line"/>
      <point x="840" y="1243" type="line"/>
      <point x="840" y="1278" type="line"/>
      <point x="407" y="1278" type="line"/>
    </contour>
  </outline>
</glyph>
<glyph name="macroncomb" format="2">
  <unicode hex="0304"/>
  <anchor x="266.5" y="990" name="_top"/>
  <anchor x="267" y="1258" name="top"/>
  <outline>
    <contour>
      <point x="108" y="1198" type="line"/>
      <point x="425" y="1198" type="line"/>
      <point x="425" y="1229" type="line"/>
      <point x="108" y="1229" type="line"/>
    </contour>
  </outline>
</glyph>
<glyph name="Aaytam.tm" format="2">
  <advance width="892"/>
  <unicode hex="0B83"/>
  <note>
Aaytam.tm
</note>
  <guideline x="1409" y="1483" angle="90"/>
  <guideline x="1124" y="1842" angle="0"/>
  <guideline x="1124" y="1855" angle="0"/>
  <guideline x="1124" y="1872" angle="0"/>
  <guideline x="1124" y="1341" angle="0"/>
  <guideline x="1182" y="1483" angle="90"/>
  <guideline x="1629" y="1483" angle="90"/>
  <guideline x="1273" y="1483" angle="90"/>
  <guideline x="1544" y="1483" angle="90"/>
  <outline>
    <contour>
      <point x="226" y="600" type="curve" smooth="yes"/>
      <point x="123" y="600"/>
      <point x="72" y="530"/>
      <point x="72" y="392" type="curve" smooth="yes"/>
      <point x="72" y="190" type="line"/>
      <point x="72" y="52"/>
      <point x="123" y="-18"/>
      <point x="226" y="-18" type="curve" smooth="yes"/>
      <point x="329" y="-18"/>
      <point x="379" y="52"/>
      <point x="379" y="190" type="curve" smooth="yes"/>
      <point x="379" y="392" type="line"/>
      <point x="379" y="530"/>
      <point x="329" y="600"/>
    </contour>
    <contour>
      <point x="226" y="567" type="curve" smooth="yes"/>
      <point x="305" y="567"/>
      <point x="344" y="512"/>
      <point x="344" y="390" type="curve" smooth="yes"/>
      <point x="344" y="191" type="line"/>
      <point x="344" y="70"/>
      <point x="305" y="15"/>
      <point x="226" y="15" type="curve" smooth="yes"/>
      <point x="147" y="15"/>
      <point x="107" y="70"/>
      <point x="107" y="191" type="curve" smooth="yes"/>
      <point x="107" y="390" type="line"/>
      <point x="107" y="512"/>
      <point x="147" y="567"/>
    </contour>
    <contour>
      <point x="668" y="600" type="curve" smooth="yes"/>
      <point x="565" y="600"/>
      <point x="513" y="530"/>
      <point x="513" y="392" type="curve" smooth="yes"/>
      <point x="513" y="190" type="line"/>
      <point x="513" y="52"/>
      <point x="565" y="-18"/>
      <point x="668" y="-18" type="curve" smooth="yes"/>
      <point x="771" y="-18"/>
      <point x="820" y="52"/>
      <point x="820" y="190" type="curve" smooth="yes"/>
      <point x="820" y="392" type="line"/>
      <point x="820" y="530"/>
      <point x="771" y="600"/>
    </contour>
    <contour>
      <point x="668" y="567" type="curve" smooth="yes"/>
      <point x="747" y="567"/>
      <point x="786" y="512"/>
      <point x="786" y="390" type="curve" smooth="yes"/>
      <point x="786" y="191" type="line"/>
      <point x="786" y="70"/>
      <point x="747" y="15"/>
      <point x="668" y="15" type="curve" smooth="yes"/>
      <point x="589" y="15"/>
      <point x="548" y="70"/>
      <point x="548" y="191" type="curve" smooth="yes"/>
      <point x="548" y="390" type="line"/>
      <point x="548" y="512"/>
      <point x="589" y="567"/>
    </contour>
    <contour>
      <point x="447" y="1236" type="curve" smooth="yes"/>
      <point x="344" y="1236"/>
      <point x="292" y="1167"/>
      <point x="292" y="1029" type="curve" smooth="yes"/>
      <point x="292" y="848" type="line"/>
      <point x="292" y="710"/>
      <point x="344" y="640"/>
      <point x="447" y="640" type="curve" smooth="yes"/>
      <point x="550" y="640"/>
      <point x="600" y="710"/>
      <point x="600" y="848" type="curve" smooth="yes"/>
      <point x="600" y="1029" type="line"/>
      <point x="600" y="1167"/>
      <point x="550" y="1236"/>
    </contour>
    <contour>
      <point x="447" y="1203" type="curve" smooth="yes"/>
      <point x="526" y="1203"/>
      <point x="565" y="1148"/>
      <point x="565" y="1027" type="curve" smooth="yes"/>
      <point x="565" y="850" type="line"/>
      <point x="565" y="729"/>
      <point x="526" y="673"/>
      <point x="447" y="673" type="curve" smooth="yes"/>
      <point x="368" y="673"/>
      <point x="327" y="729"/>
      <point x="327" y="850" type="curve" smooth="yes"/>
      <point x="327" y="1027" type="line"/>
      <point x="327" y="1148"/>
      <point x="368" y="1203"/>
    </contour>
  </outline>
</glyph>
<glyph name="VowelAa.tm" format="2">
  <advance width="1480"/>
  <unicode hex="0B86"/>
  <note>
vowelAa.tm
</note>
  <outline>
    <contour>
      <point x="1256" y="617" type="curve" smooth="yes"/>
      <point x="1177" y="617"/>
      <point x="1133" y="570"/>
      <point x="1114" y="506" type="curve"/>
      <point x="1103" y="506" type="line"/>
      <point x="1103" y="405" type="line"/>
      <point x="1109" y="405" type="line"/>
      <point x="1123" y="512"/>
      <point x="1168" y="584"/>
      <point x="1254" y="584" type="curve" smooth="yes"/>
      <point x="1350" y="584"/>
      <point x="1379" y="512"/>
      <point x="1379" y="379" type="curve" smooth="yes"/>
      <point x="1379" y="55" type="line" smooth="yes"/>
      <point x="1379" y="-145"/>
      <point x="1313" y="-214"/>
      <point x="1158" y="-214" type="curve" smooth="yes"/>
      <point x="1057" y="-214"/>
      <point x="973" y="-174"/>
      <point x="910" y="-129" type="curve"/>
      <point x="917" y="-173" type="line"/>
      <point x="967" y="-210"/>
      <point x="1052" y="-248"/>
      <point x="1158" y="-248" type="curve" smooth="yes"/>
      <point x="1337" y="-248"/>
      <point x="1414" y="-166"/>
      <point x="1414" y="55" type="curve" smooth="yes"/>
      <point x="1414" y="385" type="line" smooth="yes"/>
      <point x="1414" y="540"/>
      <point x="1366" y="617"/>
    </contour>
    <component base="VowelA.tm"/>
  </outline>
</glyph>
<glyph name="VowelIi.tm" format="2">
  <advance width="789"/>
  <unicode hex="0B88"/>
  <note>
vowelIi.tm
</note>
  <outline>
    <contour>
      <point x="520" y="0" type="line"/>
      <point x="555" y="0" type="line"/>
      <point x="555" y="1133" type="line"/>
      <point x="520" y="1133" type="line"/>
    </contour>
    <contour>
      <point x="344" y="524" type="curve" smooth="yes"/>
      <point x="366" y="524"/>
      <point x="371" y="545"/>
      <point x="371" y="591" type="curve" smooth="yes"/>
      <point x="371" y="657" type="line" smooth="yes"/>
      <point x="371" y="701"/>
      <point x="364" y="721"/>
      <point x="344" y="721" type="curve" smooth="yes"/>
      <point x="323" y="721"/>
      <point x="316" y="701"/>
      <point x="316" y="657" type="curve" smooth="yes"/>
      <point x="316" y="591" type="line" smooth="yes"/>
      <point x="316" y="545"/>
      <point x="322" y="524"/>
    </contour>
    <contour>
      <point x="702" y="524" type="curve" smooth="yes"/>
      <point x="724" y="524"/>
      <point x="730" y="545"/>
      <point x="730" y="591" type="curve" smooth="yes"/>
      <point x="730" y="657" type="line" smooth="yes"/>
      <point x="730" y="701"/>
      <point x="723" y="721"/>
      <point x="702" y="721" type="curve" smooth="yes"/>
      <point x="682" y="721"/>
      <point x="675" y="701"/>
      <point x="675" y="657" type="curve" smooth="yes"/>
      <point x="675" y="591" type="line" smooth="yes"/>
      <point x="675" y="545"/>
      <point x="680" y="524"/>
    </contour>
    <contour>
      <point x="568" y="1156" type="line"/>
      <point x="132" y="1156" type="line"/>
      <point x="132" y="0" type="line"/>
      <point x="167" y="0" type="line"/>
      <point x="167" y="1124" type="line"/>
      <point x="568" y="1124" type="line"/>
    </contour>
    <component base="RaBeak_Nonexporting" xOffset="467"/>
  </outline>
</glyph>
<glyph name="VowelU.tm" format="2">
  <advance width="807"/>
  <unicode hex="0B89"/>
  <note>
vowelU.tm
</note>
  <outline>
    <contour>
      <point x="394" y="1174" type="curve" smooth="yes"/>
      <point x="199" y="1174"/>
      <point x="101" y="1051"/>
      <point x="101" y="817" type="curve" smooth="yes"/>
      <point x="101" y="587" type="line" smooth="yes"/>
      <point x="101" y="440"/>
      <point x="144" y="362"/>
      <point x="260" y="362" type="curve" smooth="yes"/>
      <point x="375" y="362"/>
      <point x="415" y="440"/>
      <point x="415" y="587" type="curve" smooth="yes"/>
      <point x="415" y="736" type="line" smooth="yes"/>
      <point x="415" y="865"/>
      <point x="364" y="929"/>
      <point x="271" y="929" type="curve" smooth="yes"/>
      <point x="205" y="929"/>
      <point x="156" y="890"/>
      <point x="134" y="831" type="curve"/>
      <point x="129" y="831" type="line"/>
      <point x="129" y="760" type="line"/>
      <point x="149" y="848"/>
      <point x="199" y="896"/>
      <point x="267" y="896" type="curve" smooth="yes"/>
      <point x="341" y="896"/>
      <point x="381" y="841"/>
      <point x="381" y="734" type="curve" smooth="yes"/>
      <point x="381" y="590" type="line" smooth="yes"/>
      <point x="381" y="465"/>
      <point x="354" y="394"/>
      <point x="260" y="394" type="curve" smooth="yes"/>
      <point x="164" y="394"/>
      <point x="135" y="465"/>
      <point x="135" y="590" type="curve" smooth="yes"/>
      <point x="135" y="831" type="line"/>
      <point x="134" y="831" type="line"/>
      <point x="134" y="1032"/>
      <point x="218" y="1141"/>
      <point x="394" y="1141" type="curve" smooth="yes"/>
      <point x="565" y="1141"/>
      <point x="633" y="1027"/>
      <point x="633" y="804" type="curve" smooth="yes"/>
      <point x="633" y="596" type="line" smooth="yes"/>
      <point x="633" y="385"/>
      <point x="595" y="307"/>
      <point x="376" y="260" type="curve" smooth="yes"/>
      <point x="214" y="225" type="line" smooth="yes"/>
      <point x="127" y="206"/>
      <point x="90" y="172"/>
      <point x="90" y="101" type="curve" smooth="yes"/>
      <point x="90" y="63"/>
      <point x="98" y="24"/>
      <point x="103" y="0" type="curve"/>
      <point x="818" y="0" type="line"/>
      <point x="823" y="32" type="line"/>
      <point x="131" y="32" type="line"/>
      <point x="127" y="51"/>
      <point x="124" y="75"/>
      <point x="124" y="101" type="curve" smooth="yes"/>
      <point x="124" y="159"/>
      <point x="153" y="179"/>
      <point x="228" y="195" type="curve" smooth="yes"/>
      <point x="390" y="230" type="line" smooth="yes"/>
      <point x="620" y="280"/>
      <point x="668" y="367"/>
      <point x="668" y="594" type="curve" smooth="yes"/>
      <point x="668" y="804" type="line" smooth="yes"/>
      <point x="668" y="1047"/>
      <point x="589" y="1174"/>
    </contour>
  </outline>
</glyph>
<glyph name="VowelE.tm" format="2">
  <advance width="875"/>
  <unicode hex="0B8E"/>
  <note>
vowelE.tm
</note>
  <outline>
    <contour>
      <point x="531" y="1124" type="line"/>
      <point x="881" y="1124" type="line"/>
      <point x="877" y="1156" type="line"/>
      <point x="531" y="1156" type="line"/>
    </contour>
    <contour>
      <point x="686" y="1130" type="line"/>
      <point x="686" y="0" type="line"/>
      <point x="721" y="0" type="line"/>
      <point x="721" y="1130" type="line"/>
    </contour>
    <component base="VowelE_NonExporting" xOffset="2"/>
  </outline>
</glyph>
<glyph name="VowelAi.tm" format="2">
  <advance width="1085"/>
  <unicode hex="0B90"/>
  <note>
vowelAi.tm
</note>
  <outline>
    <contour>
      <point x="379" y="1174" type="curve" smooth="yes"/>
      <point x="194" y="1174"/>
      <point x="102" y="1056"/>
      <point x="102" y="835" type="curve" smooth="yes"/>
      <point x="102" y="570" type="line" smooth="yes"/>
      <point x="102" y="419"/>
      <point x="146" y="340"/>
      <point x="265" y="340" type="curve" smooth="yes"/>
      <point x="387" y="340"/>
      <point x="431" y="419"/>
      <point x="431" y="570" type="curve" smooth="yes"/>
      <point x="431" y="753" type="line" smooth="yes"/>
      <point x="431" y="879"/>
      <point x="376" y="943"/>
      <point x="276" y="943" type="curve" smooth="yes"/>
      <point x="207" y="943"/>
      <point x="156" y="902"/>
      <point x="134" y="840" type="curve"/>
      <point x="130" y="840" type="line"/>
      <point x="130" y="771" type="line"/>
      <point x="149" y="860"/>
      <point x="204" y="910"/>
      <point x="272" y="910" type="curve" smooth="yes"/>
      <point x="353" y="910"/>
      <point x="397" y="855"/>
      <point x="397" y="751" type="curve" smooth="yes"/>
      <point x="397" y="574" type="line" smooth="yes"/>
      <point x="397" y="446"/>
      <point x="368" y="372"/>
      <point x="265" y="372" type="curve" smooth="yes"/>
      <point x="165" y="372"/>
      <point x="136" y="446"/>
      <point x="136" y="574" type="curve" smooth="yes"/>
      <point x="136" y="840" type="line"/>
      <point x="134" y="840" type="line"/>
      <point x="134" y="1036"/>
      <point x="215" y="1141"/>
      <point x="379" y="1141" type="curve" smooth="yes"/>
      <point x="542" y="1141"/>
      <point x="609" y="1032"/>
      <point x="609" y="822" type="curve" smooth="yes"/>
      <point x="609" y="390" type="line"/>
      <point x="643" y="390" type="line"/>
      <point x="643" y="926" type="line" smooth="yes"/>
      <point x="643" y="1069"/>
      <point x="691" y="1141"/>
      <point x="795" y="1141" type="curve" smooth="yes"/>
      <point x="898" y="1141"/>
      <point x="941" y="1073"/>
      <point x="941" y="942" type="curve" smooth="yes"/>
      <point x="941" y="558" type="line" smooth="yes"/>
      <point x="941" y="406"/>
      <point x="903" y="322"/>
      <point x="732" y="295" type="curve" smooth="yes"/>
      <point x="333" y="232" type="line" smooth="yes"/>
      <point x="184" y="208"/>
      <point x="127" y="143"/>
      <point x="127" y="-22" type="curve" smooth="yes"/>
      <point x="127" y="-64" type="line" smooth="yes"/>
      <point x="127" y="-234"/>
      <point x="206" y="-320"/>
      <point x="358" y="-320" type="curve" smooth="yes"/>
      <point x="491" y="-320"/>
      <point x="565" y="-254"/>
      <point x="572" y="-120" type="curve"/>
      <point x="574" y="-120" type="line"/>
      <point x="581" y="-254"/>
      <point x="642" y="-320"/>
      <point x="763" y="-320" type="curve" smooth="yes"/>
      <point x="892" y="-320"/>
      <point x="955" y="-245"/>
      <point x="955" y="-90" type="curve" smooth="yes"/>
      <point x="955" y="3"/>
      <point x="955" y="91"/>
      <point x="955" y="184" type="curve"/>
      <point x="921" y="191" type="line"/>
      <point x="921" y="97"/>
      <point x="921" y="5"/>
      <point x="921" y="-90" type="curve" smooth="yes"/>
      <point x="921" y="-225"/>
      <point x="873" y="-287"/>
      <point x="763" y="-287" type="curve" smooth="yes"/>
      <point x="649" y="-287"/>
      <point x="590" y="-218"/>
      <point x="590" y="-61" type="curve" smooth="yes"/>
      <point x="590" y="124" type="line"/>
      <point x="556" y="124" type="line"/>
      <point x="556" y="-40" type="line" smooth="yes"/>
      <point x="556" y="-222"/>
      <point x="497" y="-287"/>
      <point x="360" y="-287" type="curve" smooth="yes"/>
      <point x="229" y="-287"/>
      <point x="161" y="-216"/>
      <point x="161" y="-63" type="curve" smooth="yes"/>
      <point x="161" y="-22" type="line" smooth="yes"/>
      <point x="161" y="122"/>
      <point x="204" y="179"/>
      <point x="338" y="200" type="curve" smooth="yes"/>
      <point x="738" y="263" type="line" smooth="yes"/>
      <point x="928" y="293"/>
      <point x="975" y="389"/>
      <point x="975" y="558" type="curve" smooth="yes"/>
      <point x="975" y="942" type="line" smooth="yes"/>
      <point x="975" y="1095"/>
      <point x="923" y="1174"/>
      <point x="796" y="1174" type="curve" smooth="yes"/>
      <point x="679" y="1174"/>
      <point x="623" y="1097"/>
      <point x="622" y="955" type="curve"/>
      <point x="620" y="955" type="line"/>
      <point x="603" y="1098"/>
      <point x="522" y="1174"/>
    </contour>
  </outline>
</glyph>
<glyph name="Ka.tm" format="2">
  <advance width="884"/>
  <unicode hex="0B95"/>
  <note>
Ka.tm
</note>
  <anchor x="482" y="1236" name="top"/>
  <outline>
    <contour>
      <point x="493" y="706" type="line"/>
      <point x="599" y="706" type="line" smooth="yes"/>
      <point x="711" y="706"/>
      <point x="757" y="663"/>
      <point x="757" y="517" type="curve" smooth="yes"/>
      <point x="757" y="215" type="line" smooth="yes"/>
      <point x="757" y="78"/>
      <point x="711" y="16"/>
      <point x="618" y="16" type="curve" smooth="yes"/>
      <point x="548" y="16"/>
      <point x="492" y="38"/>
      <point x="458" y="70" type="curve"/>
      <point x="456" y="64" type="line"/>
      <point x="464" y="26" type="line"/>
      <point x="494" y="0"/>
      <point x="549" y="-18"/>
      <point x="618" y="-18" type="curve" smooth="yes"/>
      <point x="735" y="-18"/>
      <point x="792" y="57"/>
      <point x="792" y="213" type="curve" smooth="yes"/>
      <point x="792" y="523" type="line" smooth="yes"/>
      <point x="792" y="686"/>
      <point x="731" y="738"/>
      <point x="602" y="738" type="curve" smooth="yes"/>
      <point x="493" y="738" type="line"/>
    </contour>
    <component base="KaComponent_Nonexporting" xOffset="33"/>
    <component base="KaBeak_Nonexporting" xOffset="509"/>
  </outline>
</glyph>
<glyph name="Ca.tm" format="2">
  <advance width="712"/>
  <unicode hex="0B9A"/>
  <note>
Ca.tm
</note>
  <anchor x="482" y="1236" name="top"/>
  <outline>
    <contour>
      <point x="482" y="706" type="line"/>
      <point x="706" y="706" type="line"/>
      <point x="703" y="738" type="line"/>
      <point x="482" y="738" type="line"/>
    </contour>
    <component base="KaComponent_Nonexporting" xOffset="33"/>
    <component base="KaBeak_Nonexporting" xOffset="487"/>
  </outline>
</glyph>
<glyph name="Ta.tm" format="2">
  <advance width="889"/>
  <unicode hex="0BA4"/>
  <note>
Ta.tm
</note>
  <anchor x="482" y="1236" name="top"/>
  <outline>
    <contour>
      <point x="487" y="706" type="line"/>
      <point x="541" y="706" type="line" smooth="yes"/>
      <point x="706" y="706"/>
      <point x="762" y="645"/>
      <point x="762" y="445" type="curve" smooth="yes"/>
      <point x="762" y="188" type="line" smooth="yes"/>
      <point x="762" y="-111"/>
      <point x="686" y="-216"/>
      <point x="419" y="-216" type="curve" smooth="yes"/>
      <point x="254" y="-216" type="line"/>
      <point x="259" y="-248" type="line"/>
      <point x="421" y="-248" type="line" smooth="yes"/>
      <point x="703" y="-248"/>
      <point x="797" y="-132"/>
      <point x="797" y="188" type="curve" smooth="yes"/>
      <point x="797" y="445" type="line" smooth="yes"/>
      <point x="797" y="662"/>
      <point x="727" y="738"/>
      <point x="543" y="738" type="curve" smooth="yes"/>
      <point x="487" y="738" type="line"/>
    </contour>
    <component base="Tail_NonExporting" xOffset="23"/>
    <component base="KaComponent_Nonexporting" xOffset="33"/>
    <component base="KaBeak_Nonexporting" xOffset="517"/>
  </outline>
</glyph>
<glyph name="Ma.tm" format="2">
  <advance width="953"/>
  <unicode hex="0BAE"/>
  <note>
Ma.tm
</note>
  <anchor x="489" y="1236" name="top"/>
  <outline>
    <contour>
      <point x="132" y="1156" type="line"/>
      <point x="132" y="0" type="line"/>
      <point x="554" y="0" type="line" smooth="yes"/>
      <point x="788" y="0"/>
      <point x="839" y="96"/>
      <point x="839" y="359" type="curve" smooth="yes"/>
      <point x="839" y="887" type="line" smooth="yes"/>
      <point x="839" y="1071"/>
      <point x="779" y="1156"/>
      <point x="598" y="1156" type="curve" smooth="yes"/>
      <point x="471" y="1156" type="line"/>
      <point x="471" y="17" type="line"/>
      <point x="506" y="17" type="line"/>
      <point x="506" y="1124" type="line"/>
      <point x="596" y="1124" type="line" smooth="yes"/>
      <point x="760" y="1124"/>
      <point x="804" y="1051"/>
      <point x="804" y="885" type="curve" smooth="yes"/>
      <point x="804" y="361" type="line" smooth="yes"/>
      <point x="804" y="115"/>
      <point x="766" y="32"/>
      <point x="552" y="32" type="curve" smooth="yes"/>
      <point x="167" y="32" type="line"/>
      <point x="167" y="1156" type="line"/>
    </contour>
  </outline>
</glyph>
<glyph name="Ya.tm" format="2">
  <advance width="1025"/>
  <unicode hex="0BAF"/>
  <note>
Ya.tm
</note>
  <anchor x="460" y="1236" name="top"/>
  <outline>
    <contour>
      <point x="858" y="1156" type="line"/>
      <point x="858" y="34" type="line"/>
      <point x="582" y="34" type="line"/>
      <point x="582" y="0" type="line"/>
      <point x="893" y="0" type="line"/>
      <point x="893" y="1156" type="line"/>
    </contour>
    <contour>
      <point x="837" y="0" type="line"/>
      <point x="837" y="34" type="line"/>
      <point x="477" y="34" type="line"/>
      <point x="477" y="1156" type="line"/>
      <point x="442" y="1156" type="line"/>
      <point x="442" y="302" type="line" smooth="yes"/>
      <point x="442" y="124"/>
      <point x="393" y="15"/>
      <point x="286" y="15" type="curve" smooth="yes"/>
      <point x="201" y="15"/>
      <point x="167" y="69"/>
      <point x="167" y="177" type="curve" smooth="yes"/>
      <point x="167" y="1156" type="line"/>
      <point x="132" y="1156" type="line"/>
      <point x="132" y="173" type="line" smooth="yes"/>
      <point x="132" y="49"/>
      <point x="179" y="-18"/>
      <point x="286" y="-18" type="curve" smooth="yes"/>
      <point x="393" y="-18"/>
      <point x="441" y="73"/>
      <point x="448" y="169" type="curve"/>
      <point x="450" y="169" type="line"/>
      <point x="448" y="0" type="line"/>
    </contour>
  </outline>
</glyph>
<glyph name="La.tm" format="2">
  <advance width="1174"/>
  <unicode hex="0BB2"/>
  <note>
La.tm
</note>
  <anchor x="674" y="1236" name="top"/>
  <outline>
    <contour>
      <point x="432" y="1174" type="curve" smooth="yes"/>
      <point x="223" y="1174"/>
      <point x="116" y="1033"/>
      <point x="116" y="766" type="curve" smooth="yes"/>
      <point x="116" y="219" type="line" smooth="yes"/>
      <point x="116" y="61"/>
      <point x="175" y="-18"/>
      <point x="295" y="-18" type="curve" smooth="yes"/>
      <point x="414" y="-18"/>
      <point x="472" y="61"/>
      <point x="472" y="219" type="curve" smooth="yes"/>
      <point x="472" y="585" type="line" smooth="yes"/>
      <point x="472" y="729"/>
      <point x="414" y="802"/>
      <point x="308" y="802" type="curve" smooth="yes"/>
      <point x="228" y="802"/>
      <point x="175" y="753"/>
      <point x="151" y="687" type="curve"/>
      <point x="147" y="687" type="line"/>
      <point x="146" y="613" type="line"/>
      <point x="170" y="711"/>
      <point x="225" y="768"/>
      <point x="304" y="768" type="curve" smooth="yes"/>
      <point x="392" y="768"/>
      <point x="437" y="704"/>
      <point x="437" y="583" type="curve" smooth="yes"/>
      <point x="437" y="221" type="line" smooth="yes"/>
      <point x="437" y="79"/>
      <point x="391" y="15"/>
      <point x="295" y="15" type="curve" smooth="yes"/>
      <point x="199" y="15"/>
      <point x="151" y="79"/>
      <point x="151" y="221" type="curve"/>
      <point x="151" y="687" type="line"/>
      <point x="151" y="687" type="line"/>
      <point x="151" y="715"/>
      <point x="151" y="740"/>
      <point x="151" y="766" type="curve" smooth="yes"/>
      <point x="151" y="1007"/>
      <point x="242" y="1140"/>
      <point x="432" y="1140" type="curve" smooth="yes"/>
      <point x="603" y="1140"/>
      <point x="684" y="1022"/>
      <point x="684" y="809" type="curve" smooth="yes"/>
      <point x="684" y="225" type="line" smooth="yes"/>
      <point x="684" y="62"/>
      <point x="747" y="-18"/>
      <point x="871" y="-18" type="curve" smooth="yes"/>
      <point x="996" y="-18"/>
      <point x="1056" y="62"/>
      <point x="1056" y="225" type="curve" smooth="yes"/>
      <point x="1056" y="900" type="line" smooth="yes"/>
      <point x="1056" y="1077"/>
      <point x="1001" y="1174"/>
      <point x="850" y="1174" type="curve" smooth="yes"/>
      <point x="834" y="1174"/>
      <point x="819" y="1173"/>
      <point x="805" y="1170" type="curve"/>
      <point x="799" y="1137" type="line"/>
      <point x="814" y="1139"/>
      <point x="831" y="1140"/>
      <point x="850" y="1140" type="curve" smooth="yes"/>
      <point x="981" y="1140"/>
      <point x="1021" y="1057"/>
      <point x="1021" y="900" type="curve" smooth="yes"/>
      <point x="1021" y="227" type="line" smooth="yes"/>
      <point x="1021" y="82"/>
      <point x="972" y="15"/>
      <point x="871" y="15" type="curve" smooth="yes"/>
      <point x="769" y="15"/>
      <point x="719" y="82"/>
      <point x="719" y="227" type="curve" smooth="yes"/>
      <point x="719" y="809" type="line" smooth="yes"/>
      <point x="719" y="1048"/>
      <point x="621" y="1174"/>
    </contour>
  </outline>
</glyph>
<glyph name="Va.tm" format="2">
  <advance width="1152"/>
  <unicode hex="0BB5"/>
  <note>
Va.tm
</note>
  <anchor x="688" y="1236" name="top"/>
  <outline>
    <contour>
      <point x="986" y="1156" type="line"/>
      <point x="986" y="32" type="line"/>
      <point x="771" y="32" type="line"/>
      <point x="771" y="0" type="line"/>
      <point x="1020" y="0" type="line"/>
      <point x="1020" y="1156" type="line"/>
    </contour>
    <component base="Va_NonExporting" xOffset="4"/>
  </outline>
</glyph>
<glyph name="Sha.tm" format="2">
  <advance width="1282"/>
  <unicode hex="0BB6"/>
  <note>
Sha.tm
</note>
  <guideline x="524" y="769" angle="0"/>
  <anchor x="643" y="1236" name="top"/>
  <outline>
    <contour>
      <point x="126" y="1156" type="line"/>
      <point x="126" y="250" type="line" smooth="yes"/>
      <point x="126" y="70"/>
      <point x="177" y="-18"/>
      <point x="323" y="-18" type="curve" smooth="yes"/>
      <point x="468" y="-18"/>
      <point x="516" y="70"/>
      <point x="516" y="248" type="curve" smooth="yes"/>
      <point x="516" y="1156" type="line"/>
      <point x="481" y="1156" type="line"/>
      <point x="481" y="256" type="line" smooth="yes"/>
      <point x="481" y="101"/>
      <point x="448" y="15"/>
      <point x="323" y="15" type="curve" smooth="yes"/>
      <point x="198" y="15"/>
      <point x="161" y="101"/>
      <point x="161" y="256" type="curve" smooth="yes"/>
      <point x="161" y="1156" type="line"/>
    </contour>
    <contour>
      <point x="770" y="1156" type="line"/>
      <point x="770" y="250" type="line" smooth="yes"/>
      <point x="770" y="70"/>
      <point x="821" y="-18"/>
      <point x="965" y="-18" type="curve" smooth="yes"/>
      <point x="1107" y="-18"/>
      <point x="1156" y="70"/>
      <point x="1156" y="248" type="curve" smooth="yes"/>
      <point x="1156" y="1156" type="line"/>
      <point x="1121" y="1156" type="line"/>
      <point x="1121" y="256" type="line" smooth="yes"/>
      <point x="1121" y="101"/>
      <point x="1088" y="15"/>
      <point x="965" y="15" type="curve" smooth="yes"/>
      <point x="842" y="15"/>
      <point x="805" y="101"/>
      <point x="805" y="256" type="curve" smooth="yes"/>
      <point x="805" y="1156" type="line"/>
    </contour>
    <contour>
      <point x="505" y="1156" type="line"/>
      <point x="505" y="1124" type="line"/>
      <point x="1149" y="1124" type="line"/>
      <point x="1149" y="1156" type="line"/>
    </contour>
  </outline>
</glyph>
<glyph name="Ha.tm" format="2">
  <advance width="1826"/>
  <unicode hex="0BB9"/>
  <note>
Ha.tm
</note>
  <anchor x="831" y="1236" name="top"/>
  <outline>
    <contour>
      <point x="761" y="32" type="line"/>
      <point x="761" y="0" type="line"/>
      <point x="994" y="0" type="line"/>
      <point x="994" y="32" type="line"/>
    </contour>
    <contour>
      <point x="1003" y="-216" type="line"/>
      <point x="249" y="-216" type="line"/>
      <point x="255" y="-248" type="line"/>
      <point x="1003" y="-248" type="line"/>
    </contour>
    <component base="Va_NonExporting" xOffset="10"/>
    <component base="Rra_Simple.tm" xOffset="846"/>
    <component base="Tail_NonExporting" xOffset="38"/>
  </outline>
</glyph>
<glyph name="MatraIiDflt.tm" format="2">
  <unicode hex="0BC0"/>
  <note>
MatraIiDflt.tm
</note>
  <outline>
    <contour>
      <point x="213" y="1726" type="curve" smooth="yes"/>
      <point x="66" y="1726"/>
      <point x="0" y="1630"/>
      <point x="0" y="1454" type="curve" smooth="yes"/>
      <point x="0" y="1325" type="line" smooth="yes"/>
      <point x="0" y="1241"/>
      <point x="10" y="1188"/>
      <point x="41" y="1154" type="curve"/>
      <point x="82" y="1154" type="line"/>
      <point x="43" y="1191"/>
      <point x="34" y="1234"/>
      <point x="34" y="1325" type="curve" smooth="yes"/>
      <point x="34" y="1450" type="line" smooth="yes"/>
      <point x="34" y="1602"/>
      <point x="81" y="1690"/>
      <point x="204" y="1695" type="curve"/>
      <point x="207" y="1695" type="line"/>
      <point x="211" y="1695"/>
      <point x="212" y="1695"/>
      <point x="213" y="1695" type="curve" smooth="yes"/>
      <point x="343" y="1695"/>
      <point x="384" y="1619"/>
      <point x="384" y="1472" type="curve" smooth="yes"/>
      <point x="384" y="1426" type="line" smooth="yes"/>
      <point x="384" y="1335"/>
      <point x="351" y="1293"/>
      <point x="287" y="1293" type="curve" smooth="yes"/>
      <point x="223" y="1293"/>
      <point x="189" y="1335"/>
      <point x="189" y="1426" type="curve" smooth="yes"/>
      <point x="189" y="1516" type="line" smooth="yes"/>
      <point x="189" y="1610"/>
      <point x="205" y="1665"/>
      <point x="250" y="1702" type="curve"/>
      <point x="204" y="1702" type="line"/>
      <point x="204" y="1695" type="line"/>
      <point x="173" y="1661"/>
      <point x="155" y="1609"/>
      <point x="155" y="1514" type="curve" smooth="yes"/>
      <point x="155" y="1424" type="line" smooth="yes"/>
      <point x="155" y="1316"/>
      <point x="201" y="1260"/>
      <point x="287" y="1260" type="curve" smooth="yes"/>
      <point x="374" y="1260"/>
      <point x="418" y="1314"/>
      <point x="418" y="1422" type="curve" smooth="yes"/>
      <point x="418" y="1476" type="line" smooth="yes"/>
      <point x="418" y="1638"/>
      <point x="364" y="1726"/>
    </contour>
  </outline>
</glyph>
<glyph name="MatraUDflt.tm" format="2">
  <advance width="662"/>
  <unicode hex="0BC1"/>
  <note>
MatraUDflt.tm
</note>
  <outline>
    <contour>
      <point x="43" y="1124" type="line"/>
      <point x="354" y="1124" type="line" smooth="yes"/>
      <point x="507" y="1124"/>
      <point x="553" y="1038"/>
      <point x="553" y="868" type="curve" smooth="yes"/>
      <point x="553" y="613" type="line" smooth="yes"/>
      <point x="553" y="488"/>
      <point x="510" y="429"/>
      <point x="424" y="429" type="curve" smooth="yes"/>
      <point x="341" y="429"/>
      <point x="293" y="488"/>
      <point x="293" y="613" type="curve" smooth="yes"/>
      <point x="293" y="913" type="line" smooth="yes"/>
      <point x="293" y="1021"/>
      <point x="306" y="1084"/>
      <point x="338" y="1126" type="curve"/>
      <point x="336" y="1126" type="line"/>
      <point x="292" y="1113" type="line"/>
      <point x="269" y="1076"/>
      <point x="258" y="1018"/>
      <point x="258" y="911" type="curve" smooth="yes"/>
      <point x="258" y="611" type="line"/>
      <point x="258" y="467"/>
      <point x="314" y="396"/>
      <point x="424" y="396" type="curve" smooth="yes"/>
      <point x="534" y="396"/>
      <point x="588" y="466"/>
      <point x="588" y="609" type="curve" smooth="yes"/>
      <point x="588" y="872" type="line" smooth="yes"/>
      <point x="588" y="1056"/>
      <point x="525" y="1156"/>
      <point x="354" y="1156" type="curve" smooth="yes"/>
      <point x="43" y="1156" type="line"/>
    </contour>
  </outline>
</glyph>
<glyph name="MatraEe.tm" format="2">
  <advance width="566"/>
  <unicode hex="0BC7"/>
  <note>
MatraEe.tm
</note>
  <outline>
    <contour>
      <point x="306" y="1384" type="curve" smooth="yes"/>
      <point x="189" y="1384"/>
      <point x="128" y="1310"/>
      <point x="128" y="1163" type="curve"/>
      <point x="128" y="202" type="line"/>
      <point x="128" y="55"/>
      <point x="189" y="-18"/>
      <point x="306" y="-18" type="curve" smooth="yes"/>
      <point x="423" y="-18"/>
      <point x="482" y="55"/>
      <point x="482" y="202" type="curve" smooth="yes"/>
      <point x="482" y="398" type="line" smooth="yes"/>
      <point x="482" y="533"/>
      <point x="425" y="605"/>
      <point x="319" y="605" type="curve" smooth="yes"/>
      <point x="242" y="605"/>
      <point x="186" y="562"/>
      <point x="163" y="499" type="curve"/>
      <point x="158" y="499" type="line"/>
      <point x="158" y="429" type="line"/>
      <point x="181" y="521"/>
      <point x="240" y="574"/>
      <point x="315" y="574" type="curve" smooth="yes"/>
      <point x="401" y="574"/>
      <point x="447" y="511"/>
      <point x="447" y="396" type="curve" smooth="yes"/>
      <point x="447" y="204" type="line" smooth="yes"/>
      <point x="447" y="76"/>
      <point x="399" y="15"/>
      <point x="306" y="15" type="curve" smooth="yes"/>
      <point x="213" y="15"/>
      <point x="163" y="76"/>
      <point x="163" y="204" type="curve"/>
      <point x="163" y="499" type="line"/>
      <point x="163" y="499" type="line"/>
      <point x="163" y="865" type="line"/>
      <point x="163" y="865" type="line"/>
      <point x="163" y="1162" type="line"/>
      <point x="163" y="1290"/>
      <point x="213" y="1351"/>
      <point x="306" y="1351" type="curve" smooth="yes"/>
      <point x="399" y="1351"/>
      <point x="447" y="1290"/>
      <point x="447" y="1162" type="curve" smooth="yes"/>
      <point x="447" y="969" type="line" smooth="yes"/>
      <point x="447" y="854"/>
      <point x="401" y="791"/>
      <point x="315" y="791" type="curve" smooth="yes"/>
      <point x="240" y="791"/>
      <point x="181" y="845"/>
      <point x="158" y="936" type="curve"/>
      <point x="158" y="865" type="line"/>
      <point x="163" y="865" type="line"/>
      <point x="188" y="803"/>
      <point x="243" y="760"/>
      <point x="319" y="760" type="curve" smooth="yes"/>
      <point x="425" y="760"/>
      <point x="482" y="832"/>
      <point x="482" y="967" type="curve" smooth="yes"/>
      <point x="482" y="1163" type="line" smooth="yes"/>
      <point x="482" y="1310"/>
      <point x="423" y="1384"/>
    </contour>
  </outline>
</glyph>
<glyph name="MatraAi.tm" format="2">
  <advance width="1453"/>
  <unicode hex="0BC8"/>
  <note>
MatraAi.tm
</note>
  <outline>
    <contour>
      <point x="1074" y="-9" type="line"/>
      <point x="1089" y="-14"/>
      <point x="1117" y="-18"/>
      <point x="1140" y="-18" type="curve" smooth="yes"/>
      <point x="1271" y="-18"/>
      <point x="1335" y="66"/>
      <point x="1335" y="239" type="curve" smooth="yes"/>
      <point x="1335" y="811" type="line" smooth="yes"/>
      <point x="1335" y="1058"/>
      <point x="1257" y="1174"/>
      <point x="1049" y="1174" type="curve" smooth="yes"/>
      <point x="956" y="1174"/>
      <point x="879" y="1146"/>
      <point x="827" y="1110" type="curve"/>
      <point x="853" y="1089" type="line"/>
      <point x="901" y="1121"/>
      <point x="965" y="1143"/>
      <point x="1047" y="1143" type="curve" smooth="yes"/>
      <point x="1238" y="1143"/>
      <point x="1300" y="1032"/>
      <point x="1300" y="808" type="curve" smooth="yes"/>
      <point x="1300" y="241" type="line" smooth="yes"/>
      <point x="1300" y="85"/>
      <point x="1247" y="15"/>
      <point x="1140" y="15" type="curve" smooth="yes"/>
      <point x="1113" y="15"/>
      <point x="1089" y="18"/>
      <point x="1067" y="25" type="curve"/>
    </contour>
    <contour>
      <point x="574" y="1178" type="curve" smooth="yes"/>
      <point x="268" y="1178"/>
      <point x="112" y="1018"/>
      <point x="112" y="692" type="curve" smooth="yes"/>
      <point x="112" y="219" type="line" smooth="yes"/>
      <point x="112" y="61"/>
      <point x="171" y="-18"/>
      <point x="291" y="-18" type="curve" smooth="yes"/>
      <point x="410" y="-18"/>
      <point x="468" y="61"/>
      <point x="468" y="219" type="curve" smooth="yes"/>
      <point x="468" y="585" type="line" smooth="yes"/>
      <point x="468" y="729"/>
      <point x="410" y="802"/>
      <point x="304" y="802" type="curve" smooth="yes"/>
      <point x="224" y="802"/>
      <point x="171" y="753"/>
      <point x="147" y="687" type="curve"/>
      <point x="143" y="687" type="line"/>
      <point x="142" y="613" type="line"/>
      <point x="166" y="711"/>
      <point x="221" y="768"/>
      <point x="300" y="768" type="curve" smooth="yes"/>
      <point x="388" y="768"/>
      <point x="433" y="704"/>
      <point x="433" y="583" type="curve" smooth="yes"/>
      <point x="433" y="221" type="line" smooth="yes"/>
      <point x="433" y="79"/>
      <point x="387" y="15"/>
      <point x="291" y="15" type="curve" smooth="yes"/>
      <point x="195" y="15"/>
      <point x="147" y="79"/>
      <point x="147" y="221" type="curve" smooth="yes"/>
      <point x="147" y="687" type="line"/>
      <point x="147" y="687" type="line"/>
      <point x="147" y="689"/>
      <point x="147" y="690"/>
      <point x="147" y="692" type="curve" smooth="yes"/>
      <point x="147" y="994"/>
      <point x="283" y="1144"/>
      <point x="574" y="1144" type="curve" smooth="yes"/>
      <point x="694" y="1144"/>
      <point x="780" y="1122"/>
      <point x="825" y="1095" type="curve"/>
      <point x="832" y="1091" type="line"/>
      <point x="952" y="1001"/>
      <point x="983" y="863"/>
      <point x="983" y="615" type="curve" smooth="yes"/>
      <point x="983" y="223" type="line" smooth="yes"/>
      <point x="983" y="79"/>
      <point x="935" y="15"/>
      <point x="838" y="15" type="curve" smooth="yes"/>
      <point x="738" y="15"/>
      <point x="689" y="79"/>
      <point x="689" y="223" type="curve" smooth="yes"/>
      <point x="689" y="615" type="line" smooth="yes"/>
      <point x="689" y="859"/>
      <point x="727" y="999"/>
      <point x="851" y="1089" type="curve"/>
      <point x="825" y="1110" type="line"/>
      <point x="700" y="1018"/>
      <point x="654" y="872"/>
      <point x="654" y="620" type="curve" smooth="yes"/>
      <point x="654" y="221" type="line" smooth="yes"/>
      <point x="654" y="61"/>
      <point x="715" y="-18"/>
      <point x="838" y="-18" type="curve" smooth="yes"/>
      <point x="959" y="-18"/>
      <point x="1018" y="61"/>
      <point x="1018" y="221" type="curve" smooth="yes"/>
      <point x="1018" y="620" type="line" smooth="yes"/>
      <point x="1018" y="872"/>
      <point x="978" y="1018"/>
      <point x="864" y="1106" type="curve"/>
      <point x="862" y="1108" type="line"/>
      <point x="804" y="1148"/>
      <point x="707" y="1178"/>
    </contour>
  </outline>
</glyph>
<glyph name="PulliDflt.tm" format="2">
  <unicode hex="0BCD"/>
  <note>
PulliDflt.tm
</note>
  <anchor x="28" y="1236" name="_top"/>
  <outline>
    <contour>
      <point x="28" y="1312" type="curve" smooth="yes"/>
      <point x="52" y="1312"/>
      <point x="57" y="1331"/>
      <point x="57" y="1375" type="curve" smooth="yes"/>
      <point x="57" y="1426" type="line" smooth="yes"/>
      <point x="57" y="1468"/>
      <point x="52" y="1486"/>
      <point x="28" y="1486" type="curve" smooth="yes"/>
      <point x="5" y="1486"/>
      <point x="-2" y="1468"/>
      <point x="-2" y="1426" type="curve" smooth="yes"/>
      <point x="-2" y="1375" type="line" smooth="yes"/>
      <point x="-2" y="1331"/>
      <point x="4" y="1312"/>
    </contour>
  </outline>
</glyph>
<glyph name="Om.tm" format="2">
  <advance width="1247"/>
  <unicode hex="0BD0"/>
  <note>
Om.tm
</note>
  <outline>
    <contour>
      <point x="629" y="1249" type="curve" smooth="yes"/>
      <point x="280" y="1249"/>
      <point x="92" y="1051"/>
      <point x="92" y="694" type="curve" smooth="yes"/>
      <point x="92" y="375" type="line" smooth="yes"/>
      <point x="92" y="230"/>
      <point x="151" y="156"/>
      <point x="267" y="156" type="curve" smooth="yes"/>
      <point x="381" y="156"/>
      <point x="436" y="230"/>
      <point x="436" y="375" type="curve" smooth="yes"/>
      <point x="436" y="668" type="line" smooth="yes"/>
      <point x="436" y="797"/>
      <point x="381" y="865"/>
      <point x="278" y="865" type="curve" smooth="yes"/>
      <point x="204" y="865"/>
      <point x="150" y="824"/>
      <point x="126" y="766" type="curve"/>
      <point x="121" y="766" type="line"/>
      <point x="121" y="699" type="line"/>
      <point x="143" y="786"/>
      <point x="199" y="834"/>
      <point x="274" y="834" type="curve" smooth="yes"/>
      <point x="359" y="834"/>
      <point x="401" y="775"/>
      <point x="401" y="666" type="curve" smooth="yes"/>
      <point x="401" y="377" type="line" smooth="yes"/>
      <point x="401" y="248"/>
      <point x="357" y="190"/>
      <point x="267" y="190" type="curve" smooth="yes"/>
      <point x="175" y="190"/>
      <point x="127" y="248"/>
      <point x="127" y="377" type="curve"/>
      <point x="127" y="766" type="line"/>
      <point x="126" y="766" type="line"/>
      <point x="151" y="1033"/>
      <point x="297" y="1216"/>
      <point x="629" y="1216" type="curve" smooth="yes"/>
      <point x="970" y="1216"/>
      <point x="1104" y="1005"/>
      <point x="1104" y="712" type="curve" smooth="yes"/>
      <point x="1104" y="425" type="line" smooth="yes"/>
      <point x="1104" y="304"/>
      <point x="1062" y="248"/>
      <point x="979" y="248" type="curve" smooth="yes"/>
      <point x="892" y="248"/>
      <point x="848" y="304"/>
      <point x="848" y="425" type="curve" smooth="yes"/>
      <point x="848" y="570"/>
      <point x="848" y="688"/>
      <point x="848" y="834" type="curve"/>
      <point x="815" y="834" type="line"/>
      <point x="815" y="688"/>
      <point x="815" y="569"/>
      <point x="815" y="423" type="curve" smooth="yes"/>
      <point x="815" y="300"/>
      <point x="859" y="224"/>
      <point x="979" y="224" type="curve" smooth="yes"/>
      <point x="999" y="224"/>
      <point x="1021" y="230"/>
      <point x="1038" y="236" type="curve"/>
      <point x="1108" y="252"/>
      <point x="1139" y="326"/>
      <point x="1139" y="423" type="curve" smooth="yes"/>
      <point x="1139" y="712" type="line" smooth="yes"/>
      <point x="1139" y="1025"/>
      <point x="986" y="1249"/>
    </contour>
    <contour>
      <point x="1157" y="248" type="line"/>
      <point x="1056" y="248" type="line"/>
      <point x="994" y="226" type="line"/>
      <point x="994" y="223" type="line"/>
      <point x="948" y="202"/>
      <point x="933" y="158"/>
      <point x="933" y="85" type="curve" smooth="yes"/>
      <point x="933" y="-67" type="line" smooth="yes"/>
      <point x="933" y="-319"/>
      <point x="833" y="-429"/>
      <point x="624" y="-429" type="curve" smooth="yes"/>
      <point x="416" y="-429"/>
      <point x="309" y="-319"/>
      <point x="309" y="-67" type="curve" smooth="yes"/>
      <point x="309" y="9"/>
      <point x="309" y="89"/>
      <point x="309" y="166" type="curve"/>
      <point x="274" y="166" type="line"/>
      <point x="274" y="86"/>
      <point x="274" y="11"/>
      <point x="274" y="-69" type="curve" smooth="yes"/>
      <point x="274" y="-332"/>
      <point x="392" y="-462"/>
      <point x="624" y="-462" type="curve" smooth="yes"/>
      <point x="854" y="-462"/>
      <point x="968" y="-332"/>
      <point x="968" y="-69" type="curve" smooth="yes"/>
      <point x="968" y="81" type="line" smooth="yes"/>
      <point x="968" y="175"/>
      <point x="983" y="217"/>
      <point x="1076" y="217" type="curve" smooth="yes"/>
      <point x="1154" y="217" type="line"/>
    </contour>
    <contour>
      <point x="471" y="180" type="line"/>
      <point x="471" y="-258" type="line"/>
      <point x="668" y="-258" type="line" smooth="yes"/>
      <point x="782" y="-258"/>
      <point x="808" y="-212"/>
      <point x="808" y="-85" type="curve" smooth="yes"/>
      <point x="808" y="131" type="line" smooth="yes"/>
      <point x="808" y="219"/>
      <point x="778" y="261"/>
      <point x="690" y="260" type="curve" smooth="yes"/>
      <point x="620" y="259" type="line"/>
      <point x="620" y="-250" type="line"/>
      <point x="649" y="-250" type="line"/>
      <point x="649" y="232" type="line"/>
      <point x="688" y="232" type="line" smooth="yes"/>
      <point x="758" y="232"/>
      <point x="778" y="201"/>
      <point x="778" y="131" type="curve" smooth="yes"/>
      <point x="778" y="-85" type="line" smooth="yes"/>
      <point x="778" y="-193"/>
      <point x="762" y="-230"/>
      <point x="668" y="-230" type="curve" smooth="yes"/>
      <point x="500" y="-230" type="line"/>
      <point x="500" y="180" type="line"/>
    </contour>
    <contour>
      <point x="626" y="362" type="curve" smooth="yes"/>
      <point x="646" y="362"/>
      <point x="651" y="381"/>
      <point x="651" y="425" type="curve" smooth="yes"/>
      <point x="651" y="454" type="line" smooth="yes"/>
      <point x="651" y="497"/>
      <point x="646" y="515"/>
      <point x="626" y="515" type="curve" smooth="yes"/>
      <point x="607" y="515"/>
      <point x="600" y="497"/>
      <point x="600" y="454" type="curve" smooth="yes"/>
      <point x="600" y="425" type="line" smooth="yes"/>
      <point x="600" y="381"/>
      <point x="605" y="362"/>
    </contour>
    <contour>
      <point x="500" y="179" type="line"/>
      <point x="500" y="181" type="line" smooth="yes"/>
      <point x="500" y="253"/>
      <point x="475" y="287"/>
      <point x="417" y="294" type="curve"/>
      <point x="411" y="266" type="line"/>
      <point x="457" y="261"/>
      <point x="471" y="239"/>
      <point x="471" y="179" type="curve"/>
    </contour>
  </outline>
</glyph>
<glyph name="Two.tm" format="2">
  <advance width="664"/>
  <unicode hex="0BE8"/>
  <note>
Two.tm
</note>
  <outline>
    <contour>
      <point x="256" y="223" type="curve"/>
      <point x="284" y="236" type="line"/>
      <point x="168" y="259"/>
      <point x="135" y="353"/>
      <point x="135" y="497" type="curve" smooth="yes"/>
      <point x="135" y="865" type="line" smooth="yes"/>
      <point x="135" y="1047"/>
      <point x="193" y="1141"/>
      <point x="333" y="1141" type="curve" smooth="yes"/>
      <point x="475" y="1141"/>
      <point x="530" y="1047"/>
      <point x="530" y="867" type="curve" smooth="yes"/>
      <point x="530" y="578" type="line" smooth="yes"/>
      <point x="530" y="379"/>
      <point x="493" y="293"/>
      <point x="289" y="256" type="curve" smooth="yes"/>
      <point x="217" y="243" type="line" smooth="yes"/>
      <point x="127" y="227"/>
      <point x="90" y="182"/>
      <point x="90" y="105" type="curve" smooth="yes"/>
      <point x="90" y="64"/>
      <point x="98" y="24"/>
      <point x="103" y="0" type="curve"/>
      <point x="675" y="0" type="line"/>
      <point x="680" y="32" type="line"/>
      <point x="131" y="32" type="line"/>
      <point x="127" y="53"/>
      <point x="124" y="77"/>
      <point x="124" y="105" type="curve" smooth="yes"/>
      <point x="124" y="171"/>
      <point x="155" y="201"/>
      <point x="234" y="215" type="curve" smooth="yes"/>
      <point x="306" y="228" type="line" smooth="yes"/>
      <point x="530" y="268"/>
      <point x="565" y="374"/>
      <point x="565" y="576" type="curve" smooth="yes"/>
      <point x="565" y="867" type="line" smooth="yes"/>
      <point x="565" y="1067"/>
      <point x="499" y="1174"/>
      <point x="333" y="1174" type="curve" smooth="yes"/>
      <point x="170" y="1174"/>
      <point x="101" y="1067"/>
      <point x="101" y="865" type="curve" smooth="yes"/>
      <point x="101" y="493" type="line" smooth="yes"/>
      <point x="101" y="340"/>
      <point x="142" y="245"/>
    </contour>
  </outline>
</glyph>
<glyph name="Three.tm" format="2">
  <advance width="983"/>
  <unicode hex="0BE9"/>
  <note>
Three.tm
</note>
  <outline>
    <contour>
      <point x="488" y="1139" type="line"/>
      <point x="488" y="0" type="line"/>
      <point x="523" y="0" type="line"/>
      <point x="523" y="1139" type="line"/>
    </contour>
    <contour>
      <point x="680" y="802" type="curve" smooth="yes"/>
      <point x="603" y="802"/>
      <point x="544" y="754"/>
      <point x="523" y="682" type="curve"/>
      <point x="516" y="682" type="line"/>
      <point x="516" y="611" type="line"/>
      <point x="520" y="611" type="line"/>
      <point x="542" y="712"/>
      <point x="597" y="768"/>
      <point x="677" y="768" type="curve" smooth="yes"/>
      <point x="765" y="768"/>
      <point x="808" y="705"/>
      <point x="808" y="583" type="curve" smooth="yes"/>
      <point x="808" y="333" type="line" smooth="yes"/>
      <point x="808" y="175"/>
      <point x="784" y="99"/>
      <point x="729" y="6" type="curve"/>
      <point x="729" y="0" type="line"/>
      <point x="993" y="0" type="line"/>
      <point x="999" y="32" type="line"/>
      <point x="765" y="32" type="line"/>
      <point x="769" y="11" type="line"/>
      <point x="822" y="98"/>
      <point x="843" y="175"/>
      <point x="843" y="331" type="curve" smooth="yes"/>
      <point x="843" y="585" type="line" smooth="yes"/>
      <point x="843" y="730"/>
      <point x="787" y="802"/>
    </contour>
    <contour>
      <point x="566" y="1156" type="line"/>
      <point x="132" y="1156" type="line"/>
      <point x="132" y="0" type="line"/>
      <point x="167" y="0" type="line"/>
      <point x="167" y="1124" type="line"/>
      <point x="566" y="1124" type="line"/>
    </contour>
    <component base="RaBeak_Nonexporting" xOffset="482"/>
  </outline>
</glyph>
<glyph name="Five.tm" format="2">
  <advance width="1294"/>
  <unicode hex="0BEB"/>
  <note>
Five.tm
</note>
  <outline>
    <contour>
      <point x="813" y="1133" type="line"/>
      <point x="813" y="0" type="line"/>
      <point x="848" y="0" type="line"/>
      <point x="848" y="1133" type="line"/>
    </contour>
    <contour>
      <point x="1017" y="794" type="curve" smooth="yes"/>
      <point x="923" y="794"/>
      <point x="870" y="740"/>
      <point x="848" y="664" type="curve"/>
      <point x="837" y="664" type="line"/>
      <point x="837" y="561" type="line"/>
      <point x="843" y="561" type="line"/>
      <point x="859" y="681"/>
      <point x="911" y="760"/>
      <point x="1012" y="760" type="curve" smooth="yes"/>
      <point x="1126" y="760"/>
      <point x="1161" y="675"/>
      <point x="1161" y="517" type="curve" smooth="yes"/>
      <point x="1161" y="263" type="line" smooth="yes"/>
      <point x="1161" y="-136"/>
      <point x="1026" y="-316"/>
      <point x="691" y="-316" type="curve" smooth="yes"/>
      <point x="691" y="-316" type="line" smooth="yes"/>
      <point x="325" y="-316"/>
      <point x="161" y="-112"/>
      <point x="161" y="285" type="curve" smooth="yes"/>
      <point x="161" y="892" type="line" smooth="yes"/>
      <point x="161" y="1316"/>
      <point x="338" y="1531"/>
      <point x="746" y="1531" type="curve" smooth="yes"/>
      <point x="906" y="1531"/>
      <point x="1025" y="1505"/>
      <point x="1120" y="1468" type="curve"/>
      <point x="1115" y="1501" type="line"/>
      <point x="1019" y="1540"/>
      <point x="897" y="1564"/>
      <point x="746" y="1564" type="curve" smooth="yes"/>
      <point x="317" y="1564"/>
      <point x="126" y="1332"/>
      <point x="126" y="892" type="curve" smooth="yes"/>
      <point x="126" y="285" type="line" smooth="yes"/>
      <point x="126" y="-131"/>
      <point x="301" y="-350"/>
      <point x="691" y="-350" type="curve" smooth="yes"/>
      <point x="691" y="-350" type="line" smooth="yes"/>
      <point x="1052" y="-350"/>
      <point x="1196" y="-149"/>
      <point x="1196" y="263" type="curve" smooth="yes"/>
      <point x="1196" y="523" type="line" smooth="yes"/>
      <point x="1196" y="703"/>
      <point x="1142" y="794"/>
    </contour>
    <contour>
      <point x="949" y="1156" type="line"/>
      <point x="464" y="1156" type="line"/>
      <point x="464" y="0" type="line"/>
      <point x="499" y="0" type="line"/>
      <point x="499" y="1124" type="line"/>
      <point x="949" y="1124" type="line"/>
    </contour>
    <component base="RaBeak_Nonexporting" xOffset="845"/>
  </outline>
</glyph>
<glyph name="Nine.tm" format="2">
  <advance width="1174"/>
  <unicode hex="0BEF"/>
  <note>
Nine.tm
</note>
  <outline>
    <contour>
      <point x="491" y="707" type="line"/>
      <point x="552" y="707" type="line" smooth="yes"/>
      <point x="688" y="707"/>
      <point x="729" y="642"/>
      <point x="729" y="502" type="curve" smooth="yes"/>
      <point x="729" y="0" type="line"/>
      <point x="764" y="0" type="line"/>
      <point x="764" y="591" type="line" smooth="yes"/>
      <point x="764" y="730"/>
      <point x="816" y="795"/>
      <point x="905" y="795" type="curve" smooth="yes"/>
      <point x="997" y="795"/>
      <point x="1043" y="730"/>
      <point x="1043" y="609" type="curve" smooth="yes"/>
      <point x="1043" y="324" type="line" smooth="yes"/>
      <point x="1043" y="186"/>
      <point x="1027" y="92"/>
      <point x="986" y="0" type="curve"/>
      <point x="1027" y="0" type="line"/>
      <point x="1062" y="88"/>
      <point x="1078" y="177"/>
      <point x="1078" y="322" type="curve" smooth="yes"/>
      <point x="1078" y="611" type="line" smooth="yes"/>
      <point x="1078" y="753"/>
      <point x="1019" y="826"/>
      <point x="911" y="826" type="curve" smooth="yes"/>
      <point x="795" y="826"/>
      <point x="741" y="751"/>
      <point x="741" y="609" type="curve" smooth="yes"/>
      <point x="741" y="580" type="line"/>
      <point x="740" y="580" type="line"/>
      <point x="730" y="684"/>
      <point x="686" y="738"/>
      <point x="554" y="738" type="curve" smooth="yes"/>
      <point x="491" y="738" type="line"/>
    </contour>
    <component base="KaComponent_Nonexporting" xOffset="33"/>
    <component base="KaBeak_Nonexporting" xOffset="532"/>
  </outline>
</glyph>
<glyph name="Ten.tm" format="2">
  <advance width="967"/>
  <unicode hex="0BF0"/>
  <note>
Ten.tm
</note>
  <outline>
    <contour>
      <point x="412" y="1478" type="curve" smooth="yes"/>
      <point x="320" y="1478"/>
      <point x="228" y="1478"/>
      <point x="136" y="1478" type="curve"/>
      <point x="128" y="1446" type="line"/>
      <point x="222" y="1446"/>
      <point x="316" y="1446"/>
      <point x="410" y="1446" type="curve" smooth="yes"/>
      <point x="714" y="1446"/>
      <point x="804" y="1347"/>
      <point x="804" y="992" type="curve" smooth="yes"/>
      <point x="804" y="221" type="line" smooth="yes"/>
      <point x="804" y="79"/>
      <point x="758" y="13"/>
      <point x="655" y="13" type="curve" smooth="yes"/>
      <point x="546" y="13"/>
      <point x="498" y="79"/>
      <point x="498" y="221" type="curve" smooth="yes"/>
      <point x="498" y="1156" type="line"/>
      <point x="463" y="1156" type="line"/>
      <point x="463" y="219" type="line"/>
      <point x="463" y="86"/>
      <point x="423" y="15"/>
      <point x="314" y="15" type="curve" smooth="yes"/>
      <point x="215" y="15"/>
      <point x="169" y="79"/>
      <point x="169" y="219" type="curve" smooth="yes"/>
      <point x="169" y="1156" type="line"/>
      <point x="134" y="1156" type="line"/>
      <point x="134" y="215" type="line" smooth="yes"/>
      <point x="134" y="59"/>
      <point x="193" y="-18"/>
      <point x="314" y="-18" type="curve" smooth="yes"/>
      <point x="430" y="-18"/>
      <point x="474" y="46"/>
      <point x="482" y="149" type="curve"/>
      <point x="484" y="149" type="line"/>
      <point x="487" y="44"/>
      <point x="539" y="-18"/>
      <point x="657" y="-18" type="curve" smooth="yes"/>
      <point x="780" y="-18"/>
      <point x="839" y="61"/>
      <point x="839" y="217" type="curve" smooth="yes"/>
      <point x="839" y="995" type="line" smooth="yes"/>
      <point x="839" y="1363"/>
      <point x="736" y="1478"/>
    </contour>
  </outline>
</glyph>
<glyph name="Hundred.tm" format="2">
  <advance width="1009"/>
  <unicode hex="0BF1"/>
  <note>
Hundred.tm
</note>
  <outline>
    <contour>
      <point x="812" y="1133" type="line"/>
      <point x="812" y="0" type="line"/>
      <point x="847" y="0" type="line"/>
      <point x="847" y="1133" type="line"/>
    </contour>
    <contour>
      <point x="841" y="1156" type="line"/>
      <point x="463" y="1156" type="line"/>
      <point x="463" y="1027" type="line"/>
      <point x="463" y="1027" type="line"/>
      <point x="456" y="1108"/>
      <point x="412" y="1174"/>
      <point x="307" y="1174" type="curve" smooth="yes"/>
      <point x="185" y="1174"/>
      <point x="126" y="1098"/>
      <point x="126" y="948" type="curve" smooth="yes"/>
      <point x="126" y="0" type="line"/>
      <point x="161" y="0" type="line"/>
      <point x="161" y="944" type="line" smooth="yes"/>
      <point x="161" y="1078"/>
      <point x="207" y="1141"/>
      <point x="307" y="1141" type="curve" smooth="yes"/>
      <point x="415" y="1141"/>
      <point x="456" y="1064"/>
      <point x="456" y="924" type="curve" smooth="yes"/>
      <point x="456" y="0" type="line"/>
      <point x="491" y="0" type="line"/>
      <point x="491" y="1124" type="line"/>
      <point x="841" y="1124" type="line"/>
    </contour>
    <component base="RaBeak_Nonexporting" xOffset="759"/>
  </outline>
</glyph>
<glyph name="MonthSign.tm" format="2">
  <advance width="953"/>
  <unicode hex="0BF4"/>
  <note>
MonthSign.tm
</note>
  <anchor x="489" y="1236" name="top"/>
  <outline>
    <contour>
      <point x="1030" y="1843" type="curve" smooth="yes"/>
      <point x="932" y="1843"/>
      <point x="888" y="1777"/>
      <point x="888" y="1661" type="curve" smooth="yes"/>
      <point x="888" y="1572" type="line"/>
      <point x="886" y="1572" type="line"/>
      <point x="879" y="1639"/>
      <point x="839" y="1676"/>
      <point x="770" y="1676" type="curve" smooth="yes"/>
      <point x="675" y="1676"/>
      <point x="631" y="1617"/>
      <point x="631" y="1493" type="curve"/>
      <point x="631" y="1308" type="line" smooth="yes"/>
      <point x="631" y="1224"/>
      <point x="641" y="1170"/>
      <point x="678" y="1137" type="curve"/>
      <point x="718" y="1137" type="line"/>
      <point x="675" y="1173"/>
      <point x="666" y="1217"/>
      <point x="666" y="1308" type="curve" smooth="yes"/>
      <point x="666" y="1488" type="line"/>
      <point x="666" y="1593"/>
      <point x="695" y="1642"/>
      <point x="772" y="1642" type="curve" smooth="yes"/>
      <point x="851" y="1642"/>
      <point x="879" y="1591"/>
      <point x="879" y="1471" type="curve" smooth="yes"/>
      <point x="879" y="1311" type="line"/>
      <point x="914" y="1311" type="line"/>
      <point x="914" y="1652" type="line" smooth="yes"/>
      <point x="914" y="1760"/>
      <point x="954" y="1812"/>
      <point x="1030" y="1812" type="curve" smooth="yes"/>
      <point x="1105" y="1812"/>
      <point x="1138" y="1760"/>
      <point x="1138" y="1663" type="curve" smooth="yes"/>
      <point x="1138" y="1571" type="line" smooth="yes"/>
      <point x="1138" y="1412"/>
      <point x="1115" y="1337"/>
      <point x="1059" y="1243" type="curve"/>
      <point x="1059" y="1238" type="line"/>
      <point x="1387" y="1238" type="line"/>
      <point x="1391" y="1269" type="line"/>
      <point x="1096" y="1269" type="line"/>
      <point x="1100" y="1249" type="line"/>
      <point x="1153" y="1335"/>
      <point x="1173" y="1412"/>
      <point x="1173" y="1569" type="curve" smooth="yes"/>
      <point x="1173" y="1664" type="line" smooth="yes"/>
      <point x="1173" y="1782"/>
      <point x="1124" y="1843"/>
    </contour>
    <component base="Ma.tm"/>
  </outline>
</glyph>
<glyph name="YearSign.tm" format="2">
  <advance width="2782"/>
  <unicode hex="0BF5"/>
  <note>
YearSign.tm
</note>
  <outline>
    <contour>
      <point x="1686" y="1133" type="line"/>
      <point x="1686" y="0" type="line"/>
      <point x="1721" y="0" type="line"/>
      <point x="1721" y="1133" type="line"/>
    </contour>
    <contour>
      <point x="1110" y="0" type="line"/>
      <point x="1372" y="0" type="line"/>
      <point x="1372" y="31" type="line"/>
      <point x="1110" y="31" type="line"/>
    </contour>
    <contour>
      <point x="972" y="1566" type="line" smooth="yes"/>
      <point x="321" y="1566"/>
      <point x="122" y="1308"/>
      <point x="122" y="769" type="curve" smooth="yes"/>
      <point x="122" y="372" type="line" smooth="yes"/>
      <point x="122" y="-149"/>
      <point x="317" y="-405"/>
      <point x="953" y="-405" type="curve" smooth="yes"/>
      <point x="1321" y="-405" type="line" smooth="yes"/>
      <point x="1892" y="-405"/>
      <point x="2068" y="-180"/>
      <point x="2068" y="282" type="curve" smooth="yes"/>
      <point x="2068" y="523" type="line" smooth="yes"/>
      <point x="2068" y="703"/>
      <point x="2015" y="794"/>
      <point x="1890" y="794" type="curve" smooth="yes"/>
      <point x="1796" y="794"/>
      <point x="1743" y="740"/>
      <point x="1721" y="664" type="curve"/>
      <point x="1710" y="664" type="line"/>
      <point x="1710" y="561" type="line"/>
      <point x="1715" y="561" type="line"/>
      <point x="1732" y="681"/>
      <point x="1783" y="760"/>
      <point x="1884" y="760" type="curve" smooth="yes"/>
      <point x="1999" y="760"/>
      <point x="2033" y="675"/>
      <point x="2033" y="517" type="curve" smooth="yes"/>
      <point x="2033" y="282" type="line" smooth="yes"/>
      <point x="2033" y="-169"/>
      <point x="1866" y="-372"/>
      <point x="1321" y="-372" type="curve" smooth="yes"/>
      <point x="953" y="-372" type="line" smooth="yes"/>
      <point x="342" y="-372"/>
      <point x="157" y="-138"/>
      <point x="157" y="374" type="curve" smooth="yes"/>
      <point x="157" y="769" type="line" smooth="yes"/>
      <point x="157" y="1297"/>
      <point x="346" y="1533"/>
      <point x="972" y="1533" type="curve" smooth="yes"/>
      <point x="1515" y="1533" type="line" smooth="yes"/>
      <point x="2114" y="1533"/>
      <point x="2291" y="1292"/>
      <point x="2291" y="769" type="curve" smooth="yes"/>
      <point x="2291" y="225" type="line" smooth="yes"/>
      <point x="2291" y="62"/>
      <point x="2354" y="-18"/>
      <point x="2478" y="-18" type="curve" smooth="yes"/>
      <point x="2603" y="-18"/>
      <point x="2664" y="62"/>
      <point x="2664" y="225" type="curve" smooth="yes"/>
      <point x="2664" y="900" type="line" smooth="yes"/>
      <point x="2664" y="1077"/>
      <point x="2609" y="1174"/>
      <point x="2458" y="1174" type="curve" smooth="yes"/>
      <point x="2442" y="1174"/>
      <point x="2427" y="1173"/>
      <point x="2413" y="1170" type="curve"/>
      <point x="2407" y="1137" type="line"/>
      <point x="2422" y="1139"/>
      <point x="2439" y="1140"/>
      <point x="2458" y="1140" type="curve" smooth="yes"/>
      <point x="2589" y="1140"/>
      <point x="2629" y="1057"/>
      <point x="2629" y="900" type="curve" smooth="yes"/>
      <point x="2629" y="227" type="line" smooth="yes"/>
      <point x="2629" y="82"/>
      <point x="2579" y="15"/>
      <point x="2478" y="15" type="curve" smooth="yes"/>
      <point x="2376" y="15"/>
      <point x="2326" y="82"/>
      <point x="2326" y="227" type="curve" smooth="yes"/>
      <point x="2326" y="769" type="line" smooth="yes"/>
      <point x="2326" y="1303"/>
      <point x="2135" y="1566"/>
      <point x="1515" y="1566" type="curve" smooth="yes"/>
    </contour>
    <contour>
      <point x="1833" y="1156" type="line"/>
      <point x="1337" y="1156" type="line"/>
      <point x="1337" y="0" type="line"/>
      <point x="1372" y="0" type="line"/>
      <point x="1372" y="1124" type="line"/>
      <point x="1833" y="1124" type="line"/>
    </contour>
    <component base="Va_NonExporting" xOffset="367"/>
    <component base="RaBeak_Nonexporting" xOffset="1718"/>
  </outline>
</glyph>
<glyph name="DebitSign.tm" format="2">
  <advance width="1017"/>
  <unicode hex="0BF6"/>
  <note>
DebitSign.tm
</note>
  <anchor x="363" y="1236" name="top"/>
  <outline>
    <contour>
      <point x="850" y="1156" type="line"/>
      <point x="850" y="-248" type="line"/>
      <point x="885" y="-248" type="line"/>
      <point x="885" y="1156" type="line"/>
    </contour>
    <contour>
      <point x="348" y="-467" type="curve" smooth="yes"/>
      <point x="490" y="-467"/>
      <point x="568" y="-383"/>
      <point x="586" y="-241" type="curve"/>
      <point x="588" y="-234" type="line"/>
      <point x="592" y="-191"/>
      <point x="594" y="-105"/>
      <point x="594" y="0" type="curve" smooth="yes"/>
      <point x="594" y="26" type="line"/>
      <point x="559" y="26" type="line"/>
      <point x="559" y="0" type="line" smooth="yes"/>
      <point x="559" y="-107"/>
      <point x="555" y="-191"/>
      <point x="551" y="-232" type="curve"/>
      <point x="551" y="-239" type="line"/>
      <point x="537" y="-359"/>
      <point x="474" y="-434"/>
      <point x="348" y="-434" type="curve" smooth="yes"/>
      <point x="210" y="-434"/>
      <point x="153" y="-351"/>
      <point x="140" y="-248" type="curve"/>
      <point x="562" y="-248" type="line"/>
      <point x="573" y="-248" type="line"/>
      <point x="885" y="-248" type="line"/>
      <point x="885" y="-217" type="line"/>
      <point x="103" y="-217" type="line"/>
      <point x="111" y="-383"/>
      <point x="201" y="-467"/>
    </contour>
    <component base="Pa.tm"/>
  </outline>
</glyph>
<glyph name="AsAboveSign.tm" format="2">
  <advance width="2160"/>
  <unicode hex="0BF8"/>
  <note>
AsAboveSign.tm
</note>
  <outline>
    <contour>
      <point x="118" y="857" type="curve" smooth="yes"/>
      <point x="118" y="318" type="line" smooth="yes"/>
      <point x="118" y="99"/>
      <point x="192" y="-18"/>
      <point x="394" y="-18" type="curve" smooth="yes"/>
      <point x="573" y="-18"/>
      <point x="639" y="90"/>
      <point x="639" y="293" type="curve" smooth="yes"/>
      <point x="639" y="615" type="line" smooth="yes"/>
      <point x="639" y="762"/>
      <point x="585" y="834"/>
      <point x="475" y="834" type="curve" smooth="yes"/>
      <point x="365" y="834"/>
      <point x="309" y="760"/>
      <point x="309" y="613" type="curve"/>
      <point x="309" y="230" type="line" smooth="yes"/>
      <point x="309" y="126"/>
      <point x="330" y="60"/>
      <point x="363" y="14" type="curve"/>
      <point x="363" y="-7" type="line"/>
      <point x="407" y="6" type="line"/>
      <point x="363" y="55"/>
      <point x="344" y="132"/>
      <point x="344" y="228" type="curve" smooth="yes"/>
      <point x="344" y="611" type="line" smooth="yes"/>
      <point x="344" y="740"/>
      <point x="389" y="800"/>
      <point x="475" y="800" type="curve" smooth="yes"/>
      <point x="562" y="800"/>
      <point x="604" y="740"/>
      <point x="604" y="611" type="curve" smooth="yes"/>
      <point x="604" y="296" type="line" smooth="yes"/>
      <point x="604" y="114"/>
      <point x="558" y="13"/>
      <point x="394" y="13" type="curve" smooth="yes"/>
      <point x="389" y="13"/>
      <point x="383" y="13"/>
      <point x="364" y="14" type="curve"/>
      <point x="363" y="14" type="line"/>
      <point x="363" y="14" type="line"/>
      <point x="203" y="25"/>
      <point x="153" y="137"/>
      <point x="153" y="322" type="curve" smooth="yes"/>
      <point x="153" y="854" type="line" smooth="yes"/>
      <point x="153" y="1207"/>
      <point x="265" y="1362"/>
      <point x="521" y="1362" type="curve" smooth="yes"/>
      <point x="769" y="1362"/>
      <point x="845" y="1196"/>
      <point x="854" y="962" type="curve"/>
      <point x="880" y="1014" type="line"/>
      <point x="869" y="1218"/>
      <point x="780" y="1395"/>
      <point x="521" y="1395" type="curve" smooth="yes"/>
      <point x="245" y="1395"/>
      <point x="118" y="1227"/>
    </contour>
    <contour>
      <point x="815" y="765" type="curve" smooth="yes"/>
      <point x="815" y="219" type="line" smooth="yes"/>
      <point x="815" y="61"/>
      <point x="874" y="-18"/>
      <point x="994" y="-18" type="curve" smooth="yes"/>
      <point x="1113" y="-18"/>
      <point x="1171" y="61"/>
      <point x="1171" y="219" type="curve" smooth="yes"/>
      <point x="1171" y="585" type="line" smooth="yes"/>
      <point x="1171" y="729"/>
      <point x="1113" y="802"/>
      <point x="1007" y="802" type="curve" smooth="yes"/>
      <point x="927" y="802"/>
      <point x="874" y="753"/>
      <point x="850" y="687" type="curve"/>
      <point x="846" y="687" type="line"/>
      <point x="845" y="613" type="line"/>
      <point x="869" y="711"/>
      <point x="924" y="768"/>
      <point x="1003" y="768" type="curve" smooth="yes"/>
      <point x="1091" y="768"/>
      <point x="1136" y="704"/>
      <point x="1136" y="583" type="curve" smooth="yes"/>
      <point x="1136" y="221" type="line" smooth="yes"/>
      <point x="1136" y="79"/>
      <point x="1090" y="15"/>
      <point x="994" y="15" type="curve" smooth="yes"/>
      <point x="898" y="15"/>
      <point x="850" y="79"/>
      <point x="850" y="221" type="curve"/>
      <point x="850" y="687" type="line"/>
      <point x="850" y="687" type="line"/>
      <point x="850" y="715"/>
      <point x="850" y="739"/>
      <point x="850" y="765" type="curve" smooth="yes"/>
      <point x="850" y="1008"/>
      <point x="941" y="1141"/>
      <point x="1132" y="1141" type="curve" smooth="yes"/>
      <point x="1312" y="1141"/>
      <point x="1391" y="1016"/>
      <point x="1391" y="784" type="curve" smooth="yes"/>
      <point x="1391" y="434" type="line" smooth="yes"/>
      <point x="1391" y="219"/>
      <point x="1362" y="112"/>
      <point x="1299" y="6" type="curve"/>
      <point x="1299" y="0" type="line"/>
      <point x="1546" y="0" type="line"/>
      <point x="1546" y="32" type="line"/>
      <point x="1336" y="32" type="line"/>
      <point x="1340" y="11" type="line"/>
      <point x="1397" y="112"/>
      <point x="1426" y="212"/>
      <point x="1426" y="434" type="curve" smooth="yes"/>
      <point x="1426" y="784" type="line" smooth="yes"/>
      <point x="1426" y="1038"/>
      <point x="1331" y="1174"/>
      <point x="1132" y="1174" type="curve" smooth="yes"/>
      <point x="1009" y="1174"/>
      <point x="917" y="1122"/>
      <point x="871" y="1027" type="curve"/>
      <point x="861" y="1016" type="line"/>
      <point x="830" y="951"/>
      <point x="815" y="867"/>
    </contour>
    <component base="Ssa_Above_NonExporting" xOffset="1323"/>
    <component base="Ssa_Below_NonExporting" xOffset="1688"/>
  </outline>
</glyph>
<glyph name="RupeeSign.tm" format="2">
  <advance width="1773"/>
  <unicode hex="0BF9"/>
  <note>
RupeeSign.tm
</note>
  <outline>
    <contour>
      <point x="813" y="1133" type="line"/>
      <point x="813" y="2" type="line"/>
      <point x="848" y="2" type="line"/>
      <point x="848" y="1133" type="line"/>
    </contour>
    <contour>
      <point x="1017" y="794" type="curve" smooth="yes"/>
      <point x="923" y="794"/>
      <point x="870" y="740"/>
      <point x="848" y="664" type="curve"/>
      <point x="837" y="664" type="line"/>
      <point x="837" y="561" type="line"/>
      <point x="843" y="561" type="line"/>
      <point x="859" y="681"/>
      <point x="911" y="760"/>
      <point x="1012" y="760" type="curve" smooth="yes"/>
      <point x="1126" y="760"/>
      <point x="1161" y="675"/>
      <point x="1161" y="517" type="curve" smooth="yes"/>
      <point x="1161" y="263" type="line" smooth="yes"/>
      <point x="1161" y="-136"/>
      <point x="1026" y="-316"/>
      <point x="691" y="-316" type="curve" smooth="yes"/>
      <point x="691" y="-316" type="line" smooth="yes"/>
      <point x="325" y="-316"/>
      <point x="161" y="-112"/>
      <point x="161" y="285" type="curve"/>
      <point x="161" y="837" type="line" smooth="yes"/>
      <point x="161" y="1295"/>
      <point x="347" y="1531"/>
      <point x="765" y="1531" type="curve" smooth="yes"/>
      <point x="765" y="1531" type="line" smooth="yes"/>
      <point x="1153" y="1531"/>
      <point x="1308" y="1323"/>
      <point x="1308" y="859" type="curve" smooth="yes"/>
      <point x="1308" y="714" type="line"/>
      <point x="1343" y="714" type="line"/>
      <point x="1343" y="1032" type="line" smooth="yes"/>
      <point x="1343" y="1159"/>
      <point x="1383" y="1218"/>
      <point x="1466" y="1218" type="curve" smooth="yes"/>
      <point x="1545" y="1218"/>
      <point x="1586" y="1159"/>
      <point x="1586" y="1051" type="curve" smooth="yes"/>
      <point x="1586" y="867" type="line" smooth="yes"/>
      <point x="1586" y="708"/>
      <point x="1562" y="633"/>
      <point x="1507" y="539" type="curve"/>
      <point x="1507" y="534" type="line"/>
      <point x="1797" y="534" type="line"/>
      <point x="1801" y="565" type="line"/>
      <point x="1544" y="565" type="line"/>
      <point x="1547" y="545" type="line"/>
      <point x="1601" y="631"/>
      <point x="1621" y="708"/>
      <point x="1621" y="865" type="curve" smooth="yes"/>
      <point x="1621" y="1052" type="line" smooth="yes"/>
      <point x="1621" y="1181"/>
      <point x="1569" y="1249"/>
      <point x="1472" y="1249" type="curve" smooth="yes"/>
      <point x="1369" y="1249"/>
      <point x="1321" y="1183"/>
      <point x="1321" y="1058" type="curve" smooth="yes"/>
      <point x="1321" y="1049" type="line"/>
      <point x="1319" y="1049" type="line"/>
      <point x="1301" y="1382"/>
      <point x="1126" y="1564"/>
      <point x="765" y="1564" type="curve" smooth="yes"/>
      <point x="765" y="1564" type="line" smooth="yes"/>
      <point x="323" y="1564"/>
      <point x="126" y="1314"/>
      <point x="126" y="837" type="curve" smooth="yes"/>
      <point x="126" y="285" type="line" smooth="yes"/>
      <point x="126" y="-131"/>
      <point x="301" y="-350"/>
      <point x="691" y="-350" type="curve" smooth="yes"/>
      <point x="691" y="-350" type="line" smooth="yes"/>
      <point x="1052" y="-350"/>
      <point x="1196" y="-149"/>
      <point x="1196" y="263" type="curve" smooth="yes"/>
      <point x="1196" y="523" type="line" smooth="yes"/>
      <point x="1196" y="703"/>
      <point x="1142" y="794"/>
    </contour>
    <contour>
      <point x="949" y="1156" type="line"/>
      <point x="464" y="1156" type="line"/>
      <point x="464" y="0" type="line"/>
      <point x="499" y="0" type="line"/>
      <point x="499" y="1124" type="line"/>
      <point x="949" y="1124" type="line"/>
    </contour>
    <component base="RaBeak_Nonexporting" xOffset="845"/>
  </outline>
</glyph>
<glyph name="CaMatraU.tm" format="2">
  <advance width="928"/>
  <note>
CaMatraU.tm
</note>
  <outline>
    <contour>
      <point x="487" y="706" type="line"/>
      <point x="922" y="706" type="line"/>
      <point x="918" y="738" type="line"/>
      <point x="487" y="738" type="line"/>
    </contour>
    <contour>
      <point x="736" y="721" type="line"/>
      <point x="736" y="0" type="line"/>
      <point x="771" y="0" type="line"/>
      <point x="771" y="721" type="line"/>
    </contour>
    <component base="KaComponent_Nonexporting" xOffset="33"/>
    <component base="KaBeak_Nonexporting" xOffset="532"/>
  </outline>
</glyph>
<glyph name="HaMatraI_Fly.tm" format="2">
  <advance width="1826"/>
  <note>
HaMatraI.tm
</note>
  <anchor x="831" y="1236" name="top"/>
  <outline>
    <contour>
      <point x="1813" y="1459" type="line"/>
      <point x="1638" y="1459" type="line" smooth="yes"/>
      <point x="1514" y="1459"/>
      <point x="1478" y="1408"/>
      <point x="1478" y="1325" type="curve" smooth="yes"/>
      <point x="1478" y="1294"/>
      <point x="1484" y="1259"/>
      <point x="1502" y="1172" type="curve"/>
      <point x="1536" y="1172" type="line"/>
      <point x="1520" y="1249"/>
      <point x="1513" y="1289"/>
      <point x="1513" y="1319" type="curve" smooth="yes"/>
      <point x="1513" y="1384"/>
      <point x="1533" y="1426"/>
      <point x="1638" y="1426" type="curve" smooth="yes"/>
      <point x="1820" y="1426" type="line"/>
    </contour>
    <component base="Ha.tm"/>
  </outline>
</glyph>
<glyph name="Ha_Simple.tm" format="2">
  <advance width="1826"/>
  <note>
Ha.tm
</note>
  <guideline x="195" y="301" angle="90"/>
  <anchor x="831" y="1236" name="top"/>
  <outline>
    <contour>
      <point x="761" y="32" type="line"/>
      <point x="761" y="0" type="line"/>
      <point x="984" y="0" type="line"/>
      <point x="984" y="32" type="line"/>
    </contour>
    <contour>
      <point x="1003" y="-216" type="line"/>
      <point x="74" y="-216" type="line"/>
      <point x="80" y="-248" type="line"/>
      <point x="1003" y="-248" type="line"/>
    </contour>
    <component base="Va_NonExporting" xOffset="10"/>
    <component base="Rra_Simple.tm" xOffset="846"/>
  </outline>
</glyph>
<glyph name="JaMatraI_Fly.tm" format="2">
  <advance width="1084"/>
  <note>
JaMatraI.tm
</note>
  <anchor x="603" y="1236" name="top"/>
  <outline>
    <contour>
      <point x="1098" y="1459" type="line"/>
      <point x="922" y="1459" type="line" smooth="yes"/>
      <point x="799" y="1459"/>
      <point x="762" y="1408"/>
      <point x="762" y="1325" type="curve" smooth="yes"/>
      <point x="762" y="1298"/>
      <point x="768" y="1261"/>
      <point x="788" y="1172" type="curve"/>
      <point x="821" y="1172" type="line"/>
      <point x="803" y="1258"/>
      <point x="797" y="1291"/>
      <point x="797" y="1319" type="curve" smooth="yes"/>
      <point x="797" y="1384"/>
      <point x="817" y="1426"/>
      <point x="922" y="1426" type="curve" smooth="yes"/>
      <point x="1104" y="1426" type="line"/>
    </contour>
    <component base="Ja.tm"/>
  </outline>
</glyph>
<glyph name="JaMatraIi.tm" format="2">
  <advance width="1084"/>
  <note>
JaMatraIi.tm
</note>
  <anchor x="603" y="1236" name="top"/>
  <outline>
    <contour>
      <point x="983" y="1726" type="curve" smooth="yes"/>
      <point x="836" y="1726"/>
      <point x="770" y="1630"/>
      <point x="770" y="1454" type="curve" smooth="yes"/>
      <point x="770" y="1335" type="line" smooth="yes"/>
      <point x="770" y="1251"/>
      <point x="780" y="1197"/>
      <point x="817" y="1164" type="curve"/>
      <point x="856" y="1164" type="line"/>
      <point x="813" y="1200"/>
      <point x="804" y="1244"/>
      <point x="804" y="1335" type="curve" smooth="yes"/>
      <point x="804" y="1450" type="line" smooth="yes"/>
      <point x="804" y="1602"/>
      <point x="851" y="1690"/>
      <point x="974" y="1695" type="curve"/>
      <point x="978" y="1695" type="line"/>
      <point x="982" y="1695"/>
      <point x="982" y="1695"/>
      <point x="983" y="1695" type="curve" smooth="yes"/>
      <point x="1113" y="1695"/>
      <point x="1154" y="1619"/>
      <point x="1154" y="1472" type="curve" smooth="yes"/>
      <point x="1154" y="1426" type="line" smooth="yes"/>
      <point x="1154" y="1335"/>
      <point x="1121" y="1293"/>
      <point x="1057" y="1293" type="curve" smooth="yes"/>
      <point x="993" y="1293"/>
      <point x="959" y="1335"/>
      <point x="959" y="1426" type="curve" smooth="yes"/>
      <point x="959" y="1516" type="line" smooth="yes"/>
      <point x="959" y="1610"/>
      <point x="975" y="1665"/>
      <point x="1020" y="1702" type="curve"/>
      <point x="974" y="1702" type="line"/>
      <point x="974" y="1695" type="line"/>
      <point x="943" y="1661"/>
      <point x="925" y="1609"/>
      <point x="925" y="1514" type="curve" smooth="yes"/>
      <point x="925" y="1424" type="line" smooth="yes"/>
      <point x="925" y="1316"/>
      <point x="971" y="1260"/>
      <point x="1057" y="1260" type="curve" smooth="yes"/>
      <point x="1144" y="1260"/>
      <point x="1188" y="1314"/>
      <point x="1188" y="1422" type="curve" smooth="yes"/>
      <point x="1188" y="1476" type="line" smooth="yes"/>
      <point x="1188" y="1638"/>
      <point x="1134" y="1726"/>
    </contour>
    <component base="Ja.tm"/>
  </outline>
</glyph>
<glyph name="JaMatraIi_Fused.tm" format="2">
  <advance width="1090"/>
  <note>
JaMatraIi.tm
</note>
  <anchor x="603" y="1236" name="top"/>
  <outline>
    <contour>
      <point x="989" y="1726" type="curve" smooth="yes"/>
      <point x="842" y="1726"/>
      <point x="776" y="1630"/>
      <point x="776" y="1454" type="curve" smooth="yes"/>
      <point x="776" y="1335" type="line" smooth="yes"/>
      <point x="776" y="1251"/>
      <point x="786" y="1197"/>
      <point x="823" y="1164" type="curve"/>
      <point x="862" y="1164" type="line"/>
      <point x="819" y="1200"/>
      <point x="810" y="1244"/>
      <point x="810" y="1335" type="curve" smooth="yes"/>
      <point x="810" y="1450" type="line" smooth="yes"/>
      <point x="810" y="1602"/>
      <point x="857" y="1690"/>
      <point x="980" y="1695" type="curve"/>
      <point x="984" y="1695" type="line"/>
      <point x="988" y="1695"/>
      <point x="988" y="1695"/>
      <point x="989" y="1695" type="curve" smooth="yes"/>
      <point x="1119" y="1695"/>
      <point x="1160" y="1619"/>
      <point x="1160" y="1472" type="curve" smooth="yes"/>
      <point x="1160" y="1426" type="line" smooth="yes"/>
      <point x="1160" y="1335"/>
      <point x="1127" y="1293"/>
      <point x="1063" y="1293" type="curve" smooth="yes"/>
      <point x="999" y="1293"/>
      <point x="965" y="1335"/>
      <point x="965" y="1426" type="curve" smooth="yes"/>
      <point x="965" y="1516" type="line" smooth="yes"/>
      <point x="965" y="1610"/>
      <point x="981" y="1665"/>
      <point x="1026" y="1702" type="curve"/>
      <point x="980" y="1702" type="line"/>
      <point x="980" y="1695" type="line"/>
      <point x="949" y="1661"/>
      <point x="931" y="1609"/>
      <point x="931" y="1514" type="curve" smooth="yes"/>
      <point x="931" y="1424" type="line" smooth="yes"/>
      <point x="931" y="1316"/>
      <point x="977" y="1260"/>
      <point x="1063" y="1260" type="curve" smooth="yes"/>
      <point x="1150" y="1260"/>
      <point x="1194" y="1314"/>
      <point x="1194" y="1422" type="curve" smooth="yes"/>
      <point x="1194" y="1476" type="line" smooth="yes"/>
      <point x="1194" y="1638"/>
      <point x="1140" y="1726"/>
    </contour>
    <component base="Ja_Fused.tm"/>
  </outline>
</glyph>
<glyph name="JaMatraIi_SimpleIi.tm" format="2">
  <advance width="1084"/>
  <note>
JaMatraIi.tm
</note>
  <anchor x="603" y="1236" name="top"/>
  <outline>
    <contour>
      <point x="911" y="1726" type="curve" smooth="yes"/>
      <point x="820" y="1726"/>
      <point x="770" y="1665"/>
      <point x="770" y="1561" type="curve" smooth="yes"/>
      <point x="770" y="1325" type="line" smooth="yes"/>
      <point x="770" y="1246"/>
      <point x="780" y="1195"/>
      <point x="817" y="1164" type="curve"/>
      <point x="856" y="1164" type="line"/>
      <point x="813" y="1198"/>
      <point x="804" y="1239"/>
      <point x="804" y="1325" type="curve" smooth="yes"/>
      <point x="804" y="1407" type="line"/>
      <point x="804" y="1559" type="line" smooth="yes"/>
      <point x="804" y="1647"/>
      <point x="841" y="1693"/>
      <point x="911" y="1693" type="curve" smooth="yes"/>
      <point x="983" y="1693"/>
      <point x="1009" y="1647"/>
      <point x="1009" y="1563" type="curve" smooth="yes"/>
      <point x="1009" y="1458" type="line" smooth="yes"/>
      <point x="1009" y="1381"/>
      <point x="982" y="1337"/>
      <point x="916" y="1337" type="curve" smooth="yes"/>
      <point x="859" y="1337"/>
      <point x="817" y="1372"/>
      <point x="800" y="1421" type="curve"/>
      <point x="799" y="1421" type="line"/>
      <point x="799" y="1388" type="line"/>
      <point x="802" y="1388" type="line"/>
      <point x="821" y="1351" type="line"/>
      <point x="835" y="1328"/>
      <point x="872" y="1304"/>
      <point x="920" y="1304" type="curve" smooth="yes"/>
      <point x="1010" y="1304"/>
      <point x="1043" y="1365"/>
      <point x="1043" y="1456" type="curve" smooth="yes"/>
      <point x="1043" y="1565" type="line" smooth="yes"/>
      <point x="1043" y="1665"/>
      <point x="1007" y="1726"/>
    </contour>
    <component base="Ja.tm"/>
  </outline>
</glyph>
<glyph name="JaMatraUu.tm" format="2">
  <advance width="1882"/>
  <note>
JaMatraUu.tm
</note>
  <outline>
    <contour>
      <point x="1108" y="1156" type="line"/>
      <point x="878" y="1156" type="line"/>
      <point x="878" y="1124" type="line"/>
      <point x="1108" y="1124" type="line"/>
    </contour>
    <contour>
      <point x="378" y="1174" type="curve" smooth="yes"/>
      <point x="194" y="1174"/>
      <point x="102" y="1056"/>
      <point x="102" y="835" type="curve" smooth="yes"/>
      <point x="102" y="570" type="line" smooth="yes"/>
      <point x="102" y="419"/>
      <point x="146" y="340"/>
      <point x="264" y="340" type="curve" smooth="yes"/>
      <point x="386" y="340"/>
      <point x="430" y="419"/>
      <point x="430" y="570" type="curve" smooth="yes"/>
      <point x="430" y="753" type="line" smooth="yes"/>
      <point x="430" y="879"/>
      <point x="375" y="943"/>
      <point x="275" y="943" type="curve" smooth="yes"/>
      <point x="206" y="943"/>
      <point x="155" y="902"/>
      <point x="133" y="840" type="curve"/>
      <point x="129" y="840" type="line"/>
      <point x="129" y="771" type="line"/>
      <point x="148" y="860"/>
      <point x="203" y="910"/>
      <point x="271" y="910" type="curve" smooth="yes"/>
      <point x="352" y="910"/>
      <point x="396" y="855"/>
      <point x="396" y="751" type="curve" smooth="yes"/>
      <point x="396" y="574" type="line" smooth="yes"/>
      <point x="396" y="446"/>
      <point x="367" y="372"/>
      <point x="264" y="372" type="curve" smooth="yes"/>
      <point x="164" y="372"/>
      <point x="135" y="446"/>
      <point x="135" y="574" type="curve" smooth="yes"/>
      <point x="135" y="840" type="line"/>
      <point x="133" y="840" type="line"/>
      <point x="133" y="1036"/>
      <point x="214" y="1141"/>
      <point x="378" y="1141" type="curve" smooth="yes"/>
      <point x="540" y="1141"/>
      <point x="607" y="1033"/>
      <point x="607" y="822" type="curve" smooth="yes"/>
      <point x="607" y="400" type="line"/>
      <point x="641" y="400" type="line"/>
      <point x="641" y="926" type="line" smooth="yes"/>
      <point x="641" y="1070"/>
      <point x="689" y="1141"/>
      <point x="794" y="1141" type="curve" smooth="yes"/>
      <point x="897" y="1141"/>
      <point x="940" y="1074"/>
      <point x="940" y="942" type="curve" smooth="yes"/>
      <point x="940" y="579" type="line" smooth="yes"/>
      <point x="940" y="427"/>
      <point x="901" y="354"/>
      <point x="731" y="318" type="curve" smooth="yes"/>
      <point x="335" y="234" type="line" smooth="yes"/>
      <point x="185" y="202"/>
      <point x="126" y="134"/>
      <point x="126" y="-34" type="curve" smooth="yes"/>
      <point x="126" y="-92" type="line" smooth="yes"/>
      <point x="126" y="-226"/>
      <point x="188" y="-302"/>
      <point x="304" y="-302" type="curve" smooth="yes"/>
      <point x="422" y="-302"/>
      <point x="465" y="-231"/>
      <point x="543" y="-96" type="curve" smooth="yes"/>
      <point x="594" y="-8" type="line" smooth="yes"/>
      <point x="668" y="119"/>
      <point x="720" y="169"/>
      <point x="807" y="169" type="curve" smooth="yes"/>
      <point x="902" y="169"/>
      <point x="934" y="112"/>
      <point x="934" y="-8" type="curve" smooth="yes"/>
      <point x="934" y="-90" type="line" smooth="yes"/>
      <point x="934" y="-211"/>
      <point x="892" y="-269"/>
      <point x="801" y="-269" type="curve" smooth="yes"/>
      <point x="751" y="-269"/>
      <point x="695" y="-255"/>
      <point x="641" y="-222" type="curve"/>
      <point x="647" y="-262" type="line"/>
      <point x="688" y="-286"/>
      <point x="742" y="-302"/>
      <point x="801" y="-302" type="curve" smooth="yes"/>
      <point x="913" y="-302"/>
      <point x="968" y="-228"/>
      <point x="968" y="-90" type="curve" smooth="yes"/>
      <point x="968" y="-4" type="line" smooth="yes"/>
      <point x="968" y="127"/>
      <point x="923" y="202"/>
      <point x="807" y="202" type="curve" smooth="yes"/>
      <point x="708" y="202"/>
      <point x="644" y="145"/>
      <point x="568" y="14" type="curve" smooth="yes"/>
      <point x="520" y="-69" type="line" smooth="yes"/>
      <point x="444" y="-201"/>
      <point x="407" y="-269"/>
      <point x="304" y="-269" type="curve" smooth="yes"/>
      <point x="209" y="-269"/>
      <point x="160" y="-211"/>
      <point x="160" y="-86" type="curve" smooth="yes"/>
      <point x="160" y="-34" type="line" smooth="yes"/>
      <point x="160" y="115"/>
      <point x="206" y="173"/>
      <point x="343" y="202" type="curve" smooth="yes"/>
      <point x="738" y="285" type="line" smooth="yes"/>
      <point x="924" y="324"/>
      <point x="974" y="411"/>
      <point x="974" y="579" type="curve" smooth="yes"/>
      <point x="974" y="942" type="line" smooth="yes"/>
      <point x="974" y="1032"/>
      <point x="954" y="1100"/>
      <point x="909" y="1133" type="curve"/>
      <point x="909" y="1139" type="line"/>
      <point x="886" y="1161"/>
      <point x="847" y="1174"/>
      <point x="795" y="1174" type="curve" smooth="yes"/>
      <point x="677" y="1174"/>
      <point x="621" y="1097"/>
      <point x="620" y="955" type="curve"/>
      <point x="618" y="955" type="line"/>
      <point x="601" y="1098"/>
      <point x="520" y="1174"/>
    </contour>
    <component base="MatraUuDflt.tm" xOffset="944"/>
  </outline>
</glyph>
<glyph name="JaMatraUu_Fused_SimpleUu.tm" format="2">
  <advance width="1888"/>
  <note>
JaMatraUu.tm
</note>
  <outline>
    <contour>
      <point x="1114" y="1156" type="line"/>
      <point x="884" y="1156" type="line"/>
      <point x="884" y="1124" type="line"/>
      <point x="1114" y="1124" type="line"/>
    </contour>
    <contour>
      <point x="801" y="1174" type="curve" smooth="yes"/>
      <point x="683" y="1174"/>
      <point x="627" y="1097"/>
      <point x="626" y="955" type="curve"/>
      <point x="624" y="955" type="line"/>
      <point x="607" y="1098"/>
      <point x="526" y="1174"/>
      <point x="384" y="1174" type="curve" smooth="yes"/>
      <point x="199" y="1174"/>
      <point x="107" y="1056"/>
      <point x="107" y="835" type="curve" smooth="yes"/>
      <point x="107" y="431" type="line" smooth="yes"/>
      <point x="107" y="284"/>
      <point x="151" y="207"/>
      <point x="270" y="207" type="curve"/>
      <point x="356" y="231" type="line"/>
      <point x="414" y="257"/>
      <point x="436" y="325"/>
      <point x="436" y="431" type="curve" smooth="yes"/>
      <point x="436" y="753" type="line" smooth="yes"/>
      <point x="436" y="879"/>
      <point x="381" y="943"/>
      <point x="281" y="943" type="curve" smooth="yes"/>
      <point x="212" y="943"/>
      <point x="161" y="902"/>
      <point x="139" y="840" type="curve"/>
      <point x="135" y="840" type="line"/>
      <point x="135" y="771" type="line"/>
      <point x="154" y="860"/>
      <point x="209" y="910"/>
      <point x="277" y="910" type="curve" smooth="yes"/>
      <point x="358" y="910"/>
      <point x="402" y="855"/>
      <point x="402" y="751" type="curve" smooth="yes"/>
      <point x="402" y="435" type="line" smooth="yes"/>
      <point x="402" y="306"/>
      <point x="373" y="233"/>
      <point x="270" y="233" type="curve" smooth="yes"/>
      <point x="170" y="233"/>
      <point x="141" y="306"/>
      <point x="141" y="435" type="curve" smooth="yes"/>
      <point x="141" y="840" type="line"/>
      <point x="139" y="840" type="line"/>
      <point x="139" y="1037"/>
      <point x="220" y="1141"/>
      <point x="384" y="1141" type="curve" smooth="yes"/>
      <point x="546" y="1141"/>
      <point x="613" y="1033"/>
      <point x="613" y="822" type="curve" smooth="yes"/>
      <point x="613" y="390" type="line"/>
      <point x="647" y="390" type="line"/>
      <point x="647" y="926" type="line" smooth="yes"/>
      <point x="647" y="1070"/>
      <point x="695" y="1141"/>
      <point x="800" y="1141" type="curve" smooth="yes"/>
      <point x="903" y="1141"/>
      <point x="946" y="1074"/>
      <point x="946" y="942" type="curve" smooth="yes"/>
      <point x="946" y="558" type="line"/>
      <point x="946" y="406"/>
      <point x="909" y="322"/>
      <point x="737" y="295" type="curve" smooth="yes"/>
      <point x="349" y="233" type="line"/>
      <point x="292" y="217" type="line"/>
      <point x="187" y="191"/>
      <point x="132" y="134"/>
      <point x="132" y="-29" type="curve" smooth="yes"/>
      <point x="132" y="-92" type="line" smooth="yes"/>
      <point x="132" y="-226"/>
      <point x="194" y="-302"/>
      <point x="310" y="-302" type="curve" smooth="yes"/>
      <point x="428" y="-302"/>
      <point x="473" y="-229"/>
      <point x="549" y="-86" type="curve" smooth="yes"/>
      <point x="632" y="70" type="line" smooth="yes"/>
      <point x="711" y="219"/>
      <point x="746" y="276"/>
      <point x="829" y="276" type="curve" smooth="yes"/>
      <point x="911" y="276"/>
      <point x="940" y="217"/>
      <point x="940" y="92" type="curve" smooth="yes"/>
      <point x="940" y="-90" type="line" smooth="yes"/>
      <point x="940" y="-211"/>
      <point x="898" y="-269"/>
      <point x="807" y="-269" type="curve" smooth="yes"/>
      <point x="757" y="-269"/>
      <point x="701" y="-255"/>
      <point x="647" y="-222" type="curve"/>
      <point x="653" y="-262" type="line"/>
      <point x="694" y="-286"/>
      <point x="748" y="-302"/>
      <point x="807" y="-302" type="curve" smooth="yes"/>
      <point x="919" y="-302"/>
      <point x="974" y="-228"/>
      <point x="974" y="-90" type="curve" smooth="yes"/>
      <point x="974" y="96" type="line" smooth="yes"/>
      <point x="974" y="224"/>
      <point x="934" y="296"/>
      <point x="844" y="298" type="curve"/>
      <point x="812" y="294" type="line"/>
      <point x="720" y="294"/>
      <point x="682" y="230"/>
      <point x="610" y="96" type="curve" smooth="yes"/>
      <point x="527" y="-59" type="line" smooth="yes"/>
      <point x="452" y="-198"/>
      <point x="413" y="-269"/>
      <point x="310" y="-269" type="curve" smooth="yes"/>
      <point x="215" y="-269"/>
      <point x="166" y="-211"/>
      <point x="166" y="-86" type="curve" smooth="yes"/>
      <point x="166" y="-29" type="line" smooth="yes"/>
      <point x="166" y="122"/>
      <point x="212" y="181"/>
      <point x="349" y="203" type="curve" smooth="yes"/>
      <point x="744" y="265" type="line" smooth="yes"/>
      <point x="932" y="295"/>
      <point x="980" y="390"/>
      <point x="980" y="558" type="curve" smooth="yes"/>
      <point x="980" y="942" type="line" smooth="yes"/>
      <point x="980" y="1032"/>
      <point x="960" y="1100"/>
      <point x="915" y="1133" type="curve"/>
      <point x="915" y="1139" type="line"/>
      <point x="892" y="1161"/>
      <point x="853" y="1174"/>
    </contour>
    <component base="MatraUuDflt_Simple.tm" xOffset="950"/>
  </outline>
</glyph>
<glyph name="KaBeak_Nonexporting" format="2">
  <advance width="184"/>
  <outline>
    <contour>
      <point x="0" y="1124" type="line"/>
      <point x="184" y="1124" type="line"/>
      <point x="180" y="1156" type="line"/>
      <point x="0" y="1156" type="line"/>
    </contour>
  </outline>
</glyph>
<glyph name="KaComponent_Nonexporting" format="2">
  <advance width="530"/>
  <outline>
    <contour>
      <point x="453" y="738" type="line"/>
      <point x="196" y="738" type="line"/>
      <point x="181" y="736" type="line"/>
      <point x="73" y="707" type="line"/>
      <point x="73" y="581"/>
      <point x="73" y="363"/>
      <point x="73" y="237" type="curve" smooth="yes"/>
      <point x="73" y="66"/>
      <point x="139" y="-18"/>
      <point x="269" y="-18" type="curve" smooth="yes"/>
      <point x="401" y="-18"/>
      <point x="466" y="66"/>
      <point x="466" y="237" type="curve" smooth="yes"/>
      <point x="466" y="723" type="line"/>
      <point x="466" y="730" type="line"/>
      <point x="466" y="1144" type="line"/>
      <point x="432" y="1144" type="line"/>
      <point x="432" y="730" type="line"/>
      <point x="431" y="723" type="line"/>
      <point x="431" y="239" type="line" smooth="yes"/>
      <point x="431" y="85"/>
      <point x="377" y="15"/>
      <point x="269" y="15" type="curve" smooth="yes"/>
      <point x="163" y="15"/>
      <point x="108" y="85"/>
      <point x="108" y="239" type="curve" smooth="yes"/>
      <point x="108" y="363"/>
      <point x="108" y="560"/>
      <point x="108" y="684" type="curve"/>
      <point x="196" y="706" type="line"/>
      <point x="453" y="706" type="line"/>
    </contour>
    <contour>
      <point x="530" y="1156" type="line"/>
      <point x="171" y="1156" type="line"/>
      <point x="171" y="719" type="line"/>
      <point x="205" y="721" type="line"/>
      <point x="205" y="1124" type="line"/>
      <point x="442" y="1124" type="line"/>
      <point x="453" y="1124" type="line"/>
      <point x="530" y="1124" type="line"/>
    </contour>
  </outline>
</glyph>
<glyph name="KssaMatraI_Simple_Fly.tm" format="2">
  <advance width="1819"/>
  <note>
KshaMatraI.tm
</note>
  <anchor x="1041" y="1236" name="top"/>
  <outline>
    <contour>
      <point x="1792" y="1459" type="line"/>
      <point x="1617" y="1459" type="line" smooth="yes"/>
      <point x="1493" y="1459"/>
      <point x="1457" y="1408"/>
      <point x="1457" y="1325" type="curve" smooth="yes"/>
      <point x="1457" y="1295"/>
      <point x="1463" y="1260"/>
      <point x="1483" y="1170" type="curve"/>
      <point x="1516" y="1170" type="line"/>
      <point x="1498" y="1255"/>
      <point x="1491" y="1290"/>
      <point x="1491" y="1319" type="curve" smooth="yes"/>
      <point x="1491" y="1384"/>
      <point x="1512" y="1426"/>
      <point x="1617" y="1426" type="curve" smooth="yes"/>
      <point x="1799" y="1426" type="line"/>
    </contour>
    <component base="Kssa_Simple.tm"/>
  </outline>
</glyph>
<glyph name="KssaMatraIi.tm" format="2">
  <advance width="1819"/>
  <note>
KshaMatraIi.tm
</note>
  <anchor x="1041" y="1236" name="top"/>
  <outline>
    <contour>
      <point x="1686" y="1726" type="curve" smooth="yes"/>
      <point x="1539" y="1726"/>
      <point x="1473" y="1630"/>
      <point x="1473" y="1454" type="curve" smooth="yes"/>
      <point x="1473" y="1335" type="line" smooth="yes"/>
      <point x="1473" y="1251"/>
      <point x="1483" y="1197"/>
      <point x="1520" y="1164" type="curve"/>
      <point x="1559" y="1164" type="line"/>
      <point x="1516" y="1200"/>
      <point x="1507" y="1244"/>
      <point x="1507" y="1335" type="curve" smooth="yes"/>
      <point x="1507" y="1450" type="line" smooth="yes"/>
      <point x="1507" y="1602"/>
      <point x="1554" y="1690"/>
      <point x="1677" y="1695" type="curve"/>
      <point x="1681" y="1695" type="line"/>
      <point x="1685" y="1695"/>
      <point x="1685" y="1695"/>
      <point x="1686" y="1695" type="curve" smooth="yes"/>
      <point x="1816" y="1695"/>
      <point x="1857" y="1619"/>
      <point x="1857" y="1472" type="curve" smooth="yes"/>
      <point x="1857" y="1426" type="line" smooth="yes"/>
      <point x="1857" y="1335"/>
      <point x="1824" y="1293"/>
      <point x="1760" y="1293" type="curve" smooth="yes"/>
      <point x="1696" y="1293"/>
      <point x="1662" y="1335"/>
      <point x="1662" y="1426" type="curve" smooth="yes"/>
      <point x="1662" y="1516" type="line" smooth="yes"/>
      <point x="1662" y="1610"/>
      <point x="1678" y="1665"/>
      <point x="1723" y="1702" type="curve"/>
      <point x="1677" y="1702" type="line"/>
      <point x="1677" y="1695" type="line"/>
      <point x="1646" y="1661"/>
      <point x="1628" y="1609"/>
      <point x="1628" y="1514" type="curve" smooth="yes"/>
      <point x="1628" y="1424" type="line" smooth="yes"/>
      <point x="1628" y="1316"/>
      <point x="1674" y="1260"/>
      <point x="1760" y="1260" type="curve" smooth="yes"/>
      <point x="1847" y="1260"/>
      <point x="1891" y="1314"/>
      <point x="1891" y="1422" type="curve" smooth="yes"/>
      <point x="1891" y="1476" type="line" smooth="yes"/>
      <point x="1891" y="1638"/>
      <point x="1837" y="1726"/>
    </contour>
    <component base="Kssa.tm"/>
  </outline>
</glyph>
<glyph name="Kssa_Simple.tm" format="2">
  <advance width="1819"/>
  <note>
Ksha.tm
</note>
  <anchor x="1041" y="1236" name="top"/>
  <outline>
    <contour>
      <point x="489" y="706" type="line"/>
      <point x="559" y="706" type="line" smooth="yes"/>
      <point x="695" y="706"/>
      <point x="736" y="641"/>
      <point x="736" y="502" type="curve" smooth="yes"/>
      <point x="736" y="0" type="line"/>
      <point x="771" y="0" type="line"/>
      <point x="771" y="591" type="line" smooth="yes"/>
      <point x="771" y="729"/>
      <point x="822" y="793"/>
      <point x="913" y="793" type="curve" smooth="yes"/>
      <point x="1004" y="793"/>
      <point x="1050" y="729"/>
      <point x="1050" y="609" type="curve" smooth="yes"/>
      <point x="1050" y="333" type="line" smooth="yes"/>
      <point x="1050" y="175"/>
      <point x="1026" y="99"/>
      <point x="971" y="6" type="curve"/>
      <point x="971" y="0" type="line"/>
      <point x="1303" y="0" type="line"/>
      <point x="1303" y="32" type="line"/>
      <point x="1008" y="32" type="line"/>
      <point x="1012" y="11" type="line"/>
      <point x="1065" y="98"/>
      <point x="1085" y="175"/>
      <point x="1085" y="331" type="curve" smooth="yes"/>
      <point x="1085" y="611" type="line" smooth="yes"/>
      <point x="1085" y="754"/>
      <point x="1027" y="827"/>
      <point x="918" y="827" type="curve" smooth="yes"/>
      <point x="802" y="827"/>
      <point x="749" y="752"/>
      <point x="749" y="609" type="curve" smooth="yes"/>
      <point x="749" y="580" type="line"/>
      <point x="747" y="580" type="line"/>
      <point x="738" y="684"/>
      <point x="694" y="738"/>
      <point x="561" y="738" type="curve" smooth="yes"/>
      <point x="489" y="738" type="line"/>
    </contour>
    <component base="KaComponent_Nonexporting" xOffset="33"/>
    <component base="Ssa_Above_NonExporting" xOffset="982"/>
    <component base="KaBeak_Nonexporting" xOffset="532"/>
    <component base="Ssa_Below_Simple_NonExporting" xOffset="1343"/>
  </outline>
</glyph>
<glyph name="LaMatraIi.tm" format="2">
  <advance width="1174"/>
  <note>
LaMatraIi.tm
</note>
  <outline>
    <contour>
      <point x="833" y="1450" type="line" smooth="yes"/>
      <point x="833" y="1602"/>
      <point x="880" y="1690"/>
      <point x="1003" y="1695" type="curve"/>
      <point x="1006" y="1695" type="line"/>
      <point x="1010" y="1695"/>
      <point x="1011" y="1695"/>
      <point x="1012" y="1695" type="curve" smooth="yes"/>
      <point x="1142" y="1695"/>
      <point x="1183" y="1619"/>
      <point x="1183" y="1472" type="curve" smooth="yes"/>
      <point x="1183" y="1426" type="line" smooth="yes"/>
      <point x="1183" y="1335"/>
      <point x="1150" y="1293"/>
      <point x="1086" y="1293" type="curve" smooth="yes"/>
      <point x="1022" y="1293"/>
      <point x="988" y="1335"/>
      <point x="988" y="1426" type="curve" smooth="yes"/>
      <point x="988" y="1516" type="line" smooth="yes"/>
      <point x="988" y="1610"/>
      <point x="1004" y="1665"/>
      <point x="1049" y="1702" type="curve"/>
      <point x="1003" y="1702" type="line"/>
      <point x="1003" y="1695" type="line"/>
      <point x="972" y="1661"/>
      <point x="954" y="1609"/>
      <point x="954" y="1514" type="curve" smooth="yes"/>
      <point x="954" y="1424" type="line" smooth="yes"/>
      <point x="954" y="1316"/>
      <point x="1000" y="1260"/>
      <point x="1086" y="1260" type="curve" smooth="yes"/>
      <point x="1173" y="1260"/>
      <point x="1217" y="1314"/>
      <point x="1217" y="1422" type="curve" smooth="yes"/>
      <point x="1217" y="1476" type="line" smooth="yes"/>
      <point x="1217" y="1638"/>
      <point x="1163" y="1726"/>
      <point x="1012" y="1726" type="curve" smooth="yes"/>
      <point x="865" y="1726"/>
      <point x="799" y="1630"/>
      <point x="799" y="1454" type="curve" smooth="yes"/>
      <point x="799" y="1233" type="line" smooth="yes"/>
      <point x="799" y="1202"/>
      <point x="799" y="1170"/>
      <point x="799" y="1137" type="curve"/>
      <point x="813" y="1139"/>
      <point x="830" y="1141"/>
      <point x="850" y="1141" type="curve" smooth="yes"/>
      <point x="981" y="1141"/>
      <point x="1021" y="1058"/>
      <point x="1021" y="900" type="curve" smooth="yes"/>
      <point x="1021" y="227" type="line" smooth="yes"/>
      <point x="1021" y="82"/>
      <point x="972" y="15"/>
      <point x="871" y="15" type="curve" smooth="yes"/>
      <point x="769" y="15"/>
      <point x="719" y="82"/>
      <point x="719" y="227" type="curve" smooth="yes"/>
      <point x="719" y="809" type="line" smooth="yes"/>
      <point x="719" y="1048"/>
      <point x="621" y="1174"/>
      <point x="432" y="1174" type="curve" smooth="yes"/>
      <point x="223" y="1174"/>
      <point x="116" y="1033"/>
      <point x="116" y="766" type="curve" smooth="yes"/>
      <point x="116" y="219" type="line" smooth="yes"/>
      <point x="116" y="61"/>
      <point x="175" y="-18"/>
      <point x="295" y="-18" type="curve" smooth="yes"/>
      <point x="414" y="-18"/>
      <point x="472" y="61"/>
      <point x="472" y="219" type="curve" smooth="yes"/>
      <point x="472" y="585" type="line" smooth="yes"/>
      <point x="472" y="729"/>
      <point x="414" y="802"/>
      <point x="308" y="802" type="curve" smooth="yes"/>
      <point x="228" y="802"/>
      <point x="175" y="753"/>
      <point x="151" y="687" type="curve"/>
      <point x="147" y="687" type="line"/>
      <point x="146" y="613" type="line"/>
      <point x="170" y="711"/>
      <point x="225" y="768"/>
      <point x="304" y="768" type="curve" smooth="yes"/>
      <point x="392" y="768"/>
      <point x="437" y="704"/>
      <point x="437" y="583" type="curve" smooth="yes"/>
      <point x="437" y="221" type="line" smooth="yes"/>
      <point x="437" y="79"/>
      <point x="391" y="15"/>
      <point x="295" y="15" type="curve" smooth="yes"/>
      <point x="199" y="15"/>
      <point x="151" y="79"/>
      <point x="151" y="221" type="curve"/>
      <point x="151" y="687" type="line"/>
      <point x="151" y="687" type="line"/>
      <point x="151" y="715"/>
      <point x="151" y="740"/>
      <point x="151" y="766" type="curve" smooth="yes"/>
      <point x="151" y="1007"/>
      <point x="242" y="1140"/>
      <point x="432" y="1140" type="curve" smooth="yes"/>
      <point x="603" y="1140"/>
      <point x="684" y="1022"/>
      <point x="684" y="809" type="curve" smooth="yes"/>
      <point x="684" y="225" type="line" smooth="yes"/>
      <point x="684" y="62"/>
      <point x="747" y="-18"/>
      <point x="871" y="-18" type="curve" smooth="yes"/>
      <point x="996" y="-18"/>
      <point x="1056" y="62"/>
      <point x="1056" y="225" type="curve" smooth="yes"/>
      <point x="1056" y="900" type="line" smooth="yes"/>
      <point x="1056" y="1077"/>
      <point x="1000" y="1174"/>
      <point x="854" y="1174" type="curve" smooth="yes"/>
      <point x="841" y="1174"/>
      <point x="829" y="1172"/>
      <point x="825" y="1171" type="curve"/>
      <point x="833" y="1166" type="line"/>
      <point x="833" y="1187"/>
      <point x="833" y="1206"/>
      <point x="833" y="1228" type="curve" smooth="yes"/>
    </contour>
  </outline>
</glyph>
<glyph name="LaMatraU.tm" format="2">
  <advance width="1483"/>
  <note>
LaMatraU.tm
</note>
  <guideline x="221" y="-315" angle="90"/>
  <guideline x="543" y="-315" angle="90"/>
  <anchor x="674" y="1236" name="top"/>
  <outline>
    <contour>
      <point x="1316" y="1156" type="line"/>
      <point x="1316" y="-232" type="line"/>
      <point x="1351" y="-232" type="line"/>
      <point x="1351" y="1156" type="line"/>
    </contour>
    <contour>
      <point x="484" y="-513" type="curve" smooth="yes"/>
      <point x="722" y="-513"/>
      <point x="844" y="-411"/>
      <point x="885" y="-241" type="curve"/>
      <point x="886" y="-235" type="line"/>
      <point x="894" y="-192"/>
      <point x="904" y="-94"/>
      <point x="904" y="-9" type="curve"/>
      <point x="869" y="-9" type="line"/>
      <point x="869" y="-96"/>
      <point x="859" y="-193"/>
      <point x="850" y="-234" type="curve"/>
      <point x="850" y="-238" type="line"/>
      <point x="812" y="-387"/>
      <point x="708" y="-480"/>
      <point x="484" y="-480" type="curve" smooth="yes"/>
      <point x="255" y="-480"/>
      <point x="147" y="-384"/>
      <point x="117" y="-248" type="curve"/>
      <point x="1351" y="-248" type="line"/>
      <point x="1351" y="-217" type="line"/>
      <point x="74" y="-217" type="line"/>
      <point x="107" y="-413"/>
      <point x="244" y="-513"/>
    </contour>
    <component base="La.tm"/>
  </outline>
</glyph>
<glyph name="LaMatraU_Simple.tm" format="2">
  <advance width="1483"/>
  <note>
LaMatraU.tm
</note>
  <guideline x="221" y="-315" angle="90"/>
  <guideline x="543" y="-315" angle="90"/>
  <anchor x="674" y="1236" name="top"/>
  <outline>
    <contour>
      <point x="1351" y="-216" type="line"/>
      <point x="68" y="-216" type="line"/>
      <point x="74" y="-248" type="line"/>
      <point x="1351" y="-248" type="line"/>
    </contour>
    <contour>
      <point x="869" y="-7" type="line"/>
      <point x="869" y="-225" type="line"/>
      <point x="902" y="-225" type="line"/>
      <point x="902" y="-7" type="line"/>
    </contour>
    <contour>
      <point x="1316" y="1156" type="line"/>
      <point x="1316" y="-232" type="line"/>
      <point x="1351" y="-232" type="line"/>
      <point x="1351" y="1156" type="line"/>
    </contour>
    <component base="La.tm"/>
  </outline>
</glyph>
<glyph name="LlaMatraUu.tm" format="2">
  <advance width="2024"/>
  <note>
LlaMatraUu.tm
</note>
  <outline>
    <contour>
      <point x="939" y="1174" type="curve" smooth="yes"/>
      <point x="735" y="1174"/>
      <point x="630" y="1038"/>
      <point x="630" y="783" type="curve" smooth="yes"/>
      <point x="630" y="219" type="line" smooth="yes"/>
      <point x="630" y="61"/>
      <point x="689" y="-18"/>
      <point x="809" y="-18" type="curve" smooth="yes"/>
      <point x="928" y="-18"/>
      <point x="986" y="61"/>
      <point x="986" y="219" type="curve" smooth="yes"/>
      <point x="986" y="585" type="line" smooth="yes"/>
      <point x="986" y="729"/>
      <point x="928" y="802"/>
      <point x="822" y="802" type="curve" smooth="yes"/>
      <point x="742" y="802"/>
      <point x="689" y="753"/>
      <point x="665" y="687" type="curve"/>
      <point x="661" y="687" type="line"/>
      <point x="660" y="613" type="line"/>
      <point x="684" y="711"/>
      <point x="739" y="768"/>
      <point x="818" y="768" type="curve" smooth="yes"/>
      <point x="906" y="768"/>
      <point x="951" y="704"/>
      <point x="951" y="583" type="curve" smooth="yes"/>
      <point x="951" y="221" type="line" smooth="yes"/>
      <point x="951" y="79"/>
      <point x="905" y="15"/>
      <point x="809" y="15" type="curve" smooth="yes"/>
      <point x="713" y="15"/>
      <point x="665" y="79"/>
      <point x="665" y="221" type="curve"/>
      <point x="665" y="687" type="line"/>
      <point x="665" y="687" type="line"/>
      <point x="665" y="721"/>
      <point x="665" y="751"/>
      <point x="665" y="783" type="curve" smooth="yes"/>
      <point x="665" y="1013"/>
      <point x="754" y="1140"/>
      <point x="939" y="1140" type="curve" smooth="yes"/>
      <point x="1142" y="1140"/>
      <point x="1205" y="996"/>
      <point x="1205" y="743" type="curve" smooth="yes"/>
      <point x="1205" y="0" type="line"/>
      <point x="1240" y="0" type="line"/>
      <point x="1240" y="1124" type="line"/>
      <point x="1693" y="1124" type="line"/>
      <point x="1693" y="1156" type="line"/>
      <point x="1207" y="1156" type="line"/>
      <point x="1209" y="962" type="line"/>
      <point x="1207" y="962" type="line"/>
      <point x="1175" y="1100"/>
      <point x="1089" y="1174"/>
    </contour>
    <contour>
      <point x="1554" y="1148" type="line"/>
      <point x="1554" y="0" type="line"/>
      <point x="1589" y="0" type="line"/>
      <point x="1589" y="1148" type="line"/>
    </contour>
    <contour>
      <point x="1757" y="794" type="curve" smooth="yes"/>
      <point x="1665" y="794"/>
      <point x="1612" y="740"/>
      <point x="1589" y="664" type="curve"/>
      <point x="1578" y="664" type="line"/>
      <point x="1578" y="561" type="line"/>
      <point x="1583" y="561" type="line"/>
      <point x="1599" y="681"/>
      <point x="1651" y="760"/>
      <point x="1752" y="760" type="curve" smooth="yes"/>
      <point x="1863" y="760"/>
      <point x="1895" y="675"/>
      <point x="1895" y="517" type="curve" smooth="yes"/>
      <point x="1895" y="395" type="line" smooth="yes"/>
      <point x="1895" y="-161"/>
      <point x="1674" y="-391"/>
      <point x="1098" y="-391" type="curve" smooth="yes"/>
      <point x="1040" y="-391" type="line" smooth="yes"/>
      <point x="460" y="-391"/>
      <point x="159" y="-126"/>
      <point x="159" y="473" type="curve" smooth="yes"/>
      <point x="159" y="532" type="line"/>
      <point x="159" y="949" type="line"/>
      <point x="159" y="1080"/>
      <point x="202" y="1141"/>
      <point x="292" y="1141" type="curve" smooth="yes"/>
      <point x="378" y="1141"/>
      <point x="422" y="1080"/>
      <point x="422" y="949" type="curve"/>
      <point x="422" y="659" type="line" smooth="yes"/>
      <point x="422" y="533"/>
      <point x="391" y="465"/>
      <point x="294" y="465" type="curve" smooth="yes"/>
      <point x="237" y="465"/>
      <point x="183" y="496"/>
      <point x="158" y="559" type="curve"/>
      <point x="154" y="559" type="line"/>
      <point x="154" y="532" type="line"/>
      <point x="159" y="532" type="line"/>
      <point x="174" y="493" type="line"/>
      <point x="198" y="457"/>
      <point x="238" y="431"/>
      <point x="297" y="431" type="curve" smooth="yes"/>
      <point x="413" y="431"/>
      <point x="457" y="507"/>
      <point x="457" y="655" type="curve"/>
      <point x="457" y="951" type="line" smooth="yes"/>
      <point x="457" y="1100"/>
      <point x="402" y="1174"/>
      <point x="292" y="1174" type="curve" smooth="yes"/>
      <point x="178" y="1174"/>
      <point x="124" y="1100"/>
      <point x="124" y="951" type="curve" smooth="yes"/>
      <point x="124" y="473" type="line" smooth="yes"/>
      <point x="124" y="-149"/>
      <point x="445" y="-425"/>
      <point x="1040" y="-425" type="curve" smooth="yes"/>
      <point x="1098" y="-425" type="line" smooth="yes"/>
      <point x="1693" y="-425"/>
      <point x="1930" y="-182"/>
      <point x="1930" y="395" type="curve" smooth="yes"/>
      <point x="1930" y="523" type="line" smooth="yes"/>
      <point x="1930" y="703"/>
      <point x="1878" y="794"/>
    </contour>
    <component base="RaBeak_Nonexporting" xOffset="1586"/>
  </outline>
</glyph>
<glyph name="LllaMatraI_Simple_Fly.tm" format="2">
  <advance width="953"/>
  <note>
LllaMatraI.tm
</note>
  <anchor x="489" y="1236" name="top"/>
  <outline>
    <contour>
      <point x="471" y="25" type="line"/>
      <point x="471" y="-7" type="line" smooth="yes"/>
      <point x="471" y="-165"/>
      <point x="449" y="-216"/>
      <point x="313" y="-216" type="curve" smooth="yes"/>
      <point x="40" y="-216" type="line"/>
      <point x="46" y="-248" type="line"/>
      <point x="320" y="-248" type="line" smooth="yes"/>
      <point x="435" y="-248"/>
      <point x="484" y="-204"/>
      <point x="490" y="-99" type="curve"/>
      <point x="492" y="-99" type="line"/>
      <point x="501" y="-204"/>
      <point x="556" y="-248"/>
      <point x="654" y="-248" type="curve" smooth="yes"/>
      <point x="769" y="-248" type="line"/>
      <point x="775" y="-216" type="line"/>
      <point x="659" y="-216" type="line" smooth="yes"/>
      <point x="541" y="-216"/>
      <point x="506" y="-165"/>
      <point x="506" y="-7" type="curve" smooth="yes"/>
      <point x="506" y="25" type="line"/>
    </contour>
    <component base="MaMatraI_Fly.tm"/>
  </outline>
</glyph>
<glyph name="LllaMatraU_Simple.tm" format="2">
  <advance width="1272"/>
  <note>
LllaMatraU.tm
</note>
  <anchor x="808" y="1236" name="top"/>
  <outline>
    <contour>
      <point x="132" y="1156" type="line"/>
      <point x="132" y="46" type="line" smooth="yes"/>
      <point x="132" y="-253"/>
      <point x="270" y="-418"/>
      <point x="564" y="-418" type="curve" smooth="yes"/>
      <point x="746" y="-418"/>
      <point x="848" y="-361"/>
      <point x="939" y="-243" type="curve" smooth="yes"/>
      <point x="946" y="-234" type="line" smooth="yes"/>
      <point x="965" y="-209"/>
      <point x="974" y="-201"/>
      <point x="999" y="-201" type="curve" smooth="yes"/>
      <point x="1069" y="-201" type="line"/>
      <point x="1075" y="-169" type="line"/>
      <point x="970" y="-169" type="line" smooth="yes"/>
      <point x="854" y="-169"/>
      <point x="825" y="-127"/>
      <point x="825" y="-22" type="curve" smooth="yes"/>
      <point x="825" y="9" type="line"/>
      <point x="790" y="9" type="line"/>
      <point x="790" y="-24" type="line" smooth="yes"/>
      <point x="790" y="-149"/>
      <point x="843" y="-191"/>
      <point x="948" y="-195" type="curve"/>
      <point x="948" y="-197" type="line"/>
      <point x="933" y="-199"/>
      <point x="926" y="-206"/>
      <point x="909" y="-226" type="curve" smooth="yes"/>
      <point x="900" y="-237" type="line" smooth="yes"/>
      <point x="824" y="-331"/>
      <point x="738" y="-384"/>
      <point x="564" y="-384" type="curve" smooth="yes"/>
      <point x="294" y="-384"/>
      <point x="167" y="-233"/>
      <point x="167" y="46" type="curve" smooth="yes"/>
      <point x="167" y="1156" type="line"/>
    </contour>
    <component base="Ma.tm" xOffset="319"/>
  </outline>
</glyph>
<glyph name="LllaMatraUu.tm" format="2">
  <advance width="1473"/>
  <note>
LllaMatraUu.tm
</note>
  <anchor x="1009" y="1236" name="top"/>
  <outline>
    <contour>
      <point x="701" y="-381" type="curve" smooth="yes"/>
      <point x="316" y="-381"/>
      <point x="161" y="-177"/>
      <point x="161" y="217" type="curve" smooth="yes"/>
      <point x="161" y="323"/>
      <point x="161" y="426"/>
      <point x="161" y="532" type="curve"/>
      <point x="161" y="949" type="line"/>
      <point x="161" y="1080"/>
      <point x="205" y="1141"/>
      <point x="297" y="1141" type="curve" smooth="yes"/>
      <point x="385" y="1141"/>
      <point x="431" y="1080"/>
      <point x="431" y="949" type="curve"/>
      <point x="431" y="659" type="line" smooth="yes"/>
      <point x="431" y="533"/>
      <point x="400" y="465"/>
      <point x="299" y="465" type="curve" smooth="yes"/>
      <point x="240" y="465"/>
      <point x="184" y="496"/>
      <point x="159" y="559" type="curve"/>
      <point x="155" y="559" type="line"/>
      <point x="155" y="532" type="line"/>
      <point x="161" y="532" type="line"/>
      <point x="175" y="493" type="line"/>
      <point x="199" y="457"/>
      <point x="242" y="431"/>
      <point x="302" y="431" type="curve" smooth="yes"/>
      <point x="420" y="431"/>
      <point x="466" y="507"/>
      <point x="466" y="655" type="curve"/>
      <point x="466" y="951" type="line" smooth="yes"/>
      <point x="466" y="1100"/>
      <point x="409" y="1174"/>
      <point x="297" y="1174" type="curve" smooth="yes"/>
      <point x="181" y="1174"/>
      <point x="126" y="1100"/>
      <point x="126" y="951" type="curve" smooth="yes"/>
      <point x="126" y="215" type="line" smooth="yes"/>
      <point x="126" y="-193"/>
      <point x="294" y="-414"/>
      <point x="701" y="-414" type="curve" smooth="yes"/>
      <point x="896" y="-414"/>
      <point x="1025" y="-358"/>
      <point x="1135" y="-248" type="curve" smooth="yes"/>
      <point x="1149" y="-234" type="line" smooth="yes"/>
      <point x="1172" y="-211"/>
      <point x="1177" y="-201"/>
      <point x="1203" y="-201" type="curve" smooth="yes"/>
      <point x="1271" y="-201" type="line"/>
      <point x="1276" y="-169" type="line"/>
      <point x="1172" y="-169" type="line" smooth="yes"/>
      <point x="1056" y="-169"/>
      <point x="1026" y="-127"/>
      <point x="1026" y="-22" type="curve" smooth="yes"/>
      <point x="1026" y="9" type="line"/>
      <point x="991" y="9" type="line"/>
      <point x="991" y="-24" type="line" smooth="yes"/>
      <point x="991" y="-149"/>
      <point x="1048" y="-191"/>
      <point x="1153" y="-195" type="curve"/>
      <point x="1153" y="-197" type="line"/>
      <point x="1138" y="-199"/>
      <point x="1129" y="-208"/>
      <point x="1111" y="-226" type="curve" smooth="yes"/>
      <point x="1098" y="-239" type="line" smooth="yes"/>
      <point x="1014" y="-323"/>
      <point x="887" y="-381"/>
    </contour>
    <component base="Ma.tm" xOffset="520"/>
  </outline>
</glyph>
<glyph name="Llla_Simple.tm" format="2">
  <advance width="953"/>
  <note>
Llla.tm
</note>
  <anchor x="497" y="1236" name="top"/>
  <outline>
    <contour>
      <point x="471" y="25" type="line"/>
      <point x="471" y="-7" type="line" smooth="yes"/>
      <point x="471" y="-165"/>
      <point x="449" y="-216"/>
      <point x="313" y="-216" type="curve" smooth="yes"/>
      <point x="40" y="-216" type="line"/>
      <point x="46" y="-248" type="line"/>
      <point x="320" y="-248" type="line" smooth="yes"/>
      <point x="435" y="-248"/>
      <point x="484" y="-204"/>
      <point x="490" y="-99" type="curve"/>
      <point x="492" y="-99" type="line"/>
      <point x="501" y="-204"/>
      <point x="556" y="-248"/>
      <point x="654" y="-248" type="curve" smooth="yes"/>
      <point x="769" y="-248" type="line"/>
      <point x="775" y="-216" type="line"/>
      <point x="659" y="-216" type="line" smooth="yes"/>
      <point x="541" y="-216"/>
      <point x="506" y="-165"/>
      <point x="506" y="-7" type="curve" smooth="yes"/>
      <point x="506" y="25" type="line"/>
    </contour>
    <component base="Ma.tm"/>
  </outline>
</glyph>
<glyph name="MaMatraI.tm" format="2">
  <advance width="1256"/>
  <note>
MaMatraI.tm
</note>
  <anchor x="489" y="1236" name="top"/>
  <outline>
    <contour>
      <point x="894" y="1616" type="curve" smooth="yes"/>
      <point x="732" y="1616"/>
      <point x="657" y="1516"/>
      <point x="657" y="1324" type="curve" smooth="yes"/>
      <point x="657" y="1271" type="line" smooth="yes"/>
      <point x="657" y="1209"/>
      <point x="666" y="1167"/>
      <point x="693" y="1130" type="curve"/>
      <point x="729" y="1130" type="line"/>
      <point x="700" y="1169"/>
      <point x="692" y="1204"/>
      <point x="692" y="1271" type="curve" smooth="yes"/>
      <point x="692" y="1319" type="line" smooth="yes"/>
      <point x="692" y="1493"/>
      <point x="747" y="1583"/>
      <point x="894" y="1583" type="curve" smooth="yes"/>
      <point x="1038" y="1583"/>
      <point x="1089" y="1493"/>
      <point x="1089" y="1295" type="curve" smooth="yes"/>
      <point x="1089" y="0" type="line"/>
      <point x="1124" y="0" type="line"/>
      <point x="1124" y="1301" type="line" smooth="yes"/>
      <point x="1124" y="1516"/>
      <point x="1054" y="1616"/>
    </contour>
    <component base="Ma.tm"/>
  </outline>
</glyph>
<glyph name="MaMatraIi_SimpleIi.tm" format="2">
  <advance width="953"/>
  <note>
MaMatraIi.tm
</note>
  <anchor x="489" y="1236" name="top"/>
  <outline>
    <contour>
      <point x="772" y="1726" type="curve" smooth="yes"/>
      <point x="681" y="1726"/>
      <point x="631" y="1665"/>
      <point x="631" y="1561" type="curve" smooth="yes"/>
      <point x="631" y="1294" type="line" smooth="yes"/>
      <point x="631" y="1211"/>
      <point x="642" y="1168"/>
      <point x="681" y="1136" type="curve"/>
      <point x="720" y="1136" type="line"/>
      <point x="675" y="1171"/>
      <point x="665" y="1207"/>
      <point x="665" y="1294" type="curve" smooth="yes"/>
      <point x="665" y="1407" type="line"/>
      <point x="665" y="1559" type="line" smooth="yes"/>
      <point x="665" y="1647"/>
      <point x="702" y="1693"/>
      <point x="772" y="1693" type="curve" smooth="yes"/>
      <point x="844" y="1693"/>
      <point x="870" y="1647"/>
      <point x="870" y="1563" type="curve" smooth="yes"/>
      <point x="870" y="1458" type="line" smooth="yes"/>
      <point x="870" y="1381"/>
      <point x="843" y="1337"/>
      <point x="777" y="1337" type="curve" smooth="yes"/>
      <point x="720" y="1337"/>
      <point x="678" y="1372"/>
      <point x="661" y="1421" type="curve"/>
      <point x="660" y="1421" type="line"/>
      <point x="660" y="1388" type="line"/>
      <point x="663" y="1388" type="line"/>
      <point x="682" y="1351" type="line"/>
      <point x="696" y="1328"/>
      <point x="733" y="1304"/>
      <point x="781" y="1304" type="curve" smooth="yes"/>
      <point x="871" y="1304"/>
      <point x="904" y="1365"/>
      <point x="904" y="1456" type="curve" smooth="yes"/>
      <point x="904" y="1565" type="line" smooth="yes"/>
      <point x="904" y="1665"/>
      <point x="868" y="1726"/>
    </contour>
    <component base="Ma.tm"/>
  </outline>
</glyph>
<glyph name="MaMatraUu.tm" format="2">
  <advance width="1473"/>
  <note>
MaMatraUu.tm
</note>
  <anchor x="1009" y="1236" name="top"/>
  <outline>
    <contour>
      <point x="293" y="1174" type="curve" smooth="yes"/>
      <point x="179" y="1174"/>
      <point x="126" y="1100"/>
      <point x="126" y="951" type="curve" smooth="yes"/>
      <point x="126" y="160" type="line" smooth="yes"/>
      <point x="126" y="-208"/>
      <point x="275" y="-405"/>
      <point x="602" y="-405" type="curve" smooth="yes"/>
      <point x="602" y="-405" type="line" smooth="yes"/>
      <point x="892" y="-405"/>
      <point x="1022" y="-261"/>
      <point x="1026" y="24" type="curve"/>
      <point x="1026" y="28" type="line"/>
      <point x="991" y="28" type="line"/>
      <point x="991" y="24" type="line"/>
      <point x="988" y="-245"/>
      <point x="870" y="-372"/>
      <point x="602" y="-372" type="curve" smooth="yes"/>
      <point x="602" y="-372" type="line" smooth="yes"/>
      <point x="297" y="-372"/>
      <point x="161" y="-190"/>
      <point x="161" y="162" type="curve" smooth="yes"/>
      <point x="161" y="286"/>
      <point x="161" y="408"/>
      <point x="161" y="532" type="curve"/>
      <point x="161" y="949" type="line" smooth="yes"/>
      <point x="161" y="1080"/>
      <point x="203" y="1141"/>
      <point x="293" y="1141" type="curve" smooth="yes"/>
      <point x="380" y="1141"/>
      <point x="424" y="1080"/>
      <point x="424" y="949" type="curve"/>
      <point x="424" y="659" type="line" smooth="yes"/>
      <point x="424" y="533"/>
      <point x="392" y="465"/>
      <point x="295" y="465" type="curve" smooth="yes"/>
      <point x="238" y="465"/>
      <point x="184" y="496"/>
      <point x="159" y="559" type="curve"/>
      <point x="155" y="559" type="line"/>
      <point x="155" y="532" type="line"/>
      <point x="161" y="532" type="line"/>
      <point x="175" y="493" type="line"/>
      <point x="199" y="457"/>
      <point x="240" y="431"/>
      <point x="299" y="431" type="curve" smooth="yes"/>
      <point x="414" y="431"/>
      <point x="459" y="507"/>
      <point x="459" y="655" type="curve"/>
      <point x="459" y="951" type="line" smooth="yes"/>
      <point x="459" y="1100"/>
      <point x="403" y="1174"/>
    </contour>
    <component base="Ma.tm" xOffset="520"/>
  </outline>
</glyph>
<glyph name="MatraAa_dummy.tm" format="2">
  <advance width="677"/>
  <note>
RaAltMatraAa.tm
</note>
  <outline>
    <contour>
      <point x="488" y="1133" type="line"/>
      <point x="488" y="0" type="line"/>
      <point x="523" y="0" type="line"/>
      <point x="523" y="1133" type="line"/>
    </contour>
    <contour>
      <point x="517" y="1156" type="line"/>
      <point x="132" y="1156" type="line"/>
      <point x="132" y="0" type="line"/>
      <point x="167" y="0" type="line"/>
      <point x="167" y="1124" type="line"/>
      <point x="517" y="1124" type="line"/>
    </contour>
    <component base="RaBeak_Nonexporting" xOffset="427"/>
  </outline>
</glyph>
<glyph name="MatraAiComponent_Nonexporting" format="2">
  <advance width="852"/>
  <outline>
    <contour>
      <point x="383" y="1482" type="curve" smooth="yes"/>
      <point x="171" y="1482"/>
      <point x="103" y="1373"/>
      <point x="103" y="1169" type="curve" smooth="yes"/>
      <point x="103" y="953" type="line" smooth="yes"/>
      <point x="103" y="819"/>
      <point x="156" y="755"/>
      <point x="259" y="755" type="curve" smooth="yes"/>
      <point x="362" y="755"/>
      <point x="418" y="821"/>
      <point x="418" y="955" type="curve" smooth="yes"/>
      <point x="418" y="1208" type="line" smooth="yes"/>
      <point x="418" y="1338"/>
      <point x="400" y="1406"/>
      <point x="372" y="1451" type="curve"/>
      <point x="372" y="1458" type="line"/>
      <point x="333" y="1458" type="line"/>
      <point x="371" y="1410"/>
      <point x="384" y="1335"/>
      <point x="384" y="1210" type="curve" smooth="yes"/>
      <point x="384" y="957" type="line" smooth="yes"/>
      <point x="384" y="841"/>
      <point x="340" y="788"/>
      <point x="259" y="788" type="curve" smooth="yes"/>
      <point x="179" y="788"/>
      <point x="137" y="841"/>
      <point x="137" y="957" type="curve" smooth="yes"/>
      <point x="137" y="1165" type="line" smooth="yes"/>
      <point x="137" y="1351"/>
      <point x="194" y="1443"/>
      <point x="357" y="1451" type="curve"/>
      <point x="362" y="1451"/>
      <point x="367" y="1451"/>
      <point x="372" y="1451" type="curve"/>
      <point x="372" y="1451" type="line"/>
      <point x="573" y="1451"/>
      <point x="642" y="1379"/>
      <point x="642" y="1132" type="curve" smooth="yes"/>
      <point x="642" y="904" type="line" smooth="yes"/>
      <point x="642" y="704"/>
      <point x="576" y="637"/>
      <point x="400" y="549" type="curve" smooth="yes"/>
      <point x="324" y="511" type="line" smooth="yes"/>
      <point x="185" y="441"/>
      <point x="106" y="387"/>
      <point x="106" y="241" type="curve" smooth="yes"/>
      <point x="106" y="208" type="line" smooth="yes"/>
      <point x="106" y="59"/>
      <point x="189" y="-22"/>
      <point x="383" y="-22" type="curve" smooth="yes"/>
      <point x="556" y="-22"/>
      <point x="713" y="41"/>
      <point x="852" y="112" type="curve"/>
      <point x="852" y="150" type="line"/>
      <point x="709" y="76"/>
      <point x="549" y="11"/>
      <point x="383" y="11" type="curve" smooth="yes"/>
      <point x="211" y="11"/>
      <point x="141" y="77"/>
      <point x="141" y="213" type="curve" smooth="yes"/>
      <point x="141" y="241" type="line" smooth="yes"/>
      <point x="141" y="374"/>
      <point x="217" y="418"/>
      <point x="344" y="483" type="curve" smooth="yes"/>
      <point x="420" y="522" type="line" smooth="yes"/>
      <point x="603" y="616"/>
      <point x="677" y="687"/>
      <point x="677" y="904" type="curve" smooth="yes"/>
      <point x="677" y="1136" type="line" smooth="yes"/>
      <point x="677" y="1370"/>
      <point x="611" y="1482"/>
    </contour>
  </outline>
</glyph>
<glyph name="MatraEe_Fused.tm" format="2">
  <advance width="725"/>
  <note>
MatraEe.tm
</note>
  <outline>
    <contour>
      <point x="396" y="1384" type="curve" smooth="yes"/>
      <point x="193" y="1384"/>
      <point x="120" y="1267"/>
      <point x="120" y="1048" type="curve" smooth="yes"/>
      <point x="120" y="318" type="line"/>
      <point x="120" y="99"/>
      <point x="193" y="-18"/>
      <point x="396" y="-18" type="curve" smooth="yes"/>
      <point x="574" y="-18"/>
      <point x="629" y="92"/>
      <point x="629" y="293" type="curve" smooth="yes"/>
      <point x="629" y="494" type="line" smooth="yes"/>
      <point x="629" y="623"/>
      <point x="580" y="688"/>
      <point x="482" y="688" type="curve"/>
      <point x="479" y="688" type="line"/>
      <point x="381" y="688"/>
      <point x="330" y="622"/>
      <point x="330" y="492" type="curve"/>
      <point x="330" y="212" type="line" smooth="yes"/>
      <point x="330" y="115"/>
      <point x="350" y="55"/>
      <point x="383" y="13" type="curve"/>
      <point x="383" y="6" type="line"/>
      <point x="427" y="6" type="line"/>
      <point x="383" y="52"/>
      <point x="364" y="121"/>
      <point x="364" y="210" type="curve" smooth="yes"/>
      <point x="364" y="490" type="line" smooth="yes"/>
      <point x="364" y="606"/>
      <point x="405" y="661"/>
      <point x="480" y="661" type="curve" smooth="yes"/>
      <point x="556" y="661"/>
      <point x="594" y="606"/>
      <point x="594" y="490" type="curve" smooth="yes"/>
      <point x="594" y="296" type="line" smooth="yes"/>
      <point x="594" y="114"/>
      <point x="552" y="13"/>
      <point x="399" y="13" type="curve" smooth="yes"/>
      <point x="396" y="13"/>
      <point x="396" y="13"/>
      <point x="392" y="13" type="curve"/>
      <point x="383" y="13" type="line"/>
      <point x="210" y="20"/>
      <point x="155" y="131"/>
      <point x="155" y="322" type="curve"/>
      <point x="155" y="1044" type="line" smooth="yes"/>
      <point x="155" y="1235"/>
      <point x="210" y="1346"/>
      <point x="383" y="1353" type="curve"/>
      <point x="392" y="1353" type="line"/>
      <point x="396" y="1353"/>
      <point x="396" y="1353"/>
      <point x="399" y="1353" type="curve" smooth="yes"/>
      <point x="552" y="1353"/>
      <point x="594" y="1252"/>
      <point x="594" y="1070" type="curve" smooth="yes"/>
      <point x="594" y="876" type="line" smooth="yes"/>
      <point x="594" y="760"/>
      <point x="556" y="705"/>
      <point x="480" y="705" type="curve" smooth="yes"/>
      <point x="405" y="705"/>
      <point x="364" y="760"/>
      <point x="364" y="876" type="curve" smooth="yes"/>
      <point x="364" y="1156" type="line" smooth="yes"/>
      <point x="364" y="1245"/>
      <point x="383" y="1314"/>
      <point x="427" y="1360" type="curve"/>
      <point x="383" y="1360" type="line"/>
      <point x="383" y="1353" type="line"/>
      <point x="350" y="1311"/>
      <point x="330" y="1251"/>
      <point x="330" y="1154" type="curve" smooth="yes"/>
      <point x="330" y="874" type="line"/>
      <point x="330" y="743"/>
      <point x="381" y="677"/>
      <point x="479" y="677" type="curve"/>
      <point x="482" y="677" type="line"/>
      <point x="580" y="677"/>
      <point x="629" y="742"/>
      <point x="629" y="872" type="curve" smooth="yes"/>
      <point x="629" y="1073" type="line" smooth="yes"/>
      <point x="629" y="1274"/>
      <point x="574" y="1384"/>
    </contour>
  </outline>
</glyph>
<glyph name="MatraIiDflt_SimpleIi.tm" format="2">
  <note>
MatraIiDflt.tm
</note>
  <outline>
    <contour>
      <point x="141" y="1726" type="curve" smooth="yes"/>
      <point x="50" y="1726"/>
      <point x="0" y="1665"/>
      <point x="0" y="1561" type="curve" smooth="yes"/>
      <point x="0" y="1315" type="line" smooth="yes"/>
      <point x="0" y="1236"/>
      <point x="9" y="1186"/>
      <point x="41" y="1154" type="curve"/>
      <point x="82" y="1154" type="line"/>
      <point x="43" y="1189"/>
      <point x="34" y="1229"/>
      <point x="34" y="1315" type="curve" smooth="yes"/>
      <point x="34" y="1407" type="line"/>
      <point x="34" y="1559" type="line" smooth="yes"/>
      <point x="34" y="1647"/>
      <point x="71" y="1693"/>
      <point x="141" y="1693" type="curve" smooth="yes"/>
      <point x="213" y="1693"/>
      <point x="239" y="1647"/>
      <point x="239" y="1563" type="curve" smooth="yes"/>
      <point x="239" y="1458" type="line" smooth="yes"/>
      <point x="239" y="1381"/>
      <point x="212" y="1337"/>
      <point x="146" y="1337" type="curve" smooth="yes"/>
      <point x="89" y="1337"/>
      <point x="47" y="1372"/>
      <point x="30" y="1421" type="curve"/>
      <point x="29" y="1421" type="line"/>
      <point x="29" y="1388" type="line"/>
      <point x="32" y="1388" type="line"/>
      <point x="51" y="1351" type="line"/>
      <point x="65" y="1328"/>
      <point x="102" y="1304"/>
      <point x="150" y="1304" type="curve" smooth="yes"/>
      <point x="240" y="1304"/>
      <point x="273" y="1365"/>
      <point x="273" y="1456" type="curve" smooth="yes"/>
      <point x="273" y="1565" type="line" smooth="yes"/>
      <point x="273" y="1665"/>
      <point x="237" y="1726"/>
    </contour>
  </outline>
</glyph>
<glyph name="NaMatraI_Simple.tm" format="2">
  <advance width="979"/>
  <note>
NaMatraI.tm
</note>
  <outline>
    <contour>
      <point x="485" y="1139" type="line"/>
      <point x="485" y="0" type="line"/>
      <point x="520" y="0" type="line"/>
      <point x="520" y="1139" type="line"/>
    </contour>
    <contour>
      <point x="689" y="794" type="curve" smooth="yes"/>
      <point x="596" y="794"/>
      <point x="542" y="740"/>
      <point x="520" y="664" type="curve"/>
      <point x="509" y="664" type="line"/>
      <point x="509" y="561" type="line"/>
      <point x="515" y="561" type="line"/>
      <point x="531" y="681"/>
      <point x="583" y="760"/>
      <point x="684" y="760" type="curve" smooth="yes"/>
      <point x="798" y="760"/>
      <point x="832" y="675"/>
      <point x="832" y="518" type="curve" smooth="yes"/>
      <point x="832" y="237" type="line" smooth="yes"/>
      <point x="832" y="-117"/>
      <point x="739" y="-216"/>
      <point x="424" y="-216" type="curve" smooth="yes"/>
      <point x="40" y="-216" type="line"/>
      <point x="46" y="-248" type="line"/>
      <point x="426" y="-248" type="line" smooth="yes"/>
      <point x="761" y="-248"/>
      <point x="867" y="-134"/>
      <point x="867" y="234" type="curve" smooth="yes"/>
      <point x="867" y="523" type="line" smooth="yes"/>
      <point x="867" y="703"/>
      <point x="814" y="794"/>
    </contour>
    <contour>
      <point x="602" y="1156" type="line"/>
      <point x="132" y="1156" type="line"/>
      <point x="132" y="0" type="line"/>
      <point x="167" y="0" type="line"/>
      <point x="167" y="1124" type="line"/>
      <point x="602" y="1124" type="line"/>
    </contour>
    <contour>
      <point x="659" y="1616" type="curve" smooth="yes"/>
      <point x="510" y="1616"/>
      <point x="445" y="1532"/>
      <point x="445" y="1344" type="curve"/>
      <point x="445" y="1315" type="line" smooth="yes"/>
      <point x="445" y="1244"/>
      <point x="453" y="1196"/>
      <point x="480" y="1154" type="curve"/>
      <point x="517" y="1154" type="line"/>
      <point x="487" y="1199"/>
      <point x="480" y="1239"/>
      <point x="480" y="1315" type="curve" smooth="yes"/>
      <point x="480" y="1339" type="line"/>
      <point x="480" y="1509"/>
      <point x="526" y="1583"/>
      <point x="659" y="1583" type="curve" smooth="yes"/>
      <point x="787" y="1583"/>
      <point x="832" y="1509"/>
      <point x="832" y="1339" type="curve" smooth="yes"/>
      <point x="832" y="849" type="line"/>
      <point x="867" y="849" type="line"/>
      <point x="867" y="1344" type="line" smooth="yes"/>
      <point x="867" y="1532"/>
      <point x="805" y="1616"/>
    </contour>
    <component base="RaBeak_Nonexporting" xOffset="484"/>
  </outline>
</glyph>
<glyph name="NaMatraU.tm" format="2">
  <advance width="1280"/>
  <note>
NaMatraU.tm
</note>
  <outline>
    <contour>
      <point x="485" y="1139" type="line"/>
      <point x="485" y="0" type="line"/>
      <point x="520" y="0" type="line"/>
      <point x="520" y="1139" type="line"/>
    </contour>
    <contour>
      <point x="686" y="794" type="curve" smooth="yes"/>
      <point x="594" y="794"/>
      <point x="541" y="740"/>
      <point x="519" y="664" type="curve"/>
      <point x="508" y="664" type="line"/>
      <point x="508" y="561" type="line"/>
      <point x="514" y="561" type="line"/>
      <point x="530" y="681"/>
      <point x="581" y="760"/>
      <point x="681" y="760" type="curve" smooth="yes"/>
      <point x="793" y="760"/>
      <point x="825" y="675"/>
      <point x="825" y="517" type="curve" smooth="yes"/>
      <point x="825" y="212" type="line" smooth="yes"/>
      <point x="825" y="9"/>
      <point x="810" y="-156"/>
      <point x="794" y="-232" type="curve"/>
      <point x="794" y="-239" type="line"/>
      <point x="758" y="-383"/>
      <point x="657" y="-475"/>
      <point x="438" y="-475" type="curve" smooth="yes"/>
      <point x="216" y="-475"/>
      <point x="113" y="-381"/>
      <point x="82" y="-248" type="curve"/>
      <point x="1148" y="-248" type="line"/>
      <point x="1148" y="-216" type="line"/>
      <point x="40" y="-216" type="line"/>
      <point x="72" y="-410"/>
      <point x="205" y="-508"/>
      <point x="438" y="-508" type="curve" smooth="yes"/>
      <point x="671" y="-508"/>
      <point x="789" y="-407"/>
      <point x="831" y="-241" type="curve"/>
      <point x="831" y="-236" type="line"/>
      <point x="847" y="-158"/>
      <point x="860" y="7"/>
      <point x="860" y="210" type="curve" smooth="yes"/>
      <point x="860" y="523" type="line" smooth="yes"/>
      <point x="860" y="703"/>
      <point x="808" y="794"/>
    </contour>
    <contour>
      <point x="1113" y="1156" type="line"/>
      <point x="1113" y="-232" type="line"/>
      <point x="1148" y="-232" type="line"/>
      <point x="1148" y="1156" type="line"/>
    </contour>
    <contour>
      <point x="624" y="1156" type="line"/>
      <point x="132" y="1156" type="line"/>
      <point x="132" y="0" type="line"/>
      <point x="167" y="0" type="line"/>
      <point x="167" y="1124" type="line"/>
      <point x="624" y="1124" type="line"/>
    </contour>
    <component base="RaBeak_Nonexporting" xOffset="517"/>
  </outline>
</glyph>
<glyph name="NgaMatraI_Fly.tm" format="2">
  <advance width="1242"/>
  <outline>
    <contour>
      <point x="488" y="1139" type="line"/>
      <point x="488" y="0" type="line"/>
      <point x="523" y="0" type="line"/>
      <point x="523" y="1139" type="line"/>
    </contour>
    <contour>
      <point x="1075" y="1156" type="line"/>
      <point x="1075" y="0" type="line"/>
      <point x="1110" y="0" type="line"/>
      <point x="1110" y="1156" type="line"/>
    </contour>
    <contour>
      <point x="566" y="1156" type="line"/>
      <point x="132" y="1156" type="line"/>
      <point x="132" y="0" type="line"/>
      <point x="167" y="0" type="line"/>
      <point x="167" y="1124" type="line"/>
      <point x="566" y="1124" type="line"/>
    </contour>
    <contour>
      <point x="1192" y="1459" type="line"/>
      <point x="1012" y="1459" type="line" smooth="yes"/>
      <point x="889" y="1459"/>
      <point x="852" y="1406"/>
      <point x="852" y="1319" type="curve" smooth="yes"/>
      <point x="852" y="1249"/>
      <point x="878" y="1124"/>
      <point x="892" y="1067" type="curve" smooth="yes"/>
      <point x="916" y="972"/>
      <point x="941" y="953"/>
      <point x="1021" y="953" type="curve" smooth="yes"/>
      <point x="1076" y="953" type="line"/>
      <point x="1076" y="984" type="line"/>
      <point x="1021" y="984" type="line" smooth="yes"/>
      <point x="958" y="984"/>
      <point x="942" y="998"/>
      <point x="923" y="1080" type="curve" smooth="yes"/>
      <point x="911" y="1133"/>
      <point x="887" y="1255"/>
      <point x="887" y="1319" type="curve" smooth="yes"/>
      <point x="887" y="1384"/>
      <point x="908" y="1426"/>
      <point x="1012" y="1426" type="curve" smooth="yes"/>
      <point x="1198" y="1426" type="line"/>
    </contour>
    <contour>
      <point x="680" y="802" type="curve" smooth="yes"/>
      <point x="603" y="802"/>
      <point x="544" y="754"/>
      <point x="523" y="682" type="curve"/>
      <point x="516" y="682" type="line"/>
      <point x="516" y="611" type="line"/>
      <point x="520" y="611" type="line"/>
      <point x="542" y="712"/>
      <point x="597" y="768"/>
      <point x="677" y="768" type="curve" smooth="yes"/>
      <point x="765" y="768"/>
      <point x="808" y="705"/>
      <point x="808" y="583" type="curve" smooth="yes"/>
      <point x="808" y="333" type="line" smooth="yes"/>
      <point x="808" y="175"/>
      <point x="784" y="99"/>
      <point x="729" y="6" type="curve"/>
      <point x="729" y="0" type="line"/>
      <point x="1102" y="0" type="line"/>
      <point x="1102" y="32" type="line"/>
      <point x="765" y="32" type="line"/>
      <point x="769" y="11" type="line"/>
      <point x="822" y="98"/>
      <point x="843" y="175"/>
      <point x="843" y="331" type="curve" smooth="yes"/>
      <point x="843" y="585" type="line" smooth="yes"/>
      <point x="843" y="730"/>
      <point x="787" y="802"/>
    </contour>
    <component base="RaBeak_Nonexporting" xOffset="473"/>
  </outline>
</glyph>
<glyph name="NgaMatraI_SimpleFly.tm" format="2">
  <advance width="1242"/>
  <note>
NgaMatraI.tm
</note>
  <outline>
    <contour>
      <point x="1214" y="1459" type="line"/>
      <point x="1036" y="1459" type="line" smooth="yes"/>
      <point x="915" y="1459"/>
      <point x="878" y="1409"/>
      <point x="878" y="1328" type="curve" smooth="yes"/>
      <point x="878" y="1297"/>
      <point x="887" y="1248"/>
      <point x="900" y="1205" type="curve" smooth="yes"/>
      <point x="918" y="1142"/>
      <point x="935" y="1124"/>
      <point x="1019" y="1124" type="curve" smooth="yes"/>
      <point x="1078" y="1124" type="line"/>
      <point x="1078" y="1156" type="line"/>
      <point x="1019" y="1156" type="line" smooth="yes"/>
      <point x="959" y="1156"/>
      <point x="948" y="1163"/>
      <point x="933" y="1214" type="curve" smooth="yes"/>
      <point x="922" y="1251"/>
      <point x="913" y="1299"/>
      <point x="913" y="1323" type="curve" smooth="yes"/>
      <point x="913" y="1385"/>
      <point x="933" y="1426"/>
      <point x="1036" y="1426" type="curve" smooth="yes"/>
      <point x="1220" y="1426" type="line"/>
    </contour>
    <contour>
      <point x="488" y="1139" type="line"/>
      <point x="488" y="0" type="line"/>
      <point x="523" y="0" type="line"/>
      <point x="523" y="1139" type="line"/>
    </contour>
    <contour>
      <point x="680" y="802" type="curve" smooth="yes"/>
      <point x="603" y="802"/>
      <point x="544" y="754"/>
      <point x="523" y="682" type="curve"/>
      <point x="516" y="664" type="line"/>
      <point x="516" y="592" type="line"/>
      <point x="520" y="611" type="line"/>
      <point x="542" y="712"/>
      <point x="597" y="768"/>
      <point x="677" y="768" type="curve" smooth="yes"/>
      <point x="765" y="768"/>
      <point x="808" y="705"/>
      <point x="808" y="583" type="curve" smooth="yes"/>
      <point x="808" y="333" type="line" smooth="yes"/>
      <point x="808" y="175"/>
      <point x="784" y="99"/>
      <point x="729" y="6" type="curve"/>
      <point x="729" y="0" type="line"/>
      <point x="1097" y="0" type="line"/>
      <point x="1097" y="32" type="line"/>
      <point x="765" y="32" type="line"/>
      <point x="769" y="11" type="line"/>
      <point x="822" y="98"/>
      <point x="843" y="175"/>
      <point x="843" y="331" type="curve" smooth="yes"/>
      <point x="843" y="585" type="line" smooth="yes"/>
      <point x="843" y="730"/>
      <point x="787" y="802"/>
    </contour>
    <contour>
      <point x="1075" y="1156" type="line"/>
      <point x="1075" y="0" type="line"/>
      <point x="1110" y="0" type="line"/>
      <point x="1110" y="1156" type="line"/>
    </contour>
    <contour>
      <point x="604" y="1156" type="line"/>
      <point x="132" y="1156" type="line"/>
      <point x="132" y="0" type="line"/>
      <point x="167" y="0" type="line"/>
      <point x="167" y="1124" type="line"/>
      <point x="604" y="1124" type="line"/>
    </contour>
    <component base="RaBeak_Nonexporting" xOffset="519"/>
  </outline>
</glyph>
<glyph name="NgaMatraI_SimpleI.tm" format="2">
  <advance width="1545"/>
  <note>
NgaMatraI.tm
</note>
  <outline>
    <contour>
      <point x="488" y="1139" type="line"/>
      <point x="488" y="0" type="line"/>
      <point x="523" y="0" type="line"/>
      <point x="523" y="1139" type="line"/>
    </contour>
    <contour>
      <point x="680" y="802" type="curve" smooth="yes"/>
      <point x="603" y="802"/>
      <point x="544" y="754"/>
      <point x="523" y="682" type="curve"/>
      <point x="516" y="682" type="line"/>
      <point x="516" y="611" type="line"/>
      <point x="520" y="611" type="line"/>
      <point x="542" y="712"/>
      <point x="597" y="768"/>
      <point x="677" y="768" type="curve" smooth="yes"/>
      <point x="765" y="768"/>
      <point x="808" y="705"/>
      <point x="808" y="583" type="curve" smooth="yes"/>
      <point x="808" y="333" type="line" smooth="yes"/>
      <point x="808" y="175"/>
      <point x="784" y="99"/>
      <point x="729" y="6" type="curve"/>
      <point x="729" y="0" type="line"/>
      <point x="1097" y="0" type="line"/>
      <point x="1097" y="32" type="line"/>
      <point x="765" y="32" type="line"/>
      <point x="769" y="11" type="line"/>
      <point x="822" y="98"/>
      <point x="843" y="175"/>
      <point x="843" y="331" type="curve" smooth="yes"/>
      <point x="843" y="585" type="line" smooth="yes"/>
      <point x="843" y="730"/>
      <point x="787" y="802"/>
    </contour>
    <contour>
      <point x="1075" y="1156" type="line"/>
      <point x="1075" y="0" type="line"/>
      <point x="1110" y="0" type="line"/>
      <point x="1110" y="1156" type="line"/>
    </contour>
    <contour>
      <point x="659" y="1156" type="line"/>
      <point x="132" y="1156" type="line"/>
      <point x="132" y="0" type="line"/>
      <point x="167" y="0" type="line"/>
      <point x="167" y="1124" type="line"/>
      <point x="659" y="1124" type="line"/>
    </contour>
    <contour>
      <point x="1175" y="1616" type="curve" smooth="yes"/>
      <point x="1009" y="1616"/>
      <point x="927" y="1519"/>
      <point x="927" y="1370" type="curve" smooth="yes"/>
      <point x="927" y="1334" type="line" smooth="yes"/>
      <point x="927" y="1198"/>
      <point x="979" y="1128"/>
      <point x="1095" y="1124" type="curve"/>
      <point x="1104" y="1156" type="line"/>
      <point x="1007" y="1156"/>
      <point x="962" y="1214"/>
      <point x="962" y="1334" type="curve" smooth="yes"/>
      <point x="962" y="1370" type="line" smooth="yes"/>
      <point x="962" y="1497"/>
      <point x="1024" y="1583"/>
      <point x="1175" y="1583" type="curve" smooth="yes"/>
      <point x="1326" y="1583"/>
      <point x="1378" y="1495"/>
      <point x="1378" y="1320" type="curve" smooth="yes"/>
      <point x="1378" y="0" type="line"/>
      <point x="1413" y="0" type="line"/>
      <point x="1413" y="1326" type="line" smooth="yes"/>
      <point x="1413" y="1521"/>
      <point x="1342" y="1616"/>
    </contour>
    <component base="RaBeak_Nonexporting" xOffset="536"/>
  </outline>
</glyph>
<glyph name="NgaMatraIi.tm" format="2">
  <advance width="1248"/>
  <note>
NgaMatraIi.tm
</note>
  <outline>
    <contour>
      <point x="488" y="1139" type="line"/>
      <point x="488" y="0" type="line"/>
      <point x="523" y="0" type="line"/>
      <point x="523" y="1139" type="line"/>
    </contour>
    <contour>
      <point x="680" y="802" type="curve" smooth="yes"/>
      <point x="603" y="802"/>
      <point x="544" y="754"/>
      <point x="523" y="682" type="curve"/>
      <point x="516" y="682" type="line"/>
      <point x="516" y="611" type="line"/>
      <point x="520" y="611" type="line"/>
      <point x="542" y="712"/>
      <point x="597" y="768"/>
      <point x="677" y="768" type="curve" smooth="yes"/>
      <point x="765" y="768"/>
      <point x="808" y="705"/>
      <point x="808" y="583" type="curve" smooth="yes"/>
      <point x="808" y="333" type="line" smooth="yes"/>
      <point x="808" y="175"/>
      <point x="784" y="99"/>
      <point x="729" y="6" type="curve"/>
      <point x="729" y="0" type="line"/>
      <point x="1097" y="0" type="line"/>
      <point x="1097" y="32" type="line"/>
      <point x="765" y="32" type="line"/>
      <point x="769" y="11" type="line"/>
      <point x="822" y="98"/>
      <point x="843" y="175"/>
      <point x="843" y="331" type="curve" smooth="yes"/>
      <point x="843" y="585" type="line" smooth="yes"/>
      <point x="843" y="730"/>
      <point x="787" y="802"/>
    </contour>
    <contour>
      <point x="1081" y="1156" type="line"/>
      <point x="1081" y="0" type="line"/>
      <point x="1116" y="0" type="line"/>
      <point x="1116" y="1156" type="line"/>
    </contour>
    <contour>
      <point x="618" y="1156" type="line"/>
      <point x="132" y="1156" type="line"/>
      <point x="132" y="0" type="line"/>
      <point x="167" y="0" type="line"/>
      <point x="167" y="1124" type="line"/>
      <point x="618" y="1124" type="line"/>
    </contour>
    <contour>
      <point x="1142" y="1726" type="curve" smooth="yes"/>
      <point x="945" y="1726"/>
      <point x="861" y="1604"/>
      <point x="861" y="1363" type="curve" smooth="yes"/>
      <point x="861" y="1150" type="line" smooth="yes"/>
      <point x="861" y="948"/>
      <point x="922" y="835"/>
      <point x="1083" y="801" type="curve"/>
      <point x="1083" y="834" type="line"/>
      <point x="936" y="870"/>
      <point x="896" y="973"/>
      <point x="896" y="1150" type="curve" smooth="yes"/>
      <point x="896" y="1360" type="line" smooth="yes"/>
      <point x="896" y="1583"/>
      <point x="964" y="1695"/>
      <point x="1140" y="1695" type="curve" smooth="yes"/>
      <point x="1144" y="1695" type="line"/>
      <point x="1148" y="1695"/>
      <point x="1148" y="1695"/>
      <point x="1149" y="1695" type="curve" smooth="yes"/>
      <point x="1279" y="1695"/>
      <point x="1320" y="1619"/>
      <point x="1320" y="1472" type="curve" smooth="yes"/>
      <point x="1320" y="1426" type="line" smooth="yes"/>
      <point x="1320" y="1335"/>
      <point x="1287" y="1293"/>
      <point x="1223" y="1293" type="curve" smooth="yes"/>
      <point x="1159" y="1293"/>
      <point x="1125" y="1335"/>
      <point x="1125" y="1426" type="curve" smooth="yes"/>
      <point x="1125" y="1516" type="line" smooth="yes"/>
      <point x="1125" y="1610"/>
      <point x="1141" y="1665"/>
      <point x="1186" y="1702" type="curve"/>
      <point x="1140" y="1702" type="line"/>
      <point x="1140" y="1695" type="line"/>
      <point x="1109" y="1661"/>
      <point x="1091" y="1609"/>
      <point x="1091" y="1514" type="curve" smooth="yes"/>
      <point x="1091" y="1424" type="line" smooth="yes"/>
      <point x="1091" y="1316"/>
      <point x="1137" y="1260"/>
      <point x="1223" y="1260" type="curve" smooth="yes"/>
      <point x="1310" y="1260"/>
      <point x="1354" y="1314"/>
      <point x="1354" y="1422" type="curve" smooth="yes"/>
      <point x="1354" y="1476" type="line" smooth="yes"/>
      <point x="1354" y="1638"/>
      <point x="1302" y="1726"/>
    </contour>
    <component base="RaBeak_Nonexporting" xOffset="462"/>
  </outline>
</glyph>
<glyph name="NgaMatraUu_SimpleUu.tm" format="2">
  <advance width="1397"/>
  <note>
NgaMatraUu.tm
</note>
  <anchor x="656" y="1236" name="top"/>
  <outline>
    <contour>
      <point x="1075" y="118" type="line"/>
      <point x="1075" y="-287" type="line"/>
      <point x="1110" y="-287" type="line"/>
      <point x="1110" y="118" type="line"/>
    </contour>
    <contour>
      <point x="1244" y="178" type="curve" smooth="yes"/>
      <point x="1170" y="178"/>
      <point x="1128" y="128"/>
      <point x="1110" y="75" type="curve"/>
      <point x="1099" y="75" type="line"/>
      <point x="1099" y="-26" type="line"/>
      <point x="1104" y="-26" type="line"/>
      <point x="1119" y="77"/>
      <point x="1161" y="145"/>
      <point x="1242" y="145" type="curve" smooth="yes"/>
      <point x="1327" y="145"/>
      <point x="1352" y="79"/>
      <point x="1352" y="-42" type="curve" smooth="yes"/>
      <point x="1352" y="-186" type="line" smooth="yes"/>
      <point x="1352" y="-404"/>
      <point x="1273" y="-493"/>
      <point x="1115" y="-493" type="curve" smooth="yes"/>
      <point x="957" y="-493"/>
      <point x="878" y="-404"/>
      <point x="878" y="-186" type="curve"/>
      <point x="878" y="-96" type="line"/>
      <point x="843" y="-103" type="line"/>
      <point x="843" y="-186" type="line" smooth="yes"/>
      <point x="843" y="-423"/>
      <point x="933" y="-526"/>
      <point x="1115" y="-526" type="curve" smooth="yes"/>
      <point x="1297" y="-526"/>
      <point x="1387" y="-423"/>
      <point x="1387" y="-186" type="curve" smooth="yes"/>
      <point x="1387" y="-37" type="line" smooth="yes"/>
      <point x="1387" y="106"/>
      <point x="1343" y="178"/>
    </contour>
    <component base="Nga.tm"/>
  </outline>
</glyph>
<glyph name="NnaMatraAa.tm" format="2">
  <advance width="2338"/>
  <outline>
    <contour>
      <point x="1431" y="1178" type="curve" smooth="yes"/>
      <point x="1307" y="1178"/>
      <point x="1204" y="1152"/>
      <point x="1131" y="1106" type="curve"/>
      <point x="1157" y="1086" type="line"/>
      <point x="1220" y="1124"/>
      <point x="1316" y="1146"/>
      <point x="1431" y="1146" type="curve" smooth="yes"/>
      <point x="1555" y="1146"/>
      <point x="1642" y="1124"/>
      <point x="1687" y="1097" type="curve"/>
      <point x="1694" y="1093" type="line"/>
      <point x="1814" y="1008"/>
      <point x="1845" y="868"/>
      <point x="1845" y="622" type="curve" smooth="yes"/>
      <point x="1845" y="223" type="line" smooth="yes"/>
      <point x="1845" y="79"/>
      <point x="1797" y="15"/>
      <point x="1699" y="15" type="curve" smooth="yes"/>
      <point x="1601" y="15"/>
      <point x="1551" y="79"/>
      <point x="1551" y="223" type="curve" smooth="yes"/>
      <point x="1551" y="622" type="line" smooth="yes"/>
      <point x="1551" y="867"/>
      <point x="1588" y="1006"/>
      <point x="1713" y="1093" type="curve"/>
      <point x="1687" y="1113" type="line"/>
      <point x="1562" y="1025"/>
      <point x="1516" y="880"/>
      <point x="1516" y="627" type="curve" smooth="yes"/>
      <point x="1516" y="221" type="line" smooth="yes"/>
      <point x="1516" y="61"/>
      <point x="1577" y="-18"/>
      <point x="1699" y="-18" type="curve" smooth="yes"/>
      <point x="1821" y="-18"/>
      <point x="1880" y="61"/>
      <point x="1880" y="221" type="curve" smooth="yes"/>
      <point x="1880" y="627" type="line" smooth="yes"/>
      <point x="1880" y="878"/>
      <point x="1840" y="1025"/>
      <point x="1726" y="1108" type="curve"/>
      <point x="1724" y="1110" type="line"/>
      <point x="1662" y="1152"/>
      <point x="1566" y="1178"/>
    </contour>
    <contour>
      <point x="1933" y="1178" type="curve" smooth="yes"/>
      <point x="1835" y="1178"/>
      <point x="1750" y="1152"/>
      <point x="1691" y="1115" type="curve"/>
      <point x="1716" y="1095" type="line"/>
      <point x="1767" y="1123"/>
      <point x="1842" y="1145"/>
      <point x="1933" y="1145" type="curve" smooth="yes"/>
      <point x="2113" y="1145"/>
      <point x="2186" y="1057"/>
      <point x="2186" y="881" type="curve" smooth="yes"/>
      <point x="2186" y="815" type="line" smooth="yes"/>
      <point x="2186" y="679"/>
      <point x="2147" y="611"/>
      <point x="2030" y="607" type="curve" smooth="yes"/>
      <point x="1964" y="605" type="line"/>
      <point x="1964" y="578" type="line"/>
      <point x="2026" y="576" type="line" smooth="yes"/>
      <point x="2151" y="572"/>
      <point x="2197" y="523"/>
      <point x="2197" y="355" type="curve" smooth="yes"/>
      <point x="2197" y="294" type="line" smooth="yes"/>
      <point x="2197" y="-196"/>
      <point x="1927" y="-398"/>
      <point x="1345" y="-398" type="curve" smooth="yes"/>
      <point x="1160" y="-398" type="line" smooth="yes"/>
      <point x="513" y="-398"/>
      <point x="163" y="-165"/>
      <point x="163" y="412" type="curve" smooth="yes"/>
      <point x="163" y="705"/>
      <point x="163" y="970"/>
      <point x="163" y="1156" type="curve"/>
      <point x="128" y="1156" type="line"/>
      <point x="128" y="968"/>
      <point x="128" y="705"/>
      <point x="128" y="412" type="curve" smooth="yes"/>
      <point x="128" y="-188"/>
      <point x="497" y="-432"/>
      <point x="1160" y="-432" type="curve" smooth="yes"/>
      <point x="1345" y="-432" type="line" smooth="yes"/>
      <point x="1945" y="-432"/>
      <point x="2232" y="-219"/>
      <point x="2232" y="294" type="curve" smooth="yes"/>
      <point x="2232" y="357" type="line" smooth="yes"/>
      <point x="2232" y="526"/>
      <point x="2184" y="581"/>
      <point x="2088" y="591" type="curve"/>
      <point x="2088" y="592" type="line"/>
      <point x="2188" y="607"/>
      <point x="2221" y="683"/>
      <point x="2221" y="813" type="curve" smooth="yes"/>
      <point x="2221" y="883" type="line"/>
      <point x="2221" y="1084"/>
      <point x="2134" y="1178"/>
    </contour>
    <contour>
      <point x="880" y="1178" type="curve" smooth="yes"/>
      <point x="574" y="1178"/>
      <point x="418" y="1018"/>
      <point x="418" y="692" type="curve" smooth="yes"/>
      <point x="418" y="219" type="line" smooth="yes"/>
      <point x="418" y="61"/>
      <point x="477" y="-18"/>
      <point x="597" y="-18" type="curve" smooth="yes"/>
      <point x="716" y="-18"/>
      <point x="774" y="61"/>
      <point x="774" y="219" type="curve" smooth="yes"/>
      <point x="774" y="585" type="line" smooth="yes"/>
      <point x="774" y="729"/>
      <point x="716" y="802"/>
      <point x="610" y="802" type="curve" smooth="yes"/>
      <point x="530" y="802"/>
      <point x="477" y="753"/>
      <point x="453" y="687" type="curve"/>
      <point x="449" y="687" type="line"/>
      <point x="448" y="613" type="line"/>
      <point x="472" y="711"/>
      <point x="527" y="768"/>
      <point x="606" y="768" type="curve" smooth="yes"/>
      <point x="694" y="768"/>
      <point x="739" y="704"/>
      <point x="739" y="583" type="curve" smooth="yes"/>
      <point x="739" y="221" type="line" smooth="yes"/>
      <point x="739" y="79"/>
      <point x="693" y="15"/>
      <point x="597" y="15" type="curve" smooth="yes"/>
      <point x="501" y="15"/>
      <point x="453" y="79"/>
      <point x="453" y="221" type="curve" smooth="yes"/>
      <point x="453" y="687" type="line"/>
      <point x="453" y="687" type="line"/>
      <point x="453" y="689"/>
      <point x="453" y="690"/>
      <point x="453" y="692" type="curve" smooth="yes"/>
      <point x="453" y="994"/>
      <point x="589" y="1144"/>
      <point x="880" y="1144" type="curve" smooth="yes"/>
      <point x="998" y="1144"/>
      <point x="1085" y="1121"/>
      <point x="1131" y="1091" type="curve"/>
      <point x="1138" y="1087" type="line"/>
      <point x="1260" y="997"/>
      <point x="1289" y="861"/>
      <point x="1289" y="615" type="curve" smooth="yes"/>
      <point x="1289" y="223" type="line" smooth="yes"/>
      <point x="1289" y="79"/>
      <point x="1241" y="15"/>
      <point x="1144" y="15" type="curve" smooth="yes"/>
      <point x="1044" y="15"/>
      <point x="995" y="79"/>
      <point x="995" y="223" type="curve" smooth="yes"/>
      <point x="995" y="615" type="line" smooth="yes"/>
      <point x="995" y="859"/>
      <point x="1030" y="997"/>
      <point x="1157" y="1087" type="curve"/>
      <point x="1129" y="1106" type="line"/>
      <point x="1002" y="1014"/>
      <point x="960" y="870"/>
      <point x="960" y="620" type="curve" smooth="yes"/>
      <point x="960" y="221" type="line" smooth="yes"/>
      <point x="960" y="61"/>
      <point x="1021" y="-18"/>
      <point x="1144" y="-18" type="curve" smooth="yes"/>
      <point x="1265" y="-18"/>
      <point x="1324" y="61"/>
      <point x="1324" y="221" type="curve" smooth="yes"/>
      <point x="1324" y="620" type="line" smooth="yes"/>
      <point x="1324" y="870"/>
      <point x="1287" y="1014"/>
      <point x="1171" y="1102" type="curve"/>
      <point x="1169" y="1104" type="line"/>
      <point x="1110" y="1146"/>
      <point x="1011" y="1178"/>
    </contour>
  </outline>
</glyph>
<glyph name="NnaMatraU_Simple.tm" format="2">
  <advance width="2350"/>
  <note>
NnaMatraU.tm
</note>
  <outline>
    <contour>
      <point x="1125" y="1178" type="curve" smooth="yes"/>
      <point x="1001" y="1178"/>
      <point x="898" y="1152"/>
      <point x="825" y="1106" type="curve"/>
      <point x="851" y="1086" type="line"/>
      <point x="914" y="1124"/>
      <point x="1010" y="1146"/>
      <point x="1125" y="1146" type="curve" smooth="yes"/>
      <point x="1249" y="1146"/>
      <point x="1336" y="1124"/>
      <point x="1381" y="1097" type="curve"/>
      <point x="1388" y="1093" type="line"/>
      <point x="1508" y="1008"/>
      <point x="1539" y="868"/>
      <point x="1539" y="622" type="curve" smooth="yes"/>
      <point x="1539" y="223" type="line" smooth="yes"/>
      <point x="1539" y="79"/>
      <point x="1491" y="15"/>
      <point x="1394" y="15" type="curve" smooth="yes"/>
      <point x="1294" y="15"/>
      <point x="1245" y="79"/>
      <point x="1245" y="223" type="curve" smooth="yes"/>
      <point x="1245" y="622" type="line" smooth="yes"/>
      <point x="1245" y="867"/>
      <point x="1282" y="1006"/>
      <point x="1407" y="1093" type="curve"/>
      <point x="1381" y="1113" type="line"/>
      <point x="1256" y="1025"/>
      <point x="1210" y="880"/>
      <point x="1210" y="627" type="curve" smooth="yes"/>
      <point x="1210" y="221" type="line" smooth="yes"/>
      <point x="1210" y="61"/>
      <point x="1270" y="-18"/>
      <point x="1394" y="-18" type="curve" smooth="yes"/>
      <point x="1515" y="-18"/>
      <point x="1574" y="61"/>
      <point x="1574" y="221" type="curve" smooth="yes"/>
      <point x="1574" y="627" type="line" smooth="yes"/>
      <point x="1574" y="878"/>
      <point x="1534" y="1025"/>
      <point x="1420" y="1108" type="curve"/>
      <point x="1418" y="1110" type="line"/>
      <point x="1355" y="1152"/>
      <point x="1260" y="1178"/>
    </contour>
    <contour>
      <point x="1627" y="1178" type="curve" smooth="yes"/>
      <point x="1529" y="1178"/>
      <point x="1444" y="1152"/>
      <point x="1385" y="1115" type="curve"/>
      <point x="1410" y="1095" type="line"/>
      <point x="1461" y="1123"/>
      <point x="1537" y="1145"/>
      <point x="1627" y="1145" type="curve" smooth="yes"/>
      <point x="1808" y="1145"/>
      <point x="1880" y="1057"/>
      <point x="1880" y="881" type="curve" smooth="yes"/>
      <point x="1880" y="804" type="line" smooth="yes"/>
      <point x="1880" y="668"/>
      <point x="1842" y="600"/>
      <point x="1724" y="596" type="curve" smooth="yes"/>
      <point x="1658" y="594" type="line"/>
      <point x="1658" y="567" type="line"/>
      <point x="1720" y="565" type="line" smooth="yes"/>
      <point x="1845" y="561"/>
      <point x="1891" y="510"/>
      <point x="1891" y="337" type="curve" smooth="yes"/>
      <point x="1891" y="212" type="line" smooth="yes"/>
      <point x="1891" y="-80"/>
      <point x="1827" y="-201"/>
      <point x="1571" y="-217" type="curve"/>
      <point x="64" y="-217" type="line"/>
      <point x="70" y="-248" type="line"/>
      <point x="2218" y="-248" type="line"/>
      <point x="2218" y="-217" type="line"/>
      <point x="1704" y="-217" type="line"/>
      <point x="1704" y="-215" type="line"/>
      <point x="1873" y="-177"/>
      <point x="1926" y="-54"/>
      <point x="1926" y="210" type="curve" smooth="yes"/>
      <point x="1926" y="339" type="line" smooth="yes"/>
      <point x="1926" y="513"/>
      <point x="1878" y="570"/>
      <point x="1783" y="580" type="curve"/>
      <point x="1783" y="581" type="line"/>
      <point x="1882" y="596"/>
      <point x="1915" y="672"/>
      <point x="1915" y="802" type="curve" smooth="yes"/>
      <point x="1915" y="883" type="line" smooth="yes"/>
      <point x="1915" y="1084"/>
      <point x="1830" y="1178"/>
    </contour>
    <contour>
      <point x="2183" y="1156" type="line"/>
      <point x="2183" y="-232" type="line"/>
      <point x="2218" y="-232" type="line"/>
      <point x="2218" y="1156" type="line"/>
    </contour>
    <contour>
      <point x="574" y="1178" type="curve" smooth="yes"/>
      <point x="268" y="1178"/>
      <point x="112" y="1018"/>
      <point x="112" y="692" type="curve" smooth="yes"/>
      <point x="112" y="219" type="line" smooth="yes"/>
      <point x="112" y="61"/>
      <point x="171" y="-18"/>
      <point x="291" y="-18" type="curve" smooth="yes"/>
      <point x="410" y="-18"/>
      <point x="468" y="61"/>
      <point x="468" y="219" type="curve" smooth="yes"/>
      <point x="468" y="585" type="line" smooth="yes"/>
      <point x="468" y="729"/>
      <point x="410" y="802"/>
      <point x="304" y="802" type="curve" smooth="yes"/>
      <point x="224" y="802"/>
      <point x="171" y="753"/>
      <point x="147" y="687" type="curve"/>
      <point x="143" y="687" type="line"/>
      <point x="142" y="613" type="line"/>
      <point x="166" y="711"/>
      <point x="221" y="768"/>
      <point x="300" y="768" type="curve" smooth="yes"/>
      <point x="388" y="768"/>
      <point x="433" y="704"/>
      <point x="433" y="583" type="curve" smooth="yes"/>
      <point x="433" y="221" type="line" smooth="yes"/>
      <point x="433" y="79"/>
      <point x="387" y="15"/>
      <point x="291" y="15" type="curve" smooth="yes"/>
      <point x="195" y="15"/>
      <point x="147" y="79"/>
      <point x="147" y="221" type="curve" smooth="yes"/>
      <point x="147" y="687" type="line"/>
      <point x="147" y="687" type="line"/>
      <point x="147" y="689"/>
      <point x="147" y="690"/>
      <point x="147" y="692" type="curve" smooth="yes"/>
      <point x="147" y="994"/>
      <point x="283" y="1144"/>
      <point x="574" y="1144" type="curve" smooth="yes"/>
      <point x="691" y="1144"/>
      <point x="778" y="1121"/>
      <point x="825" y="1091" type="curve"/>
      <point x="832" y="1087" type="line"/>
      <point x="954" y="997"/>
      <point x="983" y="861"/>
      <point x="983" y="615" type="curve" smooth="yes"/>
      <point x="983" y="223" type="line" smooth="yes"/>
      <point x="983" y="79"/>
      <point x="935" y="15"/>
      <point x="838" y="15" type="curve" smooth="yes"/>
      <point x="738" y="15"/>
      <point x="689" y="79"/>
      <point x="689" y="223" type="curve" smooth="yes"/>
      <point x="689" y="615" type="line" smooth="yes"/>
      <point x="689" y="859"/>
      <point x="724" y="997"/>
      <point x="851" y="1087" type="curve"/>
      <point x="823" y="1106" type="line"/>
      <point x="696" y="1014"/>
      <point x="654" y="870"/>
      <point x="654" y="620" type="curve" smooth="yes"/>
      <point x="654" y="221" type="line" smooth="yes"/>
      <point x="654" y="61"/>
      <point x="715" y="-18"/>
      <point x="838" y="-18" type="curve" smooth="yes"/>
      <point x="959" y="-18"/>
      <point x="1018" y="61"/>
      <point x="1018" y="221" type="curve" smooth="yes"/>
      <point x="1018" y="620" type="line" smooth="yes"/>
      <point x="1018" y="870"/>
      <point x="981" y="1014"/>
      <point x="865" y="1102" type="curve"/>
      <point x="864" y="1104" type="line"/>
      <point x="804" y="1146"/>
      <point x="704" y="1178"/>
    </contour>
  </outline>
</glyph>
<glyph name="NnnaMatraU.tm" format="2">
  <advance width="1794"/>
  <note>
NnnaMatraU.tm
</note>
  <guideline x="545" y="528" angle="270"/>
  <guideline x="227" y="528" angle="270"/>
  <outline>
    <contour>
      <point x="1071" y="1178" type="curve" smooth="yes"/>
      <point x="973" y="1178"/>
      <point x="889" y="1152"/>
      <point x="829" y="1115" type="curve"/>
      <point x="854" y="1095" type="line"/>
      <point x="905" y="1124"/>
      <point x="981" y="1146"/>
      <point x="1071" y="1146" type="curve" smooth="yes"/>
      <point x="1252" y="1146"/>
      <point x="1324" y="1058"/>
      <point x="1324" y="881" type="curve" smooth="yes"/>
      <point x="1324" y="804" type="line"/>
      <point x="1324" y="668"/>
      <point x="1286" y="600"/>
      <point x="1168" y="596" type="curve" smooth="yes"/>
      <point x="1102" y="594" type="line"/>
      <point x="1102" y="567" type="line"/>
      <point x="1164" y="565" type="line" smooth="yes"/>
      <point x="1288" y="561"/>
      <point x="1332" y="510"/>
      <point x="1332" y="337" type="curve" smooth="yes"/>
      <point x="1332" y="212" type="line" smooth="yes"/>
      <point x="1332" y="13"/>
      <point x="1316" y="-158"/>
      <point x="1295" y="-234" type="curve"/>
      <point x="1295" y="-239" type="line"/>
      <point x="1237" y="-410"/>
      <point x="1066" y="-541"/>
      <point x="706" y="-541" type="curve" smooth="yes"/>
      <point x="331" y="-541"/>
      <point x="161" y="-407"/>
      <point x="111" y="-247" type="curve"/>
      <point x="1662" y="-247" type="line"/>
      <point x="1662" y="-216" type="line"/>
      <point x="66" y="-216" type="line"/>
      <point x="113" y="-443"/>
      <point x="329" y="-574"/>
      <point x="706" y="-574" type="curve" smooth="yes"/>
      <point x="1078" y="-574"/>
      <point x="1264" y="-443"/>
      <point x="1332" y="-241" type="curve"/>
      <point x="1332" y="-236" type="line"/>
      <point x="1351" y="-162"/>
      <point x="1367" y="11"/>
      <point x="1367" y="210" type="curve" smooth="yes"/>
      <point x="1367" y="339" type="line" smooth="yes"/>
      <point x="1367" y="513"/>
      <point x="1321" y="570"/>
      <point x="1227" y="580" type="curve"/>
      <point x="1227" y="581" type="line"/>
      <point x="1326" y="596"/>
      <point x="1359" y="672"/>
      <point x="1359" y="802" type="curve" smooth="yes"/>
      <point x="1359" y="883" type="line"/>
      <point x="1359" y="1084"/>
      <point x="1274" y="1178"/>
    </contour>
    <contour>
      <point x="1627" y="1156" type="line"/>
      <point x="1627" y="-232" type="line"/>
      <point x="1662" y="-232" type="line"/>
      <point x="1662" y="1156" type="line"/>
    </contour>
    <contour>
      <point x="574" y="1178" type="curve" smooth="yes"/>
      <point x="268" y="1178"/>
      <point x="112" y="1018"/>
      <point x="112" y="692" type="curve" smooth="yes"/>
      <point x="112" y="219" type="line" smooth="yes"/>
      <point x="112" y="61"/>
      <point x="171" y="-18"/>
      <point x="291" y="-18" type="curve" smooth="yes"/>
      <point x="410" y="-18"/>
      <point x="468" y="61"/>
      <point x="468" y="219" type="curve" smooth="yes"/>
      <point x="468" y="585" type="line" smooth="yes"/>
      <point x="468" y="729"/>
      <point x="410" y="802"/>
      <point x="304" y="802" type="curve" smooth="yes"/>
      <point x="224" y="802"/>
      <point x="171" y="753"/>
      <point x="147" y="687" type="curve"/>
      <point x="143" y="687" type="line"/>
      <point x="142" y="613" type="line"/>
      <point x="166" y="711"/>
      <point x="221" y="768"/>
      <point x="300" y="768" type="curve" smooth="yes"/>
      <point x="388" y="768"/>
      <point x="433" y="704"/>
      <point x="433" y="583" type="curve" smooth="yes"/>
      <point x="433" y="221" type="line" smooth="yes"/>
      <point x="433" y="79"/>
      <point x="387" y="15"/>
      <point x="291" y="15" type="curve" smooth="yes"/>
      <point x="195" y="15"/>
      <point x="147" y="79"/>
      <point x="147" y="221" type="curve" smooth="yes"/>
      <point x="147" y="687" type="line"/>
      <point x="147" y="687" type="line"/>
      <point x="147" y="689"/>
      <point x="147" y="690"/>
      <point x="147" y="692" type="curve" smooth="yes"/>
      <point x="147" y="994"/>
      <point x="283" y="1144"/>
      <point x="574" y="1144" type="curve" smooth="yes"/>
      <point x="694" y="1144"/>
      <point x="780" y="1122"/>
      <point x="825" y="1097" type="curve"/>
      <point x="832" y="1093" type="line"/>
      <point x="952" y="1008"/>
      <point x="983" y="868"/>
      <point x="983" y="622" type="curve" smooth="yes"/>
      <point x="983" y="223" type="line" smooth="yes"/>
      <point x="983" y="79"/>
      <point x="935" y="15"/>
      <point x="838" y="15" type="curve" smooth="yes"/>
      <point x="738" y="15"/>
      <point x="689" y="79"/>
      <point x="689" y="223" type="curve" smooth="yes"/>
      <point x="689" y="622" type="line" smooth="yes"/>
      <point x="689" y="867"/>
      <point x="726" y="1006"/>
      <point x="851" y="1093" type="curve"/>
      <point x="825" y="1113" type="line"/>
      <point x="700" y="1025"/>
      <point x="654" y="880"/>
      <point x="654" y="627" type="curve" smooth="yes"/>
      <point x="654" y="221" type="line" smooth="yes"/>
      <point x="654" y="61"/>
      <point x="715" y="-18"/>
      <point x="838" y="-18" type="curve" smooth="yes"/>
      <point x="959" y="-18"/>
      <point x="1018" y="61"/>
      <point x="1018" y="221" type="curve" smooth="yes"/>
      <point x="1018" y="627" type="line" smooth="yes"/>
      <point x="1018" y="878"/>
      <point x="978" y="1025"/>
      <point x="864" y="1108" type="curve"/>
      <point x="862" y="1110" type="line"/>
      <point x="804" y="1148"/>
      <point x="707" y="1178"/>
    </contour>
  </outline>
</glyph>
<glyph name="NumberSign_Simple.tm" format="2">
  <advance width="957"/>
  <note>
NumberSign.tm
</note>
  <anchor x="503" y="1236" name="top"/>
  <outline>
    <contour>
      <point x="834" y="1848" type="curve" smooth="yes"/>
      <point x="736" y="1848"/>
      <point x="692" y="1782"/>
      <point x="692" y="1666" type="curve" smooth="yes"/>
      <point x="692" y="1578" type="line"/>
      <point x="690" y="1578" type="line"/>
      <point x="683" y="1644"/>
      <point x="643" y="1681"/>
      <point x="575" y="1681" type="curve" smooth="yes"/>
      <point x="479" y="1681"/>
      <point x="435" y="1622"/>
      <point x="435" y="1499" type="curve" smooth="yes"/>
      <point x="435" y="1325" type="line"/>
      <point x="435" y="1241"/>
      <point x="445" y="1188"/>
      <point x="476" y="1154" type="curve"/>
      <point x="518" y="1154" type="line"/>
      <point x="479" y="1191"/>
      <point x="470" y="1234"/>
      <point x="470" y="1325" type="curve" smooth="yes"/>
      <point x="470" y="1493" type="line"/>
      <point x="470" y="1598"/>
      <point x="499" y="1648"/>
      <point x="576" y="1648" type="curve" smooth="yes"/>
      <point x="656" y="1648"/>
      <point x="683" y="1596"/>
      <point x="683" y="1477" type="curve" smooth="yes"/>
      <point x="683" y="1317" type="line"/>
      <point x="718" y="1317" type="line"/>
      <point x="718" y="1657" type="line" smooth="yes"/>
      <point x="718" y="1766"/>
      <point x="759" y="1817"/>
      <point x="834" y="1817" type="curve" smooth="yes"/>
      <point x="909" y="1817"/>
      <point x="943" y="1766"/>
      <point x="943" y="1668" type="curve" smooth="yes"/>
      <point x="943" y="1576" type="line" smooth="yes"/>
      <point x="943" y="1418"/>
      <point x="919" y="1342"/>
      <point x="863" y="1249" type="curve"/>
      <point x="863" y="1243" type="line"/>
      <point x="1191" y="1243" type="line"/>
      <point x="1195" y="1274" type="line"/>
      <point x="900" y="1274" type="line"/>
      <point x="904" y="1254" type="line"/>
      <point x="957" y="1341"/>
      <point x="978" y="1418"/>
      <point x="978" y="1574" type="curve" smooth="yes"/>
      <point x="978" y="1670" type="line" smooth="yes"/>
      <point x="978" y="1788"/>
      <point x="928" y="1848"/>
    </contour>
    <component base="Na_Simple.tm"/>
  </outline>
</glyph>
<glyph name="NyaMatraI.tm" format="2">
  <advance width="1496"/>
  <note>
NyaMatraI.tm
</note>
  <guideline x="2562" y="785" angle="90"/>
  <outline>
    <contour>
      <point x="1002" y="1139" type="line"/>
      <point x="1002" y="0" type="line"/>
      <point x="1037" y="0" type="line"/>
      <point x="1037" y="1139" type="line"/>
    </contour>
    <contour>
      <point x="1206" y="794" type="curve" smooth="yes"/>
      <point x="1113" y="794"/>
      <point x="1059" y="740"/>
      <point x="1037" y="664" type="curve"/>
      <point x="1026" y="664" type="line"/>
      <point x="1026" y="561" type="line"/>
      <point x="1032" y="561" type="line"/>
      <point x="1048" y="681"/>
      <point x="1100" y="760"/>
      <point x="1201" y="760" type="curve" smooth="yes"/>
      <point x="1315" y="760"/>
      <point x="1349" y="675"/>
      <point x="1349" y="517" type="curve" smooth="yes"/>
      <point x="1349" y="333" type="line" smooth="yes"/>
      <point x="1349" y="-176"/>
      <point x="1175" y="-354"/>
      <point x="787" y="-354" type="curve" smooth="yes"/>
      <point x="787" y="-354" type="line" smooth="yes"/>
      <point x="380" y="-354"/>
      <point x="163" y="-161"/>
      <point x="163" y="357" type="curve" smooth="yes"/>
      <point x="163" y="721"/>
      <point x="163" y="935"/>
      <point x="163" y="1156" type="curve"/>
      <point x="128" y="1156" type="line"/>
      <point x="128" y="942"/>
      <point x="128" y="727"/>
      <point x="128" y="353" type="curve" smooth="yes"/>
      <point x="128" y="-178"/>
      <point x="360" y="-388"/>
      <point x="787" y="-388" type="curve" smooth="yes"/>
      <point x="787" y="-388" type="line" smooth="yes"/>
      <point x="1201" y="-388"/>
      <point x="1384" y="-191"/>
      <point x="1384" y="329" type="curve" smooth="yes"/>
      <point x="1384" y="523" type="line" smooth="yes"/>
      <point x="1384" y="703"/>
      <point x="1331" y="794"/>
    </contour>
    <contour>
      <point x="1163" y="1156" type="line"/>
      <point x="858" y="1156" type="line"/>
      <point x="858" y="1124" type="line"/>
      <point x="1163" y="1124" type="line"/>
    </contour>
    <contour>
      <point x="1177" y="1616" type="curve" smooth="yes"/>
      <point x="1027" y="1616"/>
      <point x="962" y="1532"/>
      <point x="962" y="1344" type="curve"/>
      <point x="962" y="1315" type="line" smooth="yes"/>
      <point x="962" y="1244"/>
      <point x="970" y="1196"/>
      <point x="997" y="1154" type="curve"/>
      <point x="1034" y="1154" type="line"/>
      <point x="1004" y="1199"/>
      <point x="997" y="1239"/>
      <point x="997" y="1315" type="curve" smooth="yes"/>
      <point x="997" y="1339" type="line"/>
      <point x="997" y="1509"/>
      <point x="1043" y="1583"/>
      <point x="1177" y="1583" type="curve" smooth="yes"/>
      <point x="1304" y="1583"/>
      <point x="1349" y="1509"/>
      <point x="1349" y="1339" type="curve" smooth="yes"/>
      <point x="1349" y="849" type="line"/>
      <point x="1384" y="849" type="line"/>
      <point x="1384" y="1344" type="line" smooth="yes"/>
      <point x="1384" y="1532"/>
      <point x="1322" y="1616"/>
    </contour>
    <component base="VowelE_NonExporting" xOffset="318"/>
    <component base="RaBeak_Nonexporting" xOffset="1001"/>
  </outline>
</glyph>
<glyph name="NyaMatraU.tm" format="2">
  <advance width="1485"/>
  <note>
NyaMatraU.tm
</note>
  <guideline x="-124" y="-315" angle="90"/>
  <guideline x="221" y="-315" angle="90"/>
  <outline>
    <contour>
      <point x="686" y="1139" type="line"/>
      <point x="686" y="0" type="line"/>
      <point x="721" y="0" type="line"/>
      <point x="721" y="1139" type="line"/>
    </contour>
    <contour>
      <point x="888" y="794" type="curve" smooth="yes"/>
      <point x="796" y="794"/>
      <point x="743" y="740"/>
      <point x="721" y="664" type="curve"/>
      <point x="710" y="664" type="line"/>
      <point x="710" y="561" type="line"/>
      <point x="716" y="561" type="line"/>
      <point x="732" y="681"/>
      <point x="783" y="760"/>
      <point x="883" y="760" type="curve" smooth="yes"/>
      <point x="995" y="760"/>
      <point x="1027" y="675"/>
      <point x="1027" y="517" type="curve" smooth="yes"/>
      <point x="1027" y="212" type="line" smooth="yes"/>
      <point x="1027" y="13"/>
      <point x="1012" y="-156"/>
      <point x="996" y="-232" type="curve"/>
      <point x="996" y="-239" type="line"/>
      <point x="953" y="-396"/>
      <point x="832" y="-512"/>
      <point x="565" y="-512" type="curve" smooth="yes"/>
      <point x="278" y="-512"/>
      <point x="149" y="-390"/>
      <point x="109" y="-248" type="curve"/>
      <point x="1353" y="-248" type="line"/>
      <point x="1353" y="-216" type="line"/>
      <point x="66" y="-216" type="line"/>
      <point x="105" y="-424"/>
      <point x="272" y="-545"/>
      <point x="565" y="-545" type="curve" smooth="yes"/>
      <point x="843" y="-545"/>
      <point x="983" y="-425"/>
      <point x="1032" y="-241" type="curve"/>
      <point x="1032" y="-234" type="line"/>
      <point x="1047" y="-160"/>
      <point x="1062" y="11"/>
      <point x="1062" y="210" type="curve" smooth="yes"/>
      <point x="1062" y="523" type="line" smooth="yes"/>
      <point x="1062" y="703"/>
      <point x="1010" y="794"/>
    </contour>
    <contour>
      <point x="1318" y="1156" type="line"/>
      <point x="1318" y="-232" type="line"/>
      <point x="1353" y="-232" type="line"/>
      <point x="1353" y="1156" type="line"/>
    </contour>
    <contour>
      <point x="593" y="1156" type="line"/>
      <point x="593" y="1124" type="line"/>
      <point x="829" y="1124" type="line"/>
      <point x="829" y="1156" type="line"/>
    </contour>
    <component base="VowelE_NonExporting" xOffset="2"/>
    <component base="RaBeak_Nonexporting" xOffset="718"/>
  </outline>
</glyph>
<glyph name="PaMatraI.tm" format="2">
  <advance width="1030"/>
  <note>
PaMatraI.tm
</note>
  <outline>
    <contour>
      <point x="559" y="1156" type="line"/>
      <point x="559" y="34" type="line"/>
      <point x="272" y="34" type="line"/>
      <point x="272" y="0" type="line"/>
      <point x="594" y="0" type="line"/>
      <point x="594" y="1156" type="line"/>
    </contour>
    <contour>
      <point x="167" y="1156" type="line"/>
      <point x="132" y="1156" type="line"/>
      <point x="132" y="0" type="line"/>
      <point x="472" y="0" type="line"/>
      <point x="472" y="34" type="line"/>
      <point x="167" y="34" type="line"/>
    </contour>
    <contour>
      <point x="622" y="1616" type="curve" smooth="yes"/>
      <point x="427" y="1616"/>
      <point x="339" y="1494"/>
      <point x="339" y="1253" type="curve" smooth="yes"/>
      <point x="339" y="1150" type="line" smooth="yes"/>
      <point x="339" y="947"/>
      <point x="402" y="833"/>
      <point x="561" y="802" type="curve"/>
      <point x="563" y="834" type="line"/>
      <point x="414" y="869"/>
      <point x="374" y="973"/>
      <point x="374" y="1150" type="curve" smooth="yes"/>
      <point x="374" y="1250" type="line" smooth="yes"/>
      <point x="374" y="1471"/>
      <point x="443" y="1582"/>
      <point x="622" y="1582" type="curve" smooth="yes"/>
      <point x="799" y="1582"/>
      <point x="863" y="1475"/>
      <point x="863" y="1250" type="curve" smooth="yes"/>
      <point x="863" y="0" type="line"/>
      <point x="898" y="0" type="line"/>
      <point x="898" y="1253" type="line" smooth="yes"/>
      <point x="898" y="1496"/>
      <point x="813" y="1616"/>
    </contour>
  </outline>
</glyph>
